<?xml version="1.0" standalone="no"?>
<!DOCTYPE svg PUBLIC "-//W3C//DTD SVG 1.1//EN" "http://www.w3.org/Graphics/SVG/1.1/DTD/svg11.dtd" >
<svg xmlns="http://www.w3.org/2000/svg" xmlns:xlink="http://www.w3.org/1999/xlink" version="1.1">
<metadata>
Created by FontForge 20170731 at Wed Mar  6 02:39:37 2019
 By Aleksey,,,
Copyright (c) 2016-2019 by TypeType. Designers Ivan Gladkikh, Pavel Emelyanov. Technical designers Vika Usmanova, Olexa Volochay, Nadyr Rakhimov. All rights reserved. |DCNT
</metadata>
<defs>
<font id="TTNormsPro-Regular" horiz-adv-x="600" >
  <font-face 
    font-family="TT Norms Pro"
    font-weight="400"
    font-stretch="normal"
    units-per-em="1000"
    panose-1="2 0 5 3 3 0 0 2 0 3"
    ascent="700"
    descent="-300"
    x-height="480"
    cap-height="700"
    bbox="-520 -220 1438 990"
    underline-thickness="50"
    underline-position="-250"
    unicode-range="U+000D-FB06"
  />
<missing-glyph horiz-adv-x="0" 
 />
    <glyph glyph-name="f_f" unicode="ff" horiz-adv-x="605" 
d="M105 0v415h-75v65h75v70q0 67 34.5 103.5t95.5 36.5q24 0 50 -8q3 -2 20 -7v-65l-19 7q-24 8 -46 8q-65 0 -65 -75v-70h215v90q0 67 34.5 103.5t95.5 36.5q24 0 50 -8q3 -1 20 -7v-65l-19 7q-24 8 -46 8q-65 0 -65 -75v-90h115v-65h-115v-415h-70v415h-215v-415h-70z" />
    <glyph glyph-name="uniFB01" unicode="fi" horiz-adv-x="540" 
d="M105 0v415h-75v65h75v90q0 67 34.5 103.5t95.5 36.5q24 0 50 -8q3 -1 20 -7v-65l-19 7q-24 8 -46 8q-65 0 -65 -75v-90h285v-480h-70v415h-215v-415h-70zM380 640q0 19 13 32t32 13t32 -13t13 -32t-13 -32t-32 -13t-32 13t-13 32z" />
    <glyph glyph-name="f_f_i" unicode="ffi" horiz-adv-x="825" 
d="M105 0v415h-75v65h75v70q0 67 34.5 103.5t95.5 36.5q24 0 50 -8q3 -2 20 -7v-65l-19 7q-24 8 -46 8q-65 0 -65 -75v-70h215v90q0 67 34.5 103.5t95.5 36.5q24 0 50 -8q3 -1 20 -7v-65l-19 7q-24 8 -46 8q-65 0 -65 -75v-90h285v-480h-70v415h-215v-415h-70v415h-215v-415
h-70zM665 640q0 19 13 32t32 13t32 -13t13 -32t-13 -32t-32 -13t-32 13t-13 32z" />
    <glyph glyph-name=".notdef" horiz-adv-x="0" 
 />
    <glyph glyph-name=".null" horiz-adv-x="0" 
 />
    <glyph glyph-name="nonmarkingreturn" horiz-adv-x="333" 
 />
    <glyph glyph-name="NULL" horiz-adv-x="0" 
 />
    <glyph glyph-name="NULL" horiz-adv-x="0" 
 />
    <glyph glyph-name="CR" unicode="&#xd;" horiz-adv-x="0" 
 />
    <glyph glyph-name="space" unicode=" " horiz-adv-x="210" 
 />
    <glyph glyph-name="exclam" unicode="!" horiz-adv-x="310" 
d="M125 170l-15 530h90l-15 -530h-60zM105 40q0 23 13.5 36.5t36.5 13.5t36.5 -13.5t13.5 -36.5t-13.5 -36.5t-36.5 -13.5t-36.5 13.5t-13.5 36.5z" />
    <glyph glyph-name="quotedbl" unicode="&#x22;" horiz-adv-x="350" 
d="M65 490v210h65v-210h-65zM220 490v210h65v-210h-65z" />
    <glyph glyph-name="numbersign" unicode="#" horiz-adv-x="725" 
d="M135 0l40 205h-155l10 65h157l31 160h-148l10 65h150l40 205h65l-40 -205h190l40 205h65l-40 -205h155l-10 -65h-157l-31 -160h148l-10 -65h-150l-40 -205h-65l40 205h-190l-40 -205h-65zM252 270h190l31 160h-190z" />
    <glyph glyph-name="dollar" unicode="$" horiz-adv-x="565" 
d="M45 95l45 51q19 -25 46 -43q58 -43 144 -43q77 0 118.5 35.5t41.5 94.5q0 36 -21 61t-54.5 39.5t-74 26t-81 26t-74 34.5t-54.5 56t-21 87q0 71 51.5 125t138.5 63v102h70v-102q68 -9 127 -49q28 -20 43 -39l-50 -50q-14 17 -39 35q-56 35 -116 35q-69 0 -109.5 -35
t-40.5 -85q0 -36 21 -61.5t54.5 -39.5t74 -25.5t81 -26t74 -34.5t54.5 -56t21 -87q0 -80 -51.5 -133.5t-143.5 -64.5v-102h-70v101q-89 9 -155 56q-31 22 -50 48z" />
    <glyph glyph-name="percent" unicode="%" horiz-adv-x="760" 
d="M40 555q0 63 46 109t109 46t109 -46t46 -109t-46 -109t-109 -46t-109 46t-46 109zM125 0l440 700h70l-440 -700h-70zM195 460q39 0 64.5 26.5t25.5 68.5t-25.5 68.5t-64.5 26.5t-64.5 -26.5t-25.5 -68.5t25.5 -68.5t64.5 -26.5zM410 145q0 63 46 109t109 46t109 -46
t46 -109t-46 -109t-109 -46t-109 46t-46 109zM565 50q39 0 64.5 26.5t25.5 68.5t-25.5 68.5t-64.5 26.5t-64.5 -26.5t-25.5 -68.5t25.5 -68.5t64.5 -26.5z" />
    <glyph glyph-name="ampersand" unicode="&#x26;" horiz-adv-x="625" 
d="M290 365l160 -195q9 15 22 46q23 61 23 124h65q0 -83 -33 -163q-12 -30 -32 -62q11 -17 24 -30q30 -30 56 -30q6 0 20 2l10 3v-65l-11 -3q-14 -2 -24 -2q-44 0 -84 40q-18 18 -31 40q-20 -21 -48 -40q-62 -40 -137 -40q-88 0 -144 50t-56 120q0 80 67 149q30 32 68 56
q-32 32 -53 63q-52 71 -52 127q0 64 46.5 109.5t113.5 45.5t113.5 -44.5t46.5 -105.5q0 -64 -65 -137q-30 -33 -65 -58zM255 410q27 20 50 46q50 54 50 99q0 39 -26.5 64.5t-68.5 25.5t-68.5 -25.5t-26.5 -64.5q0 -38 45 -95q21 -27 45 -50zM410 115l-165 210
q-30 -23 -55 -51q-55 -61 -55 -114q0 -48 36 -76.5t99 -28.5q56 0 104 30q21 13 36 30z" />
    <glyph glyph-name="quotesingle" unicode="'" horiz-adv-x="195" 
d="M65 490v210h65v-210h-65z" />
    <glyph glyph-name="parenleft" unicode="(" horiz-adv-x="335" 
d="M300 -190l-55 -30q-48 57 -83 126q-82 162 -82 344t82 344q35 69 83 126l55 -30q-42 -51 -78 -121q-77 -152 -77 -319t77 -319q36 -70 78 -121z" />
    <glyph glyph-name="parenright" unicode=")" horiz-adv-x="335" 
d="M90 -220l-55 30q40 48 77 121q78 154 78 319q0 169 -78 319q-37 73 -77 121l55 30q45 -54 82 -126q83 -164 83 -344t-83 -344q-37 -72 -82 -126z" />
    <glyph glyph-name="asterisk" unicode="*" horiz-adv-x="390" 
d="M75 420l85 105l-125 30l20 55l120 -40l-10 130h60l-10 -130l120 40l20 -55l-125 -30l85 -105l-45 -35l-75 110l-75 -110z" />
    <glyph glyph-name="plus" unicode="+" horiz-adv-x="515" 
d="M225 70v190h-185v65h185v190h65v-190h185v-65h-185v-190h-65z" />
    <glyph glyph-name="comma" unicode="," horiz-adv-x="220" 
d="M0 -105l90 195l70 -40l-115 -180z" />
    <glyph glyph-name="hyphen" unicode="-" horiz-adv-x="395" 
d="M45 265v65h305v-65h-305z" />
    <glyph glyph-name="period" unicode="." horiz-adv-x="210" 
d="M55 40q0 23 13.5 36.5t36.5 13.5t36.5 -13.5t13.5 -36.5t-13.5 -36.5t-36.5 -13.5t-36.5 13.5t-13.5 36.5z" />
    <glyph glyph-name="slash" unicode="/" horiz-adv-x="365" 
d="M0 -210l300 920h65l-300 -920h-65z" />
    <glyph glyph-name="zero" unicode="0" horiz-adv-x="680" 
d="M341 -10q-115 0 -198 99t-83 261t83 261t197 99t197 -99t83 -261t-82.5 -261t-196.5 -99zM341 60q83 0 143.5 77.5t60.5 212.5t-60.5 212.5t-144.5 77.5t-144.5 -77.5t-60.5 -212.5q0 -136 60.5 -213t145.5 -77z" />
    <glyph glyph-name="one" unicode="1" horiz-adv-x="350" 
d="M170 0v560h-130v45q75 4 120 49q19 19 30 46h55v-700h-75z" />
    <glyph glyph-name="two" unicode="2" horiz-adv-x="550" 
d="M125 70h365v-70h-450q0 60 20.5 110t54 84.5t73.5 64.5t79.5 56t73 53t54 61.5t20.5 75.5q0 61 -39.5 98t-110.5 37q-77 0 -122 -60q-19 -25 -28 -60l-65 30q14 47 40 80q64 80 175 80q100 0 162.5 -58.5t62.5 -146.5q0 -51 -23 -94.5t-58 -73t-79 -61.5t-83.5 -59
t-73.5 -65.5t-48 -81.5z" />
    <glyph glyph-name="three" unicode="3" horiz-adv-x="560" 
d="M30 95l50 50q19 -25 46 -43q62 -42 139 -42q76 0 120.5 38.5t44.5 96.5q0 55 -46 95t-119 40h-70v70h70q63 0 99 34t36 91q0 50 -36.5 82.5t-98.5 32.5q-65 0 -119 -40q-26 -19 -41 -40l-50 55q23 27 52 47q70 48 158 48q92 0 151 -54t59 -131q0 -76 -53 -123
q-23 -21 -52 -32q37 -11 65 -33q65 -55 65 -142q0 -82 -65.5 -143.5t-169.5 -61.5q-103 0 -178 52q-34 22 -57 53z" />
    <glyph glyph-name="four" unicode="4" horiz-adv-x="585" 
d="M30 150v85l335 465h95v-480h90v-70h-90v-150h-75v150h-355zM100 220h285v395z" />
    <glyph glyph-name="five" unicode="5" horiz-adv-x="605" 
d="M75 95l50 50q19 -24 45 -43q62 -42 135 -42q75 0 120 44t45 116t-44 116t-116 44q-67 0 -117 -38q-22 -16 -38 -37h-55l25 395h375v-70h-310l-15 -220q19 12 36 20q42 20 99 20q102 0 168.5 -65.5t66.5 -164.5q0 -102 -66 -166t-174 -64q-98 0 -173 52q-32 22 -57 53z
" />
    <glyph glyph-name="six" unicode="6" horiz-adv-x="590" 
d="M105 370l210 330h75l-165 -260l20 5q22 5 55 5q102 0 168.5 -65.5t66.5 -164.5t-68 -164.5t-172 -65.5t-172 65.5t-68 164.5q0 55 25 107q8 19 25 43zM130 220q0 -72 45 -116t120 -44t120 44t45 116t-45 116t-120 44t-120 -44t-45 -116z" />
    <glyph glyph-name="seven" unicode="7" horiz-adv-x="495" 
d="M80 0l310 630h-360v70h440v-70l-310 -630h-80z" />
    <glyph glyph-name="eight" unicode="8" horiz-adv-x="590" 
d="M60 205q0 82 60 136q26 24 60 39q-26 14 -45 33q-45 45 -45 112q0 73 60 129t145 56t145 -56t60 -129q0 -67 -45 -112q-19 -19 -45 -33q34 -15 60 -39q60 -54 60 -136q0 -88 -67.5 -151.5t-167.5 -63.5t-167.5 63.5t-67.5 151.5zM165 525q0 -50 35.5 -82.5t94.5 -32.5
t94.5 32.5t35.5 82.5t-35.5 82.5t-94.5 32.5t-94.5 -32.5t-35.5 -82.5zM135 205q0 -59 44 -102t116 -43t116 43t44 102q0 57 -47 101t-113 44t-113 -44t-47 -101z" />
    <glyph glyph-name="nine" unicode="9" horiz-adv-x="590" 
d="M200 0l165 260q-11 -4 -20 -5q-25 -5 -55 -5q-102 0 -168.5 65.5t-66.5 164.5t68 164.5t172 65.5t172 -65.5t68 -164.5q0 -51 -25 -107q-8 -19 -25 -43l-210 -330h-75zM130 480q0 -72 45 -116t120 -44t120 44t45 116t-45 116t-120 44t-120 -44t-45 -116z" />
    <glyph glyph-name="colon" unicode=":" horiz-adv-x="210" 
d="M55 40q0 23 13.5 36.5t36.5 13.5t36.5 -13.5t13.5 -36.5t-13.5 -36.5t-36.5 -13.5t-36.5 13.5t-13.5 36.5zM55 440q0 23 13.5 36.5t36.5 13.5t36.5 -13.5t13.5 -36.5t-13.5 -36.5t-36.5 -13.5t-36.5 13.5t-13.5 36.5z" />
    <glyph glyph-name="semicolon" unicode=";" horiz-adv-x="220" 
d="M0 -105l90 195l70 -40l-115 -180zM65 440q0 23 13.5 36.5t36.5 13.5t36.5 -13.5t13.5 -36.5t-13.5 -36.5t-36.5 -13.5t-36.5 13.5t-13.5 36.5z" />
    <glyph glyph-name="less" unicode="&#x3c;" horiz-adv-x="495" 
d="M45 225v40l405 215v-70l-315 -165l315 -165v-70z" />
    <glyph glyph-name="equal" unicode="=" horiz-adv-x="495" 
d="M45 350v65h405v-65h-405zM45 175v65h405v-65h-405z" />
    <glyph glyph-name="greater" unicode="&#x3e;" horiz-adv-x="495" 
d="M45 10v70l315 165l-315 165v70l405 -215v-40z" />
    <glyph glyph-name="question" unicode="?" horiz-adv-x="525" 
d="M285 170h-70l-3 14q-2 16 -2 31q0 38 14.5 69.5t36 51.5t47 41.5t47 39.5t36 45t14.5 58q0 50 -39.5 85t-105.5 35q-79 0 -126 -55q-21 -27 -29 -55l-65 20q14 46 42 80q64 80 178 80q96 0 158 -56.5t62 -133.5q0 -44 -14.5 -78.5t-36 -54.5t-47 -41t-47 -39t-36 -48.5
t-14.5 -68.5v-20zM200 40q0 23 13.5 36.5t36.5 13.5t36.5 -13.5t13.5 -36.5t-13.5 -36.5t-36.5 -13.5t-36.5 13.5t-13.5 36.5z" />
    <glyph glyph-name="at" unicode="@" horiz-adv-x="900" 
d="M640 -5l35 -45q-25 -22 -58 -40q-78 -40 -167 -40q-154 0 -267 113t-113 267t113 267t267 113q159 0 269.5 -106.5t110.5 -253.5q0 -103 -44 -156.5t-111 -53.5q-54 0 -85 35q-13 13 -25 35q-11 -20 -29 -35q-39 -35 -101 -35q-69 0 -119.5 53.5t-50.5 131.5t50.5 131.5
t119.5 53.5q57 0 92 -28q19 -13 28 -27v50h60v-228q0 -77 60 -77q39 0 64.5 36t25.5 114q0 128 -89.5 214t-225.5 86q-132 0 -223.5 -92.5t-91.5 -227.5t91.5 -227.5t223.5 -92.5q74 0 140 32q26 12 50 33zM440 120q50 0 82.5 34.5t32.5 90.5t-32.5 90.5t-82.5 34.5
q-47 0 -78.5 -35t-31.5 -90t31.5 -90t78.5 -35z" />
    <glyph glyph-name="A" unicode="A" horiz-adv-x="690" 
d="M20 0l290 700h70l290 -700h-80l-80 195h-330l-80 -195h-80zM210 265h270l-135 330z" />
    <glyph glyph-name="B" unicode="B" horiz-adv-x="665" 
d="M105 0v700h270q85 0 140 -52t55 -128q0 -68 -40 -114q-20 -22 -40 -31q32 -15 57 -39q58 -56 58 -136q0 -87 -59.5 -143.5t-155.5 -56.5h-285zM180 406h195q57 0 88.5 30.5t31.5 83.5q0 50 -32 80t-88 30h-195v-224zM180 70h210q63 0 101.5 36t38.5 94t-39 99t-101 41
h-210v-270z" />
    <glyph glyph-name="C" unicode="C" horiz-adv-x="750" 
d="M660 180l50 -45q-35 -44 -74 -73q-98 -72 -216 -72q-150 0 -255 105t-105 255t105 255t255 105q117 0 214 -73q42 -32 71 -72l-50 -45q-25 35 -58 60q-75 60 -177 60q-120 0 -202.5 -83.5t-82.5 -206.5t82.5 -206.5t202.5 -83.5q103 0 180 60q34 26 60 60z" />
    <glyph glyph-name="D" unicode="D" horiz-adv-x="750" 
d="M105 0v700h220q152 0 258.5 -103.5t106.5 -246.5t-106.5 -246.5t-258.5 -103.5h-220zM180 70h145q123 0 206.5 81.5t83.5 198.5t-83.5 198.5t-206.5 81.5h-145v-560z" />
    <glyph glyph-name="E" unicode="E" horiz-adv-x="640" 
d="M105 0v700h480v-70h-405v-230h325v-70h-325v-260h415v-70h-490z" />
    <glyph glyph-name="F" unicode="F" horiz-adv-x="615" 
d="M105 0v700h475v-70h-400v-240h320v-70h-320v-320h-75z" />
    <glyph glyph-name="G" unicode="G" horiz-adv-x="795" 
d="M480 290v70h235v-225q-32 -41 -76 -73q-102 -72 -219 -72q-150 0 -255 105t-105 255t105 255t255 105q117 0 214 -73q42 -32 71 -72l-50 -45q-25 35 -58 60q-75 60 -177 60q-120 0 -202.5 -83.5t-82.5 -206.5t82.5 -206.5t202.5 -83.5q96 0 166 47q32 21 54 48v135h-160z
" />
    <glyph glyph-name="H" unicode="H" horiz-adv-x="750" 
d="M105 0v700h75v-310h390v310h75v-700h-75v320h-390v-320h-75z" />
    <glyph glyph-name="I" unicode="I" horiz-adv-x="285" 
d="M105 0v700h75v-700h-75z" />
    <glyph glyph-name="J" unicode="J" horiz-adv-x="495" 
d="M10 70l50 50q12 -16 30 -30q40 -30 90 -30q64 0 102 38.5t38 106.5v495h75v-495q0 -94 -60.5 -154.5t-154.5 -60.5q-68 0 -126 40q-28 19 -44 40z" />
    <glyph glyph-name="K" unicode="K" horiz-adv-x="670" 
d="M105 0v700h75v-395l360 395h95l-265 -290l290 -410h-90l-250 355l-140 -150v-205h-75z" />
    <glyph glyph-name="L" unicode="L" horiz-adv-x="560" 
d="M105 0v700h75v-630h360v-70h-435z" />
    <glyph glyph-name="M" unicode="M" horiz-adv-x="920" 
d="M105 0v700h65l290 -380l290 380h65v-700h-75v570l-280 -370l-280 370v-570h-75z" />
    <glyph glyph-name="N" unicode="N" horiz-adv-x="780" 
d="M105 0v700h65l430 -565v565h75v-700h-65l-430 565v-565h-75z" />
    <glyph glyph-name="O" unicode="O" horiz-adv-x="840" 
d="M60 350q0 150 105 255t255 105t255 -105t105 -255t-105 -255t-255 -105t-255 105t-105 255zM420 60q120 0 202.5 83.5t82.5 206.5t-82.5 206.5t-202.5 83.5t-202.5 -83.5t-82.5 -206.5t82.5 -206.5t202.5 -83.5z" />
    <glyph glyph-name="P" unicode="P" horiz-adv-x="650" 
d="M105 0v700h265q97 0 161 -63t64 -157t-64 -157t-161 -63h-190v-260h-75zM180 330h190q68 0 109 41t41 109t-41 109t-109 41h-190v-300z" />
    <glyph glyph-name="Q" unicode="Q" horiz-adv-x="840" 
d="M810 -70v-65l-11 -3q-16 -2 -34 -2q-119 0 -201 70q-38 33 -59 70q-13 -4 -24 -5q-28 -5 -61 -5q-150 0 -255 105t-105 255t105 255t255 105t255 -105t105 -255t-103 -253q-45 -45 -102 -72q15 -26 44 -50q62 -50 146 -50q18 0 34 2zM420 60q120 0 202.5 83.5t82.5 206.5
t-82.5 206.5t-202.5 83.5t-202.5 -83.5t-82.5 -206.5t82.5 -206.5t202.5 -83.5z" />
    <glyph glyph-name="R" unicode="R" horiz-adv-x="675" 
d="M105 0v700h280q93 0 154 -60t61 -150q0 -97 -73 -160q-34 -27 -72 -40l165 -290h-85l-155 280h-200v-280h-75zM180 350h205q64 0 102 38t38 102t-38 102t-102 38h-205v-280z" />
    <glyph glyph-name="S" unicode="S" horiz-adv-x="565" 
d="M45 95l45 51q19 -25 46 -43q58 -43 144 -43q77 0 118.5 35.5t41.5 94.5q0 36 -21 61t-54.5 39.5t-74 26t-81 26t-74 34.5t-54.5 56t-21 87q0 79 62 134.5t163 55.5q85 0 153 -45q29 -19 52 -45l-50 -50q-14 17 -39 35q-56 35 -116 35q-69 0 -109.5 -35t-40.5 -85
q0 -36 21 -61.5t54.5 -39.5t74 -25.5t81 -26t74 -34.5t54.5 -56t21 -87q0 -89 -62.5 -144.5t-172.5 -55.5q-103 0 -178 52q-34 22 -57 53z" />
    <glyph glyph-name="T" unicode="T" horiz-adv-x="555" 
d="M240 0v630h-220v70h515v-70h-220v-630h-75z" />
    <glyph glyph-name="U" unicode="U" horiz-adv-x="760" 
d="M95 275v425h75v-425q0 -93 60 -154t150 -61t150 61t60 154v425h75v-425q0 -120 -82.5 -202.5t-202.5 -82.5t-202.5 82.5t-82.5 202.5z" />
    <glyph glyph-name="V" unicode="V" horiz-adv-x="680" 
d="M305 0l-275 700h80l230 -595l230 595h80l-275 -700h-70z" />
    <glyph glyph-name="W" unicode="W" horiz-adv-x="1040" 
d="M260 0l-230 700h80l185 -585l190 585h70l190 -585l185 585h80l-230 -700h-75l-185 585l-185 -585h-75z" />
    <glyph glyph-name="X" unicode="X" horiz-adv-x="650" 
d="M20 0l260 365l-240 335h90l195 -275l195 275h90l-240 -335l260 -365h-90l-215 305l-215 -305h-90z" />
    <glyph glyph-name="Y" unicode="Y" horiz-adv-x="635" 
d="M280 0v245l-260 455h85l210 -375h5l210 375h85l-260 -455v-245h-75z" />
    <glyph glyph-name="Z" unicode="Z" 
d="M45 0v70l410 560h-395v70h485v-70l-410 -560h420v-70h-510z" />
    <glyph glyph-name="bracketleft" unicode="[" horiz-adv-x="335" 
d="M90 -210v920h205v-65h-135v-790h135v-65h-205z" />
    <glyph glyph-name="backslash" unicode="\" horiz-adv-x="365" 
d="M300 -210l-300 920h65l300 -920h-65z" />
    <glyph glyph-name="bracketright" unicode="]" horiz-adv-x="335" 
d="M40 -210v65h135v790h-135v65h205v-920h-205z" />
    <glyph glyph-name="asciicircum" unicode="^" horiz-adv-x="400" 
d="M45 420l130 280h50l130 -280h-65l-90 200l-90 -200h-65z" />
    <glyph glyph-name="underscore" unicode="_" horiz-adv-x="330" 
d="M-10 -170v65h350v-65h-350z" />
    <glyph glyph-name="grave" unicode="`" horiz-adv-x="210" 
d="M125 565l-95 135h75l75 -135h-55z" />
    <glyph glyph-name="a" unicode="a" horiz-adv-x="520" 
d="M370 0v65q-15 -21 -38 -38q-53 -37 -117 -37q-73 0 -121.5 42.5t-48.5 97.5q0 122 140 145l185 30q0 53 -33.5 86.5t-86.5 33.5q-52 0 -99 -35q-22 -19 -36 -35l-45 45q19 25 47 45q61 45 133 45q82 0 136 -53t54 -132v-305h-70zM370 215v30l-165 -30q-90 -16 -90 -85
q0 -32 26.5 -53.5t73.5 -21.5q69 0 112 44t43 116z" />
    <glyph glyph-name="b" unicode="b" 
d="M85 0v700h70v-290q17 23 41 40q54 40 124 40q99 0 167 -71t68 -179t-68 -179t-167 -71q-70 0 -124 40q-24 17 -41 40v-70h-70zM320 55q69 0 117 52t48 133t-48 133t-117 52q-65 0 -115 -54t-50 -131t50 -131t115 -54z" />
    <glyph glyph-name="c" unicode="c" horiz-adv-x="515" 
d="M435 135l50 -45q-20 -25 -53 -50q-70 -50 -147 -50q-99 0 -169.5 73t-70.5 177t70.5 177t169.5 73q78 0 144 -48q27 -20 51 -47l-50 -50q-16 22 -37 40q-48 40 -108 40q-69 0 -119.5 -53.5t-50.5 -131.5t50.5 -131.5t119.5 -53.5q57 0 111 40q23 19 39 40z" />
    <glyph glyph-name="d" unicode="d" 
d="M445 0v70q-15 -21 -41 -40q-56 -40 -124 -40q-99 0 -167 71t-68 179t68 179t167 71q68 0 124 -40q26 -19 41 -40v290h70v-700h-70zM280 55q65 0 115 54t50 131t-50 131t-115 54q-69 0 -117 -52t-48 -133t48 -133t117 -52z" />
    <glyph glyph-name="e" unicode="e" horiz-adv-x="555" 
d="M440 135l45 -45q-19 -26 -51 -50q-70 -50 -149 -50q-99 0 -169.5 73t-70.5 177t70 177t165 73q99 0 164.5 -68t65.5 -172q0 -5 -3 -26l-2 -10l-390 1q4 -65 53.5 -112.5t116.5 -47.5q61 0 115 40q26 21 40 40zM115 275h325q-8 65 -52.5 107.5t-107.5 42.5t-110 -44
t-55 -106z" />
    <glyph glyph-name="f" unicode="f" horiz-adv-x="320" 
d="M105 0v415h-75v65h75v90q0 67 34.5 103.5t95.5 36.5q24 0 50 -8q3 -1 20 -7v-65l-19 7q-24 8 -46 8q-65 0 -65 -75v-90h115v-65h-115v-415h-70z" />
    <glyph glyph-name="g" unicode="g" horiz-adv-x="580" 
d="M65 -110l45 45q14 -19 40 -40q54 -40 115 -40q69 0 117 50.5t48 124.5v55q-13 -21 -37 -38q-53 -37 -123 -37q-94 0 -159.5 69.5t-65.5 170.5t65.5 170.5t159.5 69.5q69 0 123 -38q23 -17 37 -37v65h70v-450q0 -101 -68.5 -170.5t-166.5 -69.5q-85 0 -151 50
q-32 25 -49 50zM270 75q68 0 114 50t46 125t-46 125t-114 50q-64 0 -109.5 -50.5t-45.5 -124.5t45.5 -124.5t109.5 -50.5z" />
    <glyph glyph-name="h" unicode="h" horiz-adv-x="585" 
d="M85 0v700h70v-290q14 21 38 40q54 40 117 40q87 0 141 -56t54 -149v-285h-70v285q0 63 -36 101.5t-94 38.5q-65 0 -107.5 -44.5t-42.5 -115.5v-265h-70z" />
    <glyph glyph-name="i" unicode="i" horiz-adv-x="230" 
d="M70 640q0 19 13 32t32 13t32 -13t13 -32t-13 -32t-32 -13t-32 13t-13 32zM80 0v480h70v-480h-70z" />
    <glyph glyph-name="j" unicode="j" horiz-adv-x="230" 
d="M70 640q0 19 13 32t32 13t32 -13t13 -32t-13 -32t-32 -13t-32 13t-13 32zM-40 -195v65l16 -8q15 -7 39 -7q65 0 65 75v550h70v-550q0 -140 -130 -140q-24 0 -43 7q-13 5 -17 8z" />
    <glyph glyph-name="k" unicode="k" horiz-adv-x="510" 
d="M85 0v700h70v-475l240 255h85l-185 -195l205 -285h-80l-170 235l-95 -100v-135h-70z" />
    <glyph glyph-name="l" unicode="l" horiz-adv-x="240" 
d="M85 0v700h70v-700h-70z" />
    <glyph glyph-name="m" unicode="m" horiz-adv-x="870" 
d="M80 0v480h70v-60q13 19 32 35q47 35 103 35q72 0 121 -43q20 -17 34 -42q13 23 37 42q55 43 128 43q82 0 133.5 -54t51.5 -151v-285h-70v285q0 67 -32.5 103.5t-87.5 36.5q-54 0 -92 -44t-38 -116v-265h-70v285q0 67 -32.5 103.5t-87.5 36.5q-54 0 -92 -44t-38 -116v-265
h-70z" />
    <glyph glyph-name="n" unicode="n" horiz-adv-x="580" 
d="M80 0v480h70v-70q14 21 38 40q54 40 117 40q87 0 141 -56t54 -149v-285h-70v285q0 63 -36 101.5t-94 38.5q-65 0 -107.5 -44.5t-42.5 -115.5v-265h-70z" />
    <glyph glyph-name="o" unicode="o" horiz-adv-x="580" 
d="M290 -10q-102 0 -173.5 72.5t-71.5 177.5t71.5 177.5t173.5 72.5t173.5 -72.5t71.5 -177.5t-71.5 -177.5t-173.5 -72.5zM290 55q72 0 123.5 53.5t51.5 131.5t-51.5 131.5t-123.5 53.5t-123.5 -53.5t-51.5 -131.5q0 -77 51.5 -131t123.5 -54z" />
    <glyph glyph-name="p" unicode="p" horiz-adv-x="595" 
d="M80 -210v690h70v-70q17 23 41 40q54 40 124 40q99 0 167 -71t68 -179t-68 -179t-167 -71q-70 0 -124 40q-24 17 -41 40v-280h-70zM315 55q69 0 117 52t48 133t-48 133t-117 52q-65 0 -115 -54t-50 -131t50 -131t115 -54z" />
    <glyph glyph-name="q" unicode="q" horiz-adv-x="595" 
d="M445 -210v280q-15 -21 -41 -40q-56 -40 -124 -40q-99 0 -167 71t-68 179t68 179t167 71q68 0 124 -40q26 -19 41 -40v70h70v-690h-70zM280 55q65 0 115 54t50 131t-50 131t-115 54q-69 0 -117 -52t-48 -133t48 -133t117 -52z" />
    <glyph glyph-name="r" unicode="r" horiz-adv-x="345" 
d="M80 0v480h70v-65q19 22 39 37q54 38 121 38h20v-70h-30q-62 0 -106 -43t-44 -112v-265h-70z" />
    <glyph glyph-name="s" unicode="s" horiz-adv-x="430" 
d="M35 75l50 50q14 -20 32 -35q39 -35 93 -35q51 0 78 22.5t27 57.5q0 30 -27 48.5t-65 29.5t-76 24.5t-65 42.5t-27 75q0 54 45 94.5t115 40.5q59 0 115 -33q24 -14 40 -32l-50 -50q-12 15 -26 25q-40 25 -79 25q-40 0 -65 -21t-25 -49q0 -29 27 -46.5t65 -28t76 -24
t65 -44t27 -77.5q0 -62 -47.5 -103.5t-127.5 -41.5q-75 0 -133 42q-26 18 -42 43z" />
    <glyph glyph-name="t" unicode="t" horiz-adv-x="360" 
d="M120 130v285h-90v65h55q40 0 40 50v110h65v-160h105v-65h-105v-285q0 -75 65 -75q25 0 46 7q1 1 8.5 3.5t10.5 4.5v-65q-3 -2 -10 -4.5t-10 -3.5q-21 -7 -48 -7q-63 0 -97.5 36t-34.5 104z" />
    <glyph glyph-name="u" unicode="u" horiz-adv-x="585" 
d="M80 200v280h70v-280q0 -63 39 -104t96 -41q61 0 103 44.5t42 115.5v265h70v-480h-70v65q-15 -21 -38 -38q-53 -37 -117 -37q-84 0 -139.5 58.5t-55.5 151.5z" />
    <glyph glyph-name="v" unicode="v" horiz-adv-x="490" 
d="M210 0l-195 480h75l155 -385l155 385h75l-195 -480h-70z" />
    <glyph glyph-name="w" unicode="w" horiz-adv-x="730" 
d="M180 0l-165 480h75l125 -370l120 370h60l120 -370l125 370h75l-165 -480h-65l-120 365l-120 -365h-65z" />
    <glyph glyph-name="x" unicode="x" horiz-adv-x="480" 
d="M15 0l180 250l-165 230h85l125 -175l125 175h85l-165 -230l180 -250h-85l-140 195l-140 -195h-85z" />
    <glyph glyph-name="y" unicode="y" horiz-adv-x="490" 
d="M45 -200v65q9 -4 16 -5q17 -5 34 -5q62 0 90 75l25 70l-195 480h75l155 -390l155 390h75l-220 -550q-30 -76 -64.5 -108t-85.5 -32q-23 0 -43 5q-7 1 -17 5z" />
    <glyph glyph-name="z" unicode="z" horiz-adv-x="465" 
d="M40 0v65l290 350h-280v65h365v-65l-290 -350h300v-65h-385z" />
    <glyph glyph-name="braceleft" unicode="{" horiz-adv-x="355" 
d="M130 -75v225q0 70 -70 70v60q70 0 70 70v225q0 61 39.5 98t110.5 37h40v-60h-40q-41 0 -63 -20t-22 -55v-225q0 -52 -30 -82q-13 -12 -30 -18q17 -6 30 -18q30 -30 30 -82v-225q0 -35 22 -55t63 -20h40v-60h-40q-71 0 -110.5 37t-39.5 98z" />
    <glyph glyph-name="bar" unicode="|" horiz-adv-x="305" 
d="M120 -210v920h65v-920h-65z" />
    <glyph glyph-name="braceright" unicode="}" horiz-adv-x="355" 
d="M35 -210v60h40q41 0 63 20t22 55v225q0 52 30 82q14 12 30 18q-16 6 -30 18q-30 30 -30 82v225q0 35 -22 55t-63 20h-40v60h40q71 0 110.5 -37t39.5 -98v-225q0 -70 70 -70v-60q-70 0 -70 -70v-225q0 -61 -39.5 -98t-110.5 -37h-40z" />
    <glyph glyph-name="asciitilde" unicode="~" horiz-adv-x="530" 
d="M80 240l-45 35q12 22 34 42q47 43 101 43q42 0 74 -17.5t59 -35t57 -17.5q39 0 69 30q12 14 21 30l45 -35q-15 -25 -34 -43q-46 -42 -101 -42q-42 0 -74 17.5t-58.5 35t-57.5 17.5q-39 0 -69 -30q-12 -14 -21 -30z" />
    <glyph glyph-name="nbspace" unicode="&#xa0;" horiz-adv-x="210" 
 />
    <glyph glyph-name="exclamdown" unicode="&#xa1;" horiz-adv-x="280" 
d="M90 440q0 23 13.5 36.5t36.5 13.5t36.5 -13.5t13.5 -36.5t-13.5 -36.5t-36.5 -13.5t-36.5 13.5t-13.5 36.5zM95 -210l15 520h60l15 -520h-90z" />
    <glyph glyph-name="cent" unicode="&#xa2;" horiz-adv-x="500" 
d="M250 -110v103q-86 12 -145.5 80.5t-59.5 166.5q0 95 60 165t145 82v103h65v-104q58 -9 115 -49q27 -22 40 -37l-45 -45q-13 17 -36 35q-49 35 -104 35q-69 0 -119.5 -53.5t-50.5 -131.5t50.5 -131.5t119.5 -53.5q60 0 104 35q20 14 36 35l45 -45q-15 -19 -40 -39
q-56 -41 -115 -47v-104h-65z" />
    <glyph glyph-name="sterling" unicode="&#xa3;" horiz-adv-x="560" 
d="M65 0v70q30 0 50 19t20 46v155h-65v70h65v130q0 98 60.5 159t154.5 61q72 0 135 -43q25 -18 45 -42l-50 -50q-14 19 -33 32q-47 33 -97 33q-60 0 -102.5 -43.5t-42.5 -106.5v-130h205v-70h-205v-155q0 -29 -13 -49q-4 -10 -12 -16h350v-70h-465z" />
    <glyph glyph-name="currency" unicode="&#xa4;" horiz-adv-x="610" 
d="M100 180l58 58q-8 11 -14 26q-14 34 -14 71t14 71q6 15 14 26l-58 58l50 50l58 -58q11 8 26 14q34 14 71 14t71 -14q15 -6 26 -14l58 58l50 -50l-58 -58q8 -11 14 -26q14 -34 14 -71t-14 -71q-6 -15 -14 -26l58 -58l-50 -50l-58 58q-11 -8 -26 -14q-34 -14 -71 -14
t-71 14q-15 6 -26 14l-58 -58zM305 220q49 0 79.5 31t30.5 84t-30.5 84t-79.5 31t-79.5 -31t-30.5 -84t30.5 -84t79.5 -31z" />
    <glyph glyph-name="yen" unicode="&#xa5;" horiz-adv-x="635" 
d="M120 115v65h160v65l-6 10h-154v65h117l-217 380h85l210 -375h5l210 375h85l-218 -380h118v-65h-155l-5 -10v-65h160v-65h-160v-115h-75v115h-160z" />
    <glyph glyph-name="brokenbar" unicode="&#xa6;" horiz-adv-x="305" 
d="M120 330v380h65v-380h-65zM120 -210v380h65v-380h-65z" />
    <glyph glyph-name="section" unicode="&#xa7;" horiz-adv-x="540" 
d="M75 -20l50 50q14 -22 33 -38q45 -37 97 -37q58 0 91.5 27.5t33.5 67.5q0 32 -32.5 54.5t-78.5 38t-92.5 34t-79 54.5t-32.5 89q0 57 50 103q21 18 50 32q-20 9 -35 24q-35 31 -35 81q0 62 50 106t130 44q62 0 118 -35q27 -18 42 -35l-50 -46q-16 16 -30 25q-38 26 -80 26
q-51 0 -80.5 -24.5t-29.5 -60.5q0 -33 32 -55.5t77.5 -37.5t91 -33.5t77.5 -54.5t32 -89q0 -59 -50 -101q-25 -20 -50 -29q22 -12 37 -27q38 -38 38 -83q0 -66 -54 -113t-141 -47q-74 0 -135 45q-26 19 -45 45zM315 195q25 6 45 18q45 29 45 77q0 31 -24.5 56t-50.5 36
t-63 23.5t-42 14.5q-28 -8 -45 -20q-45 -29 -45 -80q0 -31 24.5 -55.5t51.5 -35t62.5 -21t41.5 -13.5z" />
    <glyph glyph-name="dieresis" unicode="&#xa8;" horiz-adv-x="340" 
d="M30 635q0 19 13 32t32 13t32 -13t13 -32t-13 -32t-32 -13t-32 13t-13 32zM220 635q0 19 13 32t32 13t32 -13t13 -32t-13 -32t-32 -13t-32 13t-13 32z" />
    <glyph glyph-name="copyright" unicode="&#xa9;" horiz-adv-x="880" 
d="M75 350q0 150 106 255t259 105t259 -105t106 -255t-106 -255t-259 -105t-259 105t-106 255zM140 350q0 -128 86 -214t214 -86t214 86t86 214t-86 214t-214 86t-214 -86t-86 -214zM555 275l40 -40q-19 -24 -38 -38q-49 -37 -112 -37q-83 0 -136.5 54t-53.5 136t53.5 136
t136.5 54q62 0 112 -38q18 -13 38 -37l-40 -40q-11 15 -27 27q-35 28 -83 28q-57 0 -93.5 -36.5t-36.5 -93.5t36.5 -93.5t93.5 -36.5q49 0 83 27q17 12 27 28z" />
    <glyph glyph-name="ordfeminine" unicode="&#xaa;" horiz-adv-x="330" 
d="M230 415v40q-8 -14 -22 -25q-31 -25 -78 -25q-40 0 -67.5 24.5t-27.5 55.5q0 73 90 90l105 20q0 30 -17.5 47.5t-47.5 17.5q-34 0 -56 -20q-12 -10 -19 -20l-35 30q11 16 27 30q38 30 83 30q115 0 115 -110v-185h-50zM230 540v10l-95 -20q-45 -9 -45 -40q0 -40 50 -40
q38 0 64 25.5t26 64.5z" />
    <glyph glyph-name="guillemotleft" unicode="&#xab;" horiz-adv-x="465" 
d="M160 75l-115 165l115 165h75l-115 -165l115 -165h-75zM345 75l-115 165l115 165h75l-115 -165l115 -165h-75z" />
    <glyph glyph-name="logicalnot" unicode="&#xac;" horiz-adv-x="460" 
d="M45 325v65h375v-205h-70v140h-305z" />
    <glyph glyph-name="uni00AD" unicode="&#xad;" horiz-adv-x="395" 
d="M45 265v65h305v-65h-305z" />
    <glyph glyph-name="registered" unicode="&#xae;" horiz-adv-x="880" 
d="M75 350q0 150 106 255t259 105t259 -105t106 -255t-106 -255t-259 -105t-259 105t-106 255zM140 350q0 -128 86 -214t214 -86t214 86t86 214t-86 214t-214 86t-214 -86t-86 -214zM315 165v370h141q55 0 89.5 -32.5t34.5 -82.5q0 -45 -35 -78q-20 -16 -35 -22l90 -155h-64
l-76 140h-85v-140h-60zM375 365h85q65 0 65 55t-65 55h-85v-110z" />
    <glyph glyph-name="overscore" unicode="&#xaf;" horiz-adv-x="350" 
d="M30 635v55h290v-55h-290z" />
    <glyph glyph-name="degree" unicode="&#xb0;" horiz-adv-x="360" 
d="M40 575q0 57 40 96t100 39t100 -39t40 -96t-40 -96t-100 -39t-100 39t-40 96zM100 575q0 -34 23 -57t57 -23t57 23t23 57t-23 57t-57 23t-57 -23t-23 -57z" />
    <glyph glyph-name="plusminus" unicode="&#xb1;" horiz-adv-x="515" 
d="M225 155v190h-185v65h185v190h65v-190h185v-65h-185v-190h-65zM45 25v65h425v-65h-425z" />
    <glyph glyph-name="uni00B2" unicode="&#xb2;" horiz-adv-x="300" 
d="M95 500h170v-50h-235q0 42 18.5 75.5t45 55t53 39.5t45 38t18.5 42q0 23 -17 39t-43 16q-33 0 -54 -28q-10 -11 -16 -27l-45 15q8 27 22 45q33 45 93 45q52 0 83.5 -29.5t31.5 -75.5q0 -37 -22 -66t-49.5 -45t-57 -39.5t-41.5 -49.5z" />
    <glyph glyph-name="uni00B3" unicode="&#xb3;" horiz-adv-x="310" 
d="M25 505l35 40q11 -14 25 -25q31 -25 70 -25q65 0 65 55q0 27 -18.5 43.5t-51.5 16.5h-40v50h40q26 0 40.5 13.5t14.5 36.5q0 20 -15.5 32.5t-44.5 12.5q-31 0 -55 -22q-14 -14 -19 -22l-36 37q12 16 28 28q37 29 82 29q52 0 83.5 -27.5t31.5 -67.5t-20 -60
q-9 -10 -20 -15q13 -4 27 -16q28 -24 28 -69q0 -46 -32 -75.5t-88 -29.5q-57 0 -99 30q-17 13 -31 30z" />
    <glyph glyph-name="acute" unicode="&#xb4;" horiz-adv-x="210" 
d="M30 565l75 135h75l-95 -135h-55z" />
    <glyph glyph-name="uni00B5" unicode="&#xb5;" horiz-adv-x="580" 
d="M75 -210v690h70v-285q0 -63 36 -101.5t94 -38.5q61 0 100.5 42.5t39.5 112.5v270h70v-380q0 -19 13 -32t32 -13q8 0 18 2l7 3v-65l-8 -3q-10 -2 -22 -2q-60 0 -90 40q-12 18 -15 40q-14 -21 -36 -40q-48 -40 -114 -40q-56 0 -94 20q-15 7 -31 20v-240h-70z" />
    <glyph glyph-name="paragraph" unicode="&#xb6;" horiz-adv-x="540" 
d="M210 -100v470q-68 0 -116.5 48.5t-48.5 116.5t48.5 116.5t116.5 48.5h235v-800h-65v735h-105v-735h-65z" />
    <glyph glyph-name="middot" unicode="&#xb7;" horiz-adv-x="210" 
d="M55 250q0 23 13.5 36.5t36.5 13.5t36.5 -13.5t13.5 -36.5t-13.5 -36.5t-36.5 -13.5t-36.5 13.5t-13.5 36.5z" />
    <glyph glyph-name="cedilla" unicode="&#xb8;" horiz-adv-x="240" 
d="M30 -173l20 33q10 -10 17 -13q19 -12 48 -12q22 0 36 12t14 28q0 15 -11 25t-29 10q-14 0 -22 -5q-7 -5 -8 -5l-25 25l45 95h45l-35 -75h5q38 0 59 -19.5t21 -52.5t-25.5 -55.5t-69.5 -22.5q-31 0 -61 16q-15 8 -24 16z" />
    <glyph glyph-name="uni00B9" unicode="&#xb9;" horiz-adv-x="220" 
d="M95 450v265h-65v40q38 0 60 22q11 11 15 23h45v-350h-55z" />
    <glyph glyph-name="ordmasculine" unicode="&#xba;" horiz-adv-x="360" 
d="M180 400q-64 0 -107 43.5t-43 111.5t43 111.5t107 43.5t107 -43.5t43 -111.5t-43 -111.5t-107 -43.5zM180 450q43 0 69 28.5t26 76.5t-26 76.5t-69 28.5t-69 -28.5t-26 -76.5t26 -76.5t69 -28.5z" />
    <glyph glyph-name="guillemotright" unicode="&#xbb;" horiz-adv-x="465" 
d="M45 75l115 165l-115 165h75l115 -165l-115 -165h-75zM230 75l115 165l-115 165h75l115 -165l-115 -165h-75z" />
    <glyph glyph-name="onequarter" unicode="&#xbc;" horiz-adv-x="655" 
d="M105 350v265h-65v40q38 0 60 22q11 11 15 23h45v-350h-55zM65 0l430 700h65l-430 -700h-65zM365 80v50l155 220h65v-220h40v-50h-40v-80h-55v80h-165zM420 130h110v155z" />
    <glyph glyph-name="onehalf" unicode="&#xbd;" horiz-adv-x="690" 
d="M105 350v265h-65v40q38 0 60 22q11 11 15 23h45v-350h-55zM65 0l430 700h65l-430 -700h-65zM480 50h170v-50h-235q0 42 18.5 75.5t45 55t53 39.5t45 38t18.5 42q0 23 -17 39t-43 16q-33 0 -54 -28q-10 -11 -16 -27l-45 15q8 27 22 45q33 45 93 45q52 0 83.5 -29.5
t31.5 -75.5q0 -37 -22 -66t-49.5 -45t-57 -39.5t-41.5 -49.5z" />
    <glyph glyph-name="threequarters" unicode="&#xbe;" horiz-adv-x="720" 
d="M30 405l35 40q11 -14 25 -25q31 -25 70 -25q65 0 65 55q0 27 -18.5 43.5t-51.5 16.5h-40v50h40q26 0 40.5 13.5t14.5 36.5q0 20 -15.5 32.5t-44.5 12.5q-31 0 -55 -22q-14 -14 -19 -22l-36 37q12 16 28 28q37 29 82 29q52 0 83.5 -27.5t31.5 -67.5t-20 -60
q-9 -10 -20 -15q13 -4 27 -16q28 -24 28 -69q0 -46 -32 -75.5t-88 -29.5q-57 0 -99 30q-17 13 -31 30zM130 0l430 700h65l-430 -700h-65zM430 80v50l155 220h65v-220h40v-50h-40v-80h-55v80h-165zM485 130h110v155z" />
    <glyph glyph-name="questiondown" unicode="&#xbf;" horiz-adv-x="465" 
d="M210 440q0 23 13.5 36.5t36.5 13.5t36.5 -13.5t13.5 -36.5t-13.5 -36.5t-36.5 -13.5t-36.5 13.5t-13.5 36.5zM400 -40l65 -20q-14 -47 -40 -80q-62 -80 -175 -80q-96 0 -158 56.5t-62 133.5q0 44 14.5 78t36 53t47 39t47 36.5t36 46t14.5 67.5v20h70l2 -14q3 -24 3 -31
q0 -44 -20 -78.5t-49 -56.5t-57.5 -43.5t-48.5 -50.5t-20 -66q0 -51 39.5 -85.5t105.5 -34.5q83 0 124 55q19 25 26 55z" />
    <glyph glyph-name="Agrave" unicode="&#xc0;" horiz-adv-x="690" 
d="M20 0l290 700h70l290 -700h-80l-80 195h-330l-80 -195h-80zM210 265h270l-135 330zM315 795l-95 135h75l75 -135h-55z" />
    <glyph glyph-name="Aacute" unicode="&#xc1;" horiz-adv-x="690" 
d="M20 0l290 700h70l290 -700h-80l-80 195h-330l-80 -195h-80zM210 265h270l-135 330zM320 795l75 135h75l-95 -135h-55z" />
    <glyph glyph-name="Acircumflex" unicode="&#xc2;" horiz-adv-x="690" 
d="M20 0l290 700h70l290 -700h-80l-80 195h-330l-80 -195h-80zM210 265h270l-135 330zM200 795l110 135h70l110 -135h-65l-80 95l-80 -95h-65z" />
    <glyph glyph-name="Atilde" unicode="&#xc3;" horiz-adv-x="690" 
d="M20 0l290 700h70l290 -700h-80l-80 195h-330l-80 -195h-80zM210 265h270l-135 330zM240 795h-50q0 58 25 89t65 31q30 0 53 -16.5t41 -32.5t36 -16q16 0 28 16.5t12 48.5h50q0 -58 -25 -89t-65 -31q-30 0 -53 16.5t-41 32.5t-36 16q-16 0 -28 -16.5t-12 -48.5z" />
    <glyph glyph-name="Adieresis" unicode="&#xc4;" horiz-adv-x="690" 
d="M20 0l290 700h70l290 -700h-80l-80 195h-330l-80 -195h-80zM210 265h270l-135 330zM205 855q0 19 13 32t32 13t32 -13t13 -32t-13 -32t-32 -13t-32 13t-13 32zM395 855q0 19 13 32t32 13t32 -13t13 -32t-13 -32t-32 -13t-32 13t-13 32z" />
    <glyph glyph-name="Aring" unicode="&#xc5;" horiz-adv-x="690" 
d="M20 0l290 700h70l290 -700h-80l-80 195h-330l-80 -195h-80zM210 265h270l-135 330zM250 860q0 38 28 64t67 26t67 -26t28 -64t-28 -64t-67 -26t-67 26t-28 64zM345 815q19 0 32 13t13 32t-13 32t-32 13t-32 -13t-13 -32t13 -32t32 -13z" />
    <glyph glyph-name="AE" unicode="&#xc6;" horiz-adv-x="950" 
d="M-30 0l390 700h535v-70h-360v-230h280v-70h-280v-260h370v-70h-445v205h-295l-115 -205h-80zM200 275h260v355h-60z" />
    <glyph glyph-name="Ccedilla" unicode="&#xc7;" horiz-adv-x="750" 
d="M315 -173l20 33q10 -10 17 -13q19 -12 48 -12q22 0 36 12t14 28q0 15 -11 25t-29 10q-14 0 -22 -5q-7 -5 -8 -5l-25 25l31 67q-139 12 -232.5 114.5t-93.5 243.5q0 150 105 255t255 105q117 0 214 -73q42 -32 71 -72l-50 -45q-25 35 -58 60q-75 60 -177 60
q-120 0 -202.5 -83.5t-82.5 -206.5t82.5 -206.5t202.5 -83.5q103 0 180 60q34 26 60 60l50 -45q-28 -37 -71 -70q-96 -70 -208 -74l-21 -46h5q38 0 59 -19.5t21 -52.5t-25.5 -55.5t-69.5 -22.5q-31 0 -61 16q-15 8 -24 16z" />
    <glyph glyph-name="Egrave" unicode="&#xc8;" horiz-adv-x="640" 
d="M105 0v700h480v-70h-405v-230h325v-70h-325v-260h415v-70h-490zM335 795l-95 135h75l75 -135h-55z" />
    <glyph glyph-name="Eacute" unicode="&#xc9;" horiz-adv-x="640" 
d="M105 0v700h480v-70h-405v-230h325v-70h-325v-260h415v-70h-490zM315 795l75 135h75l-95 -135h-55z" />
    <glyph glyph-name="Ecircumflex" unicode="&#xca;" horiz-adv-x="640" 
d="M105 0v700h480v-70h-405v-230h325v-70h-325v-260h415v-70h-490zM205 795l110 135h70l110 -135h-65l-80 95l-80 -95h-65z" />
    <glyph glyph-name="Edieresis" unicode="&#xcb;" horiz-adv-x="640" 
d="M105 0v700h480v-70h-405v-230h325v-70h-325v-260h415v-70h-490zM210 855q0 19 13 32t32 13t32 -13t13 -32t-13 -32t-32 -13t-32 13t-13 32zM400 855q0 19 13 32t32 13t32 -13t13 -32t-13 -32t-32 -13t-32 13t-13 32z" />
    <glyph glyph-name="Igrave" unicode="&#xcc;" horiz-adv-x="285" 
d="M105 0v700h75v-700h-75zM115 795l-95 135h75l75 -135h-55z" />
    <glyph glyph-name="Iacute" unicode="&#xcd;" horiz-adv-x="285" 
d="M105 0v700h75v-700h-75zM120 795l75 135h75l-95 -135h-55z" />
    <glyph glyph-name="Icircumflex" unicode="&#xce;" horiz-adv-x="285" 
d="M105 0v700h75v-700h-75zM0 795l110 135h70l110 -135h-65l-80 95l-80 -95h-65z" />
    <glyph glyph-name="Idieresis" unicode="&#xcf;" horiz-adv-x="285" 
d="M105 0v700h75v-700h-75zM5 855q0 19 13 32t32 13t32 -13t13 -32t-13 -32t-32 -13t-32 13t-13 32zM195 855q0 19 13 32t32 13t32 -13t13 -32t-13 -32t-32 -13t-32 13t-13 32z" />
    <glyph glyph-name="Eth" unicode="&#xd0;" horiz-adv-x="765" 
d="M120 0v315h-95v70h95v315h220q152 0 258.5 -103.5t106.5 -246.5t-106.5 -246.5t-258.5 -103.5h-220zM195 70h145q123 0 206.5 81.5t83.5 198.5t-83.5 198.5t-206.5 81.5h-145v-245h170v-70h-170v-245z" />
    <glyph glyph-name="Ntilde" unicode="&#xd1;" horiz-adv-x="780" 
d="M105 0v700h65l430 -565v565h75v-700h-65l-430 565v-565h-75zM285 795h-50q0 58 25 89t65 31q30 0 53 -16.5t41 -32.5t36 -16q16 0 28 16.5t12 48.5h50q0 -58 -25 -89t-65 -31q-30 0 -53 16.5t-41 32.5t-36 16q-16 0 -28 -16.5t-12 -48.5z" />
    <glyph glyph-name="Ograve" unicode="&#xd2;" horiz-adv-x="840" 
d="M60 350q0 150 105 255t255 105t255 -105t105 -255t-105 -255t-255 -105t-255 105t-105 255zM420 60q120 0 202.5 83.5t82.5 206.5t-82.5 206.5t-202.5 83.5t-202.5 -83.5t-82.5 -206.5t82.5 -206.5t202.5 -83.5zM390 795l-95 135h75l75 -135h-55z" />
    <glyph glyph-name="Oacute" unicode="&#xd3;" horiz-adv-x="840" 
d="M60 350q0 150 105 255t255 105t255 -105t105 -255t-105 -255t-255 -105t-255 105t-105 255zM420 60q120 0 202.5 83.5t82.5 206.5t-82.5 206.5t-202.5 83.5t-202.5 -83.5t-82.5 -206.5t82.5 -206.5t202.5 -83.5zM395 795l75 135h75l-95 -135h-55z" />
    <glyph glyph-name="Ocircumflex" unicode="&#xd4;" horiz-adv-x="840" 
d="M60 350q0 150 105 255t255 105t255 -105t105 -255t-105 -255t-255 -105t-255 105t-105 255zM420 60q120 0 202.5 83.5t82.5 206.5t-82.5 206.5t-202.5 83.5t-202.5 -83.5t-82.5 -206.5t82.5 -206.5t202.5 -83.5zM275 795l110 135h70l110 -135h-65l-80 95l-80 -95h-65z
" />
    <glyph glyph-name="Otilde" unicode="&#xd5;" horiz-adv-x="840" 
d="M60 350q0 150 105 255t255 105t255 -105t105 -255t-105 -255t-255 -105t-255 105t-105 255zM420 60q120 0 202.5 83.5t82.5 206.5t-82.5 206.5t-202.5 83.5t-202.5 -83.5t-82.5 -206.5t82.5 -206.5t202.5 -83.5zM315 795h-50q0 58 25 89t65 31q30 0 53 -16.5t41 -32.5
t36 -16q16 0 28 16.5t12 48.5h50q0 -58 -25 -89t-65 -31q-30 0 -53 16.5t-41 32.5t-36 16q-16 0 -28 -16.5t-12 -48.5z" />
    <glyph glyph-name="Odieresis" unicode="&#xd6;" horiz-adv-x="840" 
d="M60 350q0 150 105 255t255 105t255 -105t105 -255t-105 -255t-255 -105t-255 105t-105 255zM420 60q120 0 202.5 83.5t82.5 206.5t-82.5 206.5t-202.5 83.5t-202.5 -83.5t-82.5 -206.5t82.5 -206.5t202.5 -83.5zM280 855q0 19 13 32t32 13t32 -13t13 -32t-13 -32t-32 -13
t-32 13t-13 32zM470 855q0 19 13 32t32 13t32 -13t13 -32t-13 -32t-32 -13t-32 13t-13 32z" />
    <glyph glyph-name="multiply" unicode="&#xd7;" horiz-adv-x="490" 
d="M60 170l140 140l-140 140l45 45l140 -140l140 140l45 -45l-140 -140l140 -140l-45 -45l-140 140l-140 -140z" />
    <glyph glyph-name="Oslash" unicode="&#xd8;" horiz-adv-x="840" 
d="M50 30l90 90q-20 25 -40 62q-40 80 -40 168q0 150 105 255t255 105q87 0 167 -40q36 -19 63 -40l90 90l50 -50l-90 -90q21 -27 40 -63q40 -80 40 -167q0 -150 -105 -255t-255 -105q-88 0 -168 40q-37 20 -62 40l-90 -90zM190 170l410 410q-24 17 -49 30q-62 30 -131 30
q-120 0 -202.5 -83.5t-82.5 -206.5q0 -75 27 -131q12 -27 28 -49zM650 530l-410 -410q24 -17 49 -30q62 -30 131 -30q120 0 202.5 83.5t82.5 206.5q0 73 -28 131q-11 25 -27 49z" />
    <glyph glyph-name="Ugrave" unicode="&#xd9;" horiz-adv-x="760" 
d="M95 275v425h75v-425q0 -93 60 -154t150 -61t150 61t60 154v425h75v-425q0 -120 -82.5 -202.5t-202.5 -82.5t-202.5 82.5t-82.5 202.5zM355 795l-95 135h75l75 -135h-55z" />
    <glyph glyph-name="Uacute" unicode="&#xda;" horiz-adv-x="760" 
d="M95 275v425h75v-425q0 -93 60 -154t150 -61t150 61t60 154v425h75v-425q0 -120 -82.5 -202.5t-202.5 -82.5t-202.5 82.5t-82.5 202.5zM350 795l75 135h75l-95 -135h-55z" />
    <glyph glyph-name="Ucircumflex" unicode="&#xdb;" horiz-adv-x="760" 
d="M95 275v425h75v-425q0 -93 60 -154t150 -61t150 61t60 154v425h75v-425q0 -120 -82.5 -202.5t-202.5 -82.5t-202.5 82.5t-82.5 202.5zM235 795l110 135h70l110 -135h-65l-80 95l-80 -95h-65z" />
    <glyph glyph-name="Udieresis" unicode="&#xdc;" horiz-adv-x="760" 
d="M95 275v425h75v-425q0 -93 60 -154t150 -61t150 61t60 154v425h75v-425q0 -120 -82.5 -202.5t-202.5 -82.5t-202.5 82.5t-82.5 202.5zM240 855q0 19 13 32t32 13t32 -13t13 -32t-13 -32t-32 -13t-32 13t-13 32zM430 855q0 19 13 32t32 13t32 -13t13 -32t-13 -32t-32 -13
t-32 13t-13 32z" />
    <glyph glyph-name="Yacute" unicode="&#xdd;" horiz-adv-x="635" 
d="M280 0v245l-260 455h85l210 -375h5l210 375h85l-260 -455v-245h-75zM290 795l75 135h75l-95 -135h-55z" />
    <glyph glyph-name="Thorn" unicode="&#xde;" horiz-adv-x="710" 
d="M105 0v700h75v-140h245q107 0 166 -54t59 -146t-59 -146t-166 -54h-245v-160h-75zM180 230h245q74 0 112 34.5t38 95.5t-38 95.5t-112 34.5h-245v-260z" />
    <glyph glyph-name="germandbls" unicode="&#xdf;" horiz-adv-x="585" 
d="M85 0v520q0 79 57.5 134.5t142.5 55.5t142.5 -54.5t57.5 -130.5q0 -60 -43 -107q-18 -20 -42 -33q35 -13 67 -38q68 -54 68 -142q0 -87 -61 -146t-154 -59h-45v70h45q63 0 104 39t41 96t-41 96t-104 39h-45v70h10q52 0 91 34t39 81q0 49 -37.5 84.5t-92.5 35.5
q-56 0 -93 -36t-37 -89v-520h-70z" />
    <glyph glyph-name="agrave" unicode="&#xe0;" horiz-adv-x="520" 
d="M370 0v65q-15 -21 -38 -38q-53 -37 -117 -37q-73 0 -121.5 42.5t-48.5 97.5q0 122 140 145l185 30q0 53 -33.5 86.5t-86.5 33.5q-52 0 -99 -35q-22 -19 -36 -35l-45 45q19 25 47 45q61 45 133 45q82 0 136 -53t54 -132v-305h-70zM370 215v30l-165 -30q-90 -16 -90 -85
q0 -32 26.5 -53.5t73.5 -21.5q69 0 112 44t43 116zM240 565l-95 135h75l75 -135h-55z" />
    <glyph glyph-name="aacute" unicode="&#xe1;" horiz-adv-x="520" 
d="M370 0v65q-15 -21 -38 -38q-53 -37 -117 -37q-73 0 -121.5 42.5t-48.5 97.5q0 122 140 145l185 30q0 53 -33.5 86.5t-86.5 33.5q-52 0 -99 -35q-22 -19 -36 -35l-45 45q19 25 47 45q61 45 133 45q82 0 136 -53t54 -132v-305h-70zM370 215v30l-165 -30q-90 -16 -90 -85
q0 -32 26.5 -53.5t73.5 -21.5q69 0 112 44t43 116zM235 565l75 135h75l-95 -135h-55z" />
    <glyph glyph-name="acircumflex" unicode="&#xe2;" horiz-adv-x="520" 
d="M370 0v65q-15 -21 -38 -38q-53 -37 -117 -37q-73 0 -121.5 42.5t-48.5 97.5q0 122 140 145l185 30q0 53 -33.5 86.5t-86.5 33.5q-52 0 -99 -35q-22 -19 -36 -35l-45 45q19 25 47 45q61 45 133 45q82 0 136 -53t54 -132v-305h-70zM370 215v30l-165 -30q-90 -16 -90 -85
q0 -32 26.5 -53.5t73.5 -21.5q69 0 112 44t43 116zM120 565l110 135h70l110 -135h-65l-80 95l-80 -95h-65z" />
    <glyph glyph-name="atilde" unicode="&#xe3;" horiz-adv-x="520" 
d="M370 0v65q-15 -21 -38 -38q-53 -37 -117 -37q-73 0 -121.5 42.5t-48.5 97.5q0 122 140 145l185 30q0 53 -33.5 86.5t-86.5 33.5q-52 0 -99 -35q-22 -19 -36 -35l-45 45q19 25 47 45q61 45 133 45q82 0 136 -53t54 -132v-305h-70zM370 215v30l-165 -30q-90 -16 -90 -85
q0 -32 26.5 -53.5t73.5 -21.5q69 0 112 44t43 116zM160 565h-50q0 58 25 89t65 31q30 0 53 -16.5t41 -32.5t36 -16q16 0 28 16.5t12 48.5h50q0 -58 -25 -89t-65 -31q-30 0 -53 16.5t-41 32.5t-36 16q-16 0 -28 -16.5t-12 -48.5z" />
    <glyph glyph-name="adieresis" unicode="&#xe4;" horiz-adv-x="520" 
d="M370 0v65q-15 -21 -38 -38q-53 -37 -117 -37q-73 0 -121.5 42.5t-48.5 97.5q0 122 140 145l185 30q0 53 -33.5 86.5t-86.5 33.5q-52 0 -99 -35q-22 -19 -36 -35l-45 45q19 25 47 45q61 45 133 45q82 0 136 -53t54 -132v-305h-70zM370 215v30l-165 -30q-90 -16 -90 -85
q0 -32 26.5 -53.5t73.5 -21.5q69 0 112 44t43 116zM125 630q0 19 13 32t32 13t32 -13t13 -32t-13 -32t-32 -13t-32 13t-13 32zM315 630q0 19 13 32t32 13t32 -13t13 -32t-13 -32t-32 -13t-32 13t-13 32z" />
    <glyph glyph-name="aring" unicode="&#xe5;" horiz-adv-x="520" 
d="M370 0v65q-15 -21 -38 -38q-53 -37 -117 -37q-73 0 -121.5 42.5t-48.5 97.5q0 122 140 145l185 30q0 53 -33.5 86.5t-86.5 33.5q-52 0 -99 -35q-22 -19 -36 -35l-45 45q19 25 47 45q61 45 133 45q82 0 136 -53t54 -132v-305h-70zM370 215v30l-165 -30q-90 -16 -90 -85
q0 -32 26.5 -53.5t73.5 -21.5q69 0 112 44t43 116zM170 640q0 38 28 64t67 26t67 -26t28 -64t-28 -64t-67 -26t-67 26t-28 64zM265 595q19 0 32 13t13 32t-13 32t-32 13t-32 -13t-13 -32t13 -32t32 -13z" />
    <glyph glyph-name="ae" unicode="&#xe6;" horiz-adv-x="870" 
d="M125 355l-45 45q17 25 44 45q57 45 130 45q74 0 128 -50q25 -25 38 -50q17 25 47 50q62 50 138 50q92 0 156 -69t64 -176l-3 -21l-2 -9h-375q4 -64 53.5 -112t113.5 -48q62 0 112 40q21 17 38 40l46 -45q-19 -25 -50 -50q-66 -50 -146 -50q-88 0 -152 60q-31 26 -50 60
q-17 -35 -43 -60q-60 -60 -152 -60q-76 0 -123 41t-47 99q0 61 47.5 105.5t117.5 44.5h165v15q0 58 -33.5 94t-86.5 36q-50 0 -97 -35q-21 -18 -33 -35zM445 280h315q-11 65 -53.5 105t-101.5 40t-105 -43.5t-55 -101.5zM375 215h-165q-44 0 -69.5 -23t-25.5 -62
q0 -32 26.5 -53.5t73.5 -21.5q70 0 115 47t45 113z" />
    <glyph glyph-name="ccedilla" unicode="&#xe7;" horiz-adv-x="515" 
d="M185 -173l20 33q10 -10 17 -13q19 -12 48 -12q22 0 36 12t14 28q0 15 -11 25t-29 10q-14 0 -22 -5q-7 -5 -8 -5l-25 25l31 67q-89 10 -150 80.5t-61 167.5q0 104 70.5 177t169.5 73q78 0 144 -48q27 -20 51 -47l-50 -50q-16 22 -37 40q-48 40 -108 40q-69 0 -119.5 -53.5
t-50.5 -131.5t50.5 -131.5t119.5 -53.5q57 0 111 40q23 19 39 40l50 -45q-23 -28 -49 -47q-63 -47 -135 -52l-21 -46h5q38 0 59 -19.5t21 -52.5t-25.5 -55.5t-69.5 -22.5q-31 0 -61 16q-15 8 -24 16z" />
    <glyph glyph-name="egrave" unicode="&#xe8;" horiz-adv-x="555" 
d="M440 135l45 -45q-19 -26 -51 -50q-70 -50 -149 -50q-99 0 -169.5 73t-70.5 177t70 177t165 73q99 0 164.5 -68t65.5 -172q0 -5 -3 -26l-2 -10l-390 1q4 -65 53.5 -112.5t116.5 -47.5q61 0 115 40q26 21 40 40zM115 275h325q-8 65 -52.5 107.5t-107.5 42.5t-110 -44
t-55 -106zM250 565l-95 135h75l75 -135h-55z" />
    <glyph glyph-name="eacute" unicode="&#xe9;" horiz-adv-x="555" 
d="M440 135l45 -45q-19 -26 -51 -50q-70 -50 -149 -50q-99 0 -169.5 73t-70.5 177t70 177t165 73q99 0 164.5 -68t65.5 -172q0 -5 -3 -26l-2 -10l-390 1q4 -65 53.5 -112.5t116.5 -47.5q61 0 115 40q26 21 40 40zM115 275h325q-8 65 -52.5 107.5t-107.5 42.5t-110 -44
t-55 -106zM255 565l75 135h75l-95 -135h-55z" />
    <glyph glyph-name="ecircumflex" unicode="&#xea;" horiz-adv-x="555" 
d="M440 135l45 -45q-19 -26 -51 -50q-70 -50 -149 -50q-99 0 -169.5 73t-70.5 177t70 177t165 73q99 0 164.5 -68t65.5 -172q0 -5 -3 -26l-2 -10l-390 1q4 -65 53.5 -112.5t116.5 -47.5q61 0 115 40q26 21 40 40zM115 275h325q-8 65 -52.5 107.5t-107.5 42.5t-110 -44
t-55 -106zM135 565l110 135h70l110 -135h-65l-80 95l-80 -95h-65z" />
    <glyph glyph-name="edieresis" unicode="&#xeb;" horiz-adv-x="555" 
d="M440 135l45 -45q-19 -26 -51 -50q-70 -50 -149 -50q-99 0 -169.5 73t-70.5 177t70 177t165 73q99 0 164.5 -68t65.5 -172q0 -5 -3 -26l-2 -10l-390 1q4 -65 53.5 -112.5t116.5 -47.5q61 0 115 40q26 21 40 40zM115 275h325q-8 65 -52.5 107.5t-107.5 42.5t-110 -44
t-55 -106zM140 630q0 19 13 32t32 13t32 -13t13 -32t-13 -32t-32 -13t-32 13t-13 32zM330 630q0 19 13 32t32 13t32 -13t13 -32t-13 -32t-32 -13t-32 13t-13 32z" />
    <glyph glyph-name="igrave" unicode="&#xec;" horiz-adv-x="230" 
d="M80 0v480h70v-480h-70zM85 565l-95 135h75l75 -135h-55z" />
    <glyph glyph-name="iacute" unicode="&#xed;" horiz-adv-x="230" 
d="M80 0v480h70v-480h-70zM85 565l75 135h75l-95 -135h-55z" />
    <glyph glyph-name="icircumflex" unicode="&#xee;" horiz-adv-x="230" 
d="M80 0v480h70v-480h-70zM-30 565l110 135h70l110 -135h-65l-80 95l-80 -95h-65z" />
    <glyph glyph-name="idieresis" unicode="&#xef;" horiz-adv-x="230" 
d="M80 0v480h70v-480h-70zM-25 630q0 19 13 32t32 13t32 -13t13 -32t-13 -32t-32 -13t-32 13t-13 32zM165 630q0 19 13 32t32 13t32 -13t13 -32t-13 -32t-32 -13t-32 13t-13 32z" />
    <glyph glyph-name="eth" unicode="&#xf0;" horiz-adv-x="595" 
d="M150 605l105 60q-22 20 -34 29q-43 32 -76 51l65 30q29 -19 75 -55l30 -25l100 55l35 -35l-100 -55q50 -50 90 -112q90 -144 90 -303q0 -109 -71 -182t-174 -73q-101 0 -170.5 69.5t-69.5 170.5t69.5 170.5t170.5 69.5q54 0 104 -23q23 -11 36 -22h5q-24 67 -85 144
q-20 26 -55 61l-105 -60zM285 55q72 0 121 50t49 125t-49 125t-121 50t-121 -50t-49 -125t49 -125t121 -50z" />
    <glyph glyph-name="ntilde" unicode="&#xf1;" horiz-adv-x="580" 
d="M80 0v480h70v-70q14 21 38 40q54 40 117 40q87 0 141 -56t54 -149v-285h-70v285q0 63 -36 101.5t-94 38.5q-65 0 -107.5 -44.5t-42.5 -115.5v-265h-70zM185 565h-50q0 58 25 89t65 31q30 0 53 -16.5t41 -32.5t36 -16q16 0 28 16.5t12 48.5h50q0 -58 -25 -89t-65 -31
q-30 0 -53 16.5t-41 32.5t-36 16q-16 0 -28 -16.5t-12 -48.5z" />
    <glyph glyph-name="ograve" unicode="&#xf2;" horiz-adv-x="580" 
d="M290 -10q-102 0 -173.5 72.5t-71.5 177.5t71.5 177.5t173.5 72.5t173.5 -72.5t71.5 -177.5t-71.5 -177.5t-173.5 -72.5zM290 55q72 0 123.5 53.5t51.5 131.5t-51.5 131.5t-123.5 53.5t-123.5 -53.5t-51.5 -131.5q0 -77 51.5 -131t123.5 -54zM260 565l-95 135h75l75 -135
h-55z" />
    <glyph glyph-name="oacute" unicode="&#xf3;" horiz-adv-x="580" 
d="M290 -10q-102 0 -173.5 72.5t-71.5 177.5t71.5 177.5t173.5 72.5t173.5 -72.5t71.5 -177.5t-71.5 -177.5t-173.5 -72.5zM290 55q72 0 123.5 53.5t51.5 131.5t-51.5 131.5t-123.5 53.5t-123.5 -53.5t-51.5 -131.5q0 -77 51.5 -131t123.5 -54zM265 565l75 135h75l-95 -135
h-55z" />
    <glyph glyph-name="ocircumflex" unicode="&#xf4;" horiz-adv-x="580" 
d="M290 -10q-102 0 -173.5 72.5t-71.5 177.5t71.5 177.5t173.5 72.5t173.5 -72.5t71.5 -177.5t-71.5 -177.5t-173.5 -72.5zM290 55q72 0 123.5 53.5t51.5 131.5t-51.5 131.5t-123.5 53.5t-123.5 -53.5t-51.5 -131.5q0 -77 51.5 -131t123.5 -54zM145 565l110 135h70l110 -135
h-65l-80 95l-80 -95h-65z" />
    <glyph glyph-name="otilde" unicode="&#xf5;" horiz-adv-x="580" 
d="M290 -10q-102 0 -173.5 72.5t-71.5 177.5t71.5 177.5t173.5 72.5t173.5 -72.5t71.5 -177.5t-71.5 -177.5t-173.5 -72.5zM290 55q72 0 123.5 53.5t51.5 131.5t-51.5 131.5t-123.5 53.5t-123.5 -53.5t-51.5 -131.5q0 -77 51.5 -131t123.5 -54zM185 565h-50q0 58 25 89
t65 31q30 0 53 -16.5t41 -32.5t36 -16q16 0 28 16.5t12 48.5h50q0 -58 -25 -89t-65 -31q-30 0 -53 16.5t-41 32.5t-36 16q-16 0 -28 -16.5t-12 -48.5z" />
    <glyph glyph-name="odieresis" unicode="&#xf6;" horiz-adv-x="580" 
d="M290 -10q-102 0 -173.5 72.5t-71.5 177.5t71.5 177.5t173.5 72.5t173.5 -72.5t71.5 -177.5t-71.5 -177.5t-173.5 -72.5zM290 55q72 0 123.5 53.5t51.5 131.5t-51.5 131.5t-123.5 53.5t-123.5 -53.5t-51.5 -131.5q0 -77 51.5 -131t123.5 -54zM150 630q0 19 13 32t32 13
t32 -13t13 -32t-13 -32t-32 -13t-32 13t-13 32zM340 630q0 19 13 32t32 13t32 -13t13 -32t-13 -32t-32 -13t-32 13t-13 32z" />
    <glyph glyph-name="divide" unicode="&#xf7;" horiz-adv-x="510" 
d="M205 470q0 23 13.5 36.5t36.5 13.5t36.5 -13.5t13.5 -36.5t-13.5 -36.5t-36.5 -13.5t-36.5 13.5t-13.5 36.5zM45 260v65h420v-65h-420zM205 115q0 23 13.5 36.5t36.5 13.5t36.5 -13.5t13.5 -36.5t-13.5 -36.5t-36.5 -13.5t-36.5 13.5t-13.5 36.5z" />
    <glyph glyph-name="oslash" unicode="&#xf8;" horiz-adv-x="580" 
d="M35 20l65 65q-14 14 -28 40q-27 49 -27 115q0 105 71.5 177.5t173.5 72.5q54 0 106 -25q20 -9 39 -25l65 65l45 -45l-65 -65q14 -15 27 -40q28 -50 28 -115q0 -105 -71.5 -177.5t-173.5 -72.5q-58 0 -106 25q-20 9 -39 25l-65 -65zM145 135l245 255q-18 12 -28 17
q-38 18 -72 18q-72 0 -123.5 -53.5t-51.5 -131.5q0 -41 15 -77q6 -16 15 -28zM435 345l-245 -255q10 -10 27 -18q32 -17 73 -17q72 0 123.5 53.5t51.5 131.5q0 36 -15 77q-7 15 -15 28z" />
    <glyph glyph-name="ugrave" unicode="&#xf9;" horiz-adv-x="585" 
d="M80 200v280h70v-280q0 -63 39 -104t96 -41q61 0 103 44.5t42 115.5v265h70v-480h-70v65q-15 -21 -38 -38q-53 -37 -117 -37q-84 0 -139.5 58.5t-55.5 151.5zM260 565l-95 135h75l75 -135h-55z" />
    <glyph glyph-name="uacute" unicode="&#xfa;" horiz-adv-x="585" 
d="M80 200v280h70v-280q0 -63 39 -104t96 -41q61 0 103 44.5t42 115.5v265h70v-480h-70v65q-15 -21 -38 -38q-53 -37 -117 -37q-84 0 -139.5 58.5t-55.5 151.5zM265 565l75 135h75l-95 -135h-55z" />
    <glyph glyph-name="ucircumflex" unicode="&#xfb;" horiz-adv-x="585" 
d="M80 200v280h70v-280q0 -63 39 -104t96 -41q61 0 103 44.5t42 115.5v265h70v-480h-70v65q-15 -21 -38 -38q-53 -37 -117 -37q-84 0 -139.5 58.5t-55.5 151.5zM145 565l110 135h70l110 -135h-65l-80 95l-80 -95h-65z" />
    <glyph glyph-name="udieresis" unicode="&#xfc;" horiz-adv-x="585" 
d="M80 200v280h70v-280q0 -63 39 -104t96 -41q61 0 103 44.5t42 115.5v265h70v-480h-70v65q-15 -21 -38 -38q-53 -37 -117 -37q-84 0 -139.5 58.5t-55.5 151.5zM149 630q0 19 13 32t32 13t32 -13t13 -32t-13 -32t-32 -13t-32 13t-13 32zM339 630q0 19 13 32t32 13t32 -13
t13 -32t-13 -32t-32 -13t-32 13t-13 32z" />
    <glyph glyph-name="yacute" unicode="&#xfd;" horiz-adv-x="490" 
d="M45 -200v65q9 -4 16 -5q17 -5 34 -5q62 0 90 75l25 70l-195 480h75l155 -390l155 390h75l-220 -550q-30 -76 -64.5 -108t-85.5 -32q-23 0 -43 5q-7 1 -17 5zM220 565l75 135h75l-95 -135h-55z" />
    <glyph glyph-name="thorn" unicode="&#xfe;" 
d="M85 -210v910h70v-290q17 23 41 40q54 40 124 40q99 0 167 -71t68 -179t-68 -179t-167 -71q-70 0 -124 40q-24 17 -41 40v-280h-70zM320 55q69 0 117 52t48 133t-48 133t-117 52q-65 0 -115 -54t-50 -131t50 -131t115 -54z" />
    <glyph glyph-name="ydieresis" unicode="&#xff;" horiz-adv-x="490" 
d="M45 -200v65q9 -4 16 -5q17 -5 34 -5q62 0 90 75l25 70l-195 480h75l155 -390l155 390h75l-220 -550q-30 -76 -64.5 -108t-85.5 -32q-23 0 -43 5q-7 1 -17 5zM105 630q0 19 13 32t32 13t32 -13t13 -32t-13 -32t-32 -13t-32 13t-13 32zM295 630q0 19 13 32t32 13t32 -13
t13 -32t-13 -32t-32 -13t-32 13t-13 32z" />
    <glyph glyph-name="Amacron" unicode="&#x100;" horiz-adv-x="690" 
d="M20 0l290 700h70l290 -700h-80l-80 195h-330l-80 -195h-80zM210 265h270l-135 330zM200 830v55h290v-55h-290z" />
    <glyph glyph-name="amacron" unicode="&#x101;" horiz-adv-x="520" 
d="M370 0v65q-15 -21 -38 -38q-53 -37 -117 -37q-73 0 -121.5 42.5t-48.5 97.5q0 122 140 145l185 30q0 53 -33.5 86.5t-86.5 33.5q-52 0 -99 -35q-22 -19 -36 -35l-45 45q19 25 47 45q61 45 133 45q82 0 136 -53t54 -132v-305h-70zM370 215v30l-165 -30q-90 -16 -90 -85
q0 -32 26.5 -53.5t73.5 -21.5q69 0 112 44t43 116zM120 610v55h290v-55h-290z" />
    <glyph glyph-name="Abreve" unicode="&#x102;" horiz-adv-x="690" 
d="M20 0l290 700h70l290 -700h-80l-80 195h-330l-80 -195h-80zM210 265h270l-135 330zM210 930h55q0 -85 80 -85t80 85h55q0 -60 -37.5 -97.5t-97.5 -37.5t-97.5 37.5t-37.5 97.5z" />
    <glyph glyph-name="abreve" unicode="&#x103;" horiz-adv-x="520" 
d="M370 0v65q-15 -21 -38 -38q-53 -37 -117 -37q-73 0 -121.5 42.5t-48.5 97.5q0 122 140 145l185 30q0 53 -33.5 86.5t-86.5 33.5q-52 0 -99 -35q-22 -19 -36 -35l-45 45q19 25 47 45q61 45 133 45q82 0 136 -53t54 -132v-305h-70zM370 215v30l-165 -30q-90 -16 -90 -85
q0 -32 26.5 -53.5t73.5 -21.5q69 0 112 44t43 116zM130 700h55q0 -85 80 -85t80 85h55q0 -60 -37.5 -97.5t-97.5 -37.5t-97.5 37.5t-37.5 97.5z" />
    <glyph glyph-name="Aogonek" unicode="&#x104;" horiz-adv-x="690" 
d="M20 0l290 700h70l290 -700h-30q-15 -16 -28 -36q-27 -38 -27 -74q0 -45 50 -45q23 0 41 7l19 8v-50q-3 -2 -10 -4.5t-10 -3.5q-21 -7 -46 -7q-45 0 -69.5 24t-24.5 66q0 44 27 82q13 19 28 33l-80 195h-330l-80 -195h-80zM210 265h270l-135 330z" />
    <glyph glyph-name="aogonek" unicode="&#x105;" horiz-adv-x="520" 
d="M475 -140v-50q-3 -2 -10 -4.5t-10 -3.5q-21 -7 -46 -7q-45 0 -69.5 24t-24.5 66q0 44 27 82q13 19 28 33v65q-15 -21 -38 -38q-53 -37 -117 -37q-73 0 -121.5 42.5t-48.5 97.5q0 122 140 145l185 30q0 53 -33.5 86.5t-86.5 33.5q-52 0 -99 -35q-22 -19 -36 -35l-45 45
q19 25 47 45q61 45 133 45q82 0 136 -53t54 -132v-305h-20q-15 -16 -28 -36q-27 -38 -27 -74q0 -45 50 -45q23 0 41 7zM370 215v30l-165 -30q-90 -16 -90 -85q0 -32 26.5 -53.5t73.5 -21.5q69 0 112 44t43 116z" />
    <glyph glyph-name="Cacute" unicode="&#x106;" horiz-adv-x="750" 
d="M660 180l50 -45q-35 -44 -74 -73q-98 -72 -216 -72q-150 0 -255 105t-105 255t105 255t255 105q117 0 214 -73q42 -32 71 -72l-50 -45q-25 35 -58 60q-75 60 -177 60q-120 0 -202.5 -83.5t-82.5 -206.5t82.5 -206.5t202.5 -83.5q103 0 180 60q34 26 60 60zM380 795
l75 135h75l-95 -135h-55z" />
    <glyph glyph-name="cacute" unicode="&#x107;" horiz-adv-x="515" 
d="M435 135l50 -45q-20 -25 -53 -50q-70 -50 -147 -50q-99 0 -169.5 73t-70.5 177t70.5 177t169.5 73q78 0 144 -48q27 -20 51 -47l-50 -50q-16 22 -37 40q-48 40 -108 40q-69 0 -119.5 -53.5t-50.5 -131.5t50.5 -131.5t119.5 -53.5q57 0 111 40q23 19 39 40zM255 565
l75 135h75l-95 -135h-55z" />
    <glyph glyph-name="Ccircumflex" unicode="&#x108;" horiz-adv-x="750" 
d="M660 180l50 -45q-35 -44 -74 -73q-98 -72 -216 -72q-150 0 -255 105t-105 255t105 255t255 105q117 0 214 -73q42 -32 71 -72l-50 -45q-25 35 -58 60q-75 60 -177 60q-120 0 -202.5 -83.5t-82.5 -206.5t82.5 -206.5t202.5 -83.5q103 0 180 60q34 26 60 60zM265 795
l110 135h70l110 -135h-65l-80 95l-80 -95h-65z" />
    <glyph glyph-name="ccircumflex" unicode="&#x109;" horiz-adv-x="515" 
d="M435 135l50 -45q-20 -25 -53 -50q-70 -50 -147 -50q-99 0 -169.5 73t-70.5 177t70.5 177t169.5 73q78 0 144 -48q27 -20 51 -47l-50 -50q-16 22 -37 40q-48 40 -108 40q-69 0 -119.5 -53.5t-50.5 -131.5t50.5 -131.5t119.5 -53.5q57 0 111 40q23 19 39 40zM135 565
l110 135h70l110 -135h-65l-80 95l-80 -95h-65z" />
    <glyph glyph-name="Cdotaccent" unicode="&#x10a;" horiz-adv-x="750" 
d="M660 180l50 -45q-35 -44 -74 -73q-98 -72 -216 -72q-150 0 -255 105t-105 255t105 255t255 105q117 0 214 -73q42 -32 71 -72l-50 -45q-25 35 -58 60q-75 60 -177 60q-120 0 -202.5 -83.5t-82.5 -206.5t82.5 -206.5t202.5 -83.5q103 0 180 60q34 26 60 60zM365 855
q0 19 13 32t32 13t32 -13t13 -32t-13 -32t-32 -13t-32 13t-13 32z" />
    <glyph glyph-name="cdotaccent" unicode="&#x10b;" horiz-adv-x="515" 
d="M435 135l50 -45q-20 -25 -53 -50q-70 -50 -147 -50q-99 0 -169.5 73t-70.5 177t70.5 177t169.5 73q78 0 144 -48q27 -20 51 -47l-50 -50q-16 22 -37 40q-48 40 -108 40q-69 0 -119.5 -53.5t-50.5 -131.5t50.5 -131.5t119.5 -53.5q57 0 111 40q23 19 39 40zM235 630
q0 19 13 32t32 13t32 -13t13 -32t-13 -32t-32 -13t-32 13t-13 32z" />
    <glyph glyph-name="Ccaron" unicode="&#x10c;" horiz-adv-x="750" 
d="M660 180l50 -45q-35 -44 -74 -73q-98 -72 -216 -72q-150 0 -255 105t-105 255t105 255t255 105q117 0 214 -73q42 -32 71 -72l-50 -45q-25 35 -58 60q-75 60 -177 60q-120 0 -202.5 -83.5t-82.5 -206.5t82.5 -206.5t202.5 -83.5q103 0 180 60q34 26 60 60zM375 795
l-110 135h65l80 -95l80 95h65l-110 -135h-70z" />
    <glyph glyph-name="ccaron" unicode="&#x10d;" horiz-adv-x="515" 
d="M435 135l50 -45q-20 -25 -53 -50q-70 -50 -147 -50q-99 0 -169.5 73t-70.5 177t70.5 177t169.5 73q78 0 144 -48q27 -20 51 -47l-50 -50q-16 22 -37 40q-48 40 -108 40q-69 0 -119.5 -53.5t-50.5 -131.5t50.5 -131.5t119.5 -53.5q57 0 111 40q23 19 39 40zM245 565
l-110 135h65l80 -95l80 95h65l-110 -135h-70z" />
    <glyph glyph-name="Dcaron" unicode="&#x10e;" horiz-adv-x="750" 
d="M105 0v700h220q152 0 258.5 -103.5t106.5 -246.5t-106.5 -246.5t-258.5 -103.5h-220zM180 70h145q123 0 206.5 81.5t83.5 198.5t-83.5 198.5t-206.5 81.5h-145v-560zM335 795l-110 135h65l80 -95l80 95h65l-110 -135h-70z" />
    <glyph glyph-name="dcaron" unicode="&#x10f;" horiz-adv-x="640" 
d="M445 0v70q-15 -21 -41 -40q-56 -40 -124 -40q-99 0 -167 71t-68 179t68 179t167 71q68 0 124 -40q26 -19 41 -40v290h70v-700h-70zM280 55q65 0 115 54t50 131t-50 131t-115 54q-69 0 -117 -52t-48 -133t48 -133t117 -52zM580 565l45 135h65l-60 -135h-50z" />
    <glyph glyph-name="Dcroat" unicode="&#x110;" horiz-adv-x="765" 
d="M120 0v315h-95v70h95v315h220q152 0 258.5 -103.5t106.5 -246.5t-106.5 -246.5t-258.5 -103.5h-220zM195 70h145q123 0 206.5 81.5t83.5 198.5t-83.5 198.5t-206.5 81.5h-145v-245h170v-70h-170v-245z" />
    <glyph glyph-name="dslash" unicode="&#x111;" 
d="M440 0v70q-14 -22 -39 -40q-54 -40 -126 -40q-94 0 -162 70t-68 170t68 170t162 70q72 0 126 -40q25 -19 39 -40v155h-130v65h130v90h70v-90h80v-65h-80v-545h-70zM275 55q69 0 117 50.5t48 124.5t-48 124.5t-117 50.5q-65 0 -112.5 -50.5t-47.5 -124.5t47.5 -124.5
t112.5 -50.5z" />
    <glyph glyph-name="Emacron" unicode="&#x112;" horiz-adv-x="640" 
d="M105 0v700h480v-70h-405v-230h325v-70h-325v-260h415v-70h-490zM205 830v55h290v-55h-290z" />
    <glyph glyph-name="emacron" unicode="&#x113;" horiz-adv-x="555" 
d="M440 135l45 -45q-19 -26 -51 -50q-70 -50 -149 -50q-99 0 -169.5 73t-70.5 177t70 177t165 73q99 0 164.5 -68t65.5 -172q0 -5 -3 -26l-2 -10l-390 1q4 -65 53.5 -112.5t116.5 -47.5q61 0 115 40q26 21 40 40zM115 275h325q-8 65 -52.5 107.5t-107.5 42.5t-110 -44
t-55 -106zM135 610v55h290v-55h-290z" />
    <glyph glyph-name="Ebreve" unicode="&#x114;" horiz-adv-x="640" 
d="M105 0v700h480v-70h-405v-230h325v-70h-325v-260h415v-70h-490zM210 930h55q0 -85 80 -85t80 85h55q0 -60 -37.5 -97.5t-97.5 -37.5t-97.5 37.5t-37.5 97.5z" />
    <glyph glyph-name="ebreve" unicode="&#x115;" horiz-adv-x="555" 
d="M440 135l45 -45q-19 -26 -51 -50q-70 -50 -149 -50q-99 0 -169.5 73t-70.5 177t70 177t165 73q99 0 164.5 -68t65.5 -172q0 -5 -3 -26l-2 -10l-390 1q4 -65 53.5 -112.5t116.5 -47.5q61 0 115 40q26 21 40 40zM115 275h325q-8 65 -52.5 107.5t-107.5 42.5t-110 -44
t-55 -106zM145 700h55q0 -85 80 -85t80 85h55q0 -60 -37.5 -97.5t-97.5 -37.5t-97.5 37.5t-37.5 97.5z" />
    <glyph glyph-name="Edotaccent" unicode="&#x116;" horiz-adv-x="640" 
d="M105 0v700h480v-70h-405v-230h325v-70h-325v-260h415v-70h-490zM305 855q0 19 13 32t32 13t32 -13t13 -32t-13 -32t-32 -13t-32 13t-13 32z" />
    <glyph glyph-name="edotaccent" unicode="&#x117;" horiz-adv-x="555" 
d="M440 135l45 -45q-19 -26 -51 -50q-70 -50 -149 -50q-99 0 -169.5 73t-70.5 177t70 177t165 73q99 0 164.5 -68t65.5 -172q0 -5 -3 -26l-2 -10l-390 1q4 -65 53.5 -112.5t116.5 -47.5q61 0 115 40q26 21 40 40zM115 275h325q-8 65 -52.5 107.5t-107.5 42.5t-110 -44
t-55 -106zM235 630q0 19 13 32t32 13t32 -13t13 -32t-13 -32t-32 -13t-32 13t-13 32z" />
    <glyph glyph-name="Eogonek" unicode="&#x118;" horiz-adv-x="640" 
d="M105 0v700h480v-70h-405v-230h325v-70h-325v-260h415v-70q-15 -16 -28 -36q-27 -38 -27 -74q0 -45 50 -45q23 0 41 7l19 8v-50q-3 -2 -10 -4.5t-10 -3.5q-21 -7 -46 -7q-45 0 -69.5 24t-24.5 66q0 44 27 82q13 19 28 33h-440z" />
    <glyph glyph-name="eogonek" unicode="&#x119;" horiz-adv-x="555" 
d="M380 -140v-50q-3 -2 -10 -4.5t-10 -3.5q-21 -7 -46 -7q-45 0 -69.5 24t-24.5 66q0 57 46 106q-93 8 -157 79t-64 170q0 104 70 177t165 73q99 0 164.5 -68t65.5 -172q0 -5 -3 -26l-2 -10l-390 1q4 -65 53.5 -112.5t116.5 -47.5q61 0 115 40q26 21 40 40l45 -45
q-18 -24 -43 -43q-55 -45 -124 -54q-48 -58 -48 -103t50 -45q23 0 41 7zM115 275h325q-8 65 -52.5 107.5t-107.5 42.5t-110 -44t-55 -106z" />
    <glyph glyph-name="Ecaron" unicode="&#x11a;" horiz-adv-x="640" 
d="M105 0v700h480v-70h-405v-230h325v-70h-325v-260h415v-70h-490zM320 795l-110 135h65l80 -95l80 95h65l-110 -135h-70z" />
    <glyph glyph-name="ecaron" unicode="&#x11b;" horiz-adv-x="555" 
d="M440 135l45 -45q-19 -26 -51 -50q-70 -50 -149 -50q-99 0 -169.5 73t-70.5 177t70 177t165 73q99 0 164.5 -68t65.5 -172q0 -5 -3 -26l-2 -10l-390 1q4 -65 53.5 -112.5t116.5 -47.5q61 0 115 40q26 21 40 40zM115 275h325q-8 65 -52.5 107.5t-107.5 42.5t-110 -44
t-55 -106zM245 565l-110 135h65l80 -95l80 95h65l-110 -135h-70z" />
    <glyph glyph-name="Gcircumflex" unicode="&#x11c;" horiz-adv-x="795" 
d="M480 290v70h235v-225q-32 -41 -76 -73q-102 -72 -219 -72q-150 0 -255 105t-105 255t105 255t255 105q117 0 214 -73q42 -32 71 -72l-50 -45q-25 35 -58 60q-75 60 -177 60q-120 0 -202.5 -83.5t-82.5 -206.5t82.5 -206.5t202.5 -83.5q96 0 166 47q32 21 54 48v135h-160z
M265 795l110 135h70l110 -135h-65l-80 95l-80 -95h-65z" />
    <glyph glyph-name="gcircumflex" unicode="&#x11d;" horiz-adv-x="580" 
d="M65 -110l45 45q14 -19 40 -40q54 -40 115 -40q69 0 117 50.5t48 124.5v55q-13 -21 -37 -38q-53 -37 -123 -37q-94 0 -159.5 69.5t-65.5 170.5t65.5 170.5t159.5 69.5q69 0 123 -38q23 -17 37 -37v65h70v-450q0 -101 -68.5 -170.5t-166.5 -69.5q-85 0 -151 50
q-32 25 -49 50zM270 75q68 0 114 50t46 125t-46 125t-114 50q-64 0 -109.5 -50.5t-45.5 -124.5t45.5 -124.5t109.5 -50.5zM140 565l110 135h70l110 -135h-65l-80 95l-80 -95h-65z" />
    <glyph glyph-name="Gbreve" unicode="&#x11e;" horiz-adv-x="795" 
d="M480 290v70h235v-225q-32 -41 -76 -73q-102 -72 -219 -72q-150 0 -255 105t-105 255t105 255t255 105q117 0 214 -73q42 -32 71 -72l-50 -45q-25 35 -58 60q-75 60 -177 60q-120 0 -202.5 -83.5t-82.5 -206.5t82.5 -206.5t202.5 -83.5q96 0 166 47q32 21 54 48v135h-160z
M275 930h55q0 -85 80 -85t80 85h55q0 -60 -37.5 -97.5t-97.5 -37.5t-97.5 37.5t-37.5 97.5z" />
    <glyph glyph-name="gbreve" unicode="&#x11f;" horiz-adv-x="580" 
d="M65 -110l45 45q14 -19 40 -40q54 -40 115 -40q69 0 117 50.5t48 124.5v55q-13 -21 -37 -38q-53 -37 -123 -37q-94 0 -159.5 69.5t-65.5 170.5t65.5 170.5t159.5 69.5q69 0 123 -38q23 -17 37 -37v65h70v-450q0 -101 -68.5 -170.5t-166.5 -69.5q-85 0 -151 50
q-32 25 -49 50zM270 75q68 0 114 50t46 125t-46 125t-114 50q-64 0 -109.5 -50.5t-45.5 -124.5t45.5 -124.5t109.5 -50.5zM150 700h55q0 -85 80 -85t80 85h55q0 -60 -37.5 -97.5t-97.5 -37.5t-97.5 37.5t-37.5 97.5z" />
    <glyph glyph-name="Gdotaccent" unicode="&#x120;" horiz-adv-x="795" 
d="M480 290v70h235v-225q-32 -41 -76 -73q-102 -72 -219 -72q-150 0 -255 105t-105 255t105 255t255 105q117 0 214 -73q42 -32 71 -72l-50 -45q-25 35 -58 60q-75 60 -177 60q-120 0 -202.5 -83.5t-82.5 -206.5t82.5 -206.5t202.5 -83.5q96 0 166 47q32 21 54 48v135h-160z
M365 855q0 19 13 32t32 13t32 -13t13 -32t-13 -32t-32 -13t-32 13t-13 32z" />
    <glyph glyph-name="gdotaccent" unicode="&#x121;" horiz-adv-x="580" 
d="M65 -110l45 45q14 -19 40 -40q54 -40 115 -40q69 0 117 50.5t48 124.5v55q-13 -21 -37 -38q-53 -37 -123 -37q-94 0 -159.5 69.5t-65.5 170.5t65.5 170.5t159.5 69.5q69 0 123 -38q23 -17 37 -37v65h70v-450q0 -101 -68.5 -170.5t-166.5 -69.5q-85 0 -151 50
q-32 25 -49 50zM270 75q68 0 114 50t46 125t-46 125t-114 50q-64 0 -109.5 -50.5t-45.5 -124.5t45.5 -124.5t109.5 -50.5zM240 630q0 19 13 32t32 13t32 -13t13 -32t-13 -32t-32 -13t-32 13t-13 32z" />
    <glyph glyph-name="Gcommaaccent" unicode="&#x122;" horiz-adv-x="795" 
d="M480 290v70h235v-225q-32 -41 -76 -73q-102 -72 -219 -72q-150 0 -255 105t-105 255t105 255t255 105q117 0 214 -73q42 -32 71 -72l-50 -45q-25 35 -58 60q-75 60 -177 60q-120 0 -202.5 -83.5t-82.5 -206.5t82.5 -206.5t202.5 -83.5q96 0 166 47q32 21 54 48v135h-160z
M340 -215l45 135h65l-60 -135h-50z" />
    <glyph glyph-name="gcommaaccent" unicode="&#x123;" horiz-adv-x="580" 
d="M245 565l60 135h50l-45 -135h-65zM65 -110l45 45q14 -19 40 -40q54 -40 115 -40q69 0 117 50.5t48 124.5v55q-13 -21 -37 -38q-53 -37 -123 -37q-94 0 -159.5 69.5t-65.5 170.5t65.5 170.5t159.5 69.5q69 0 123 -38q23 -17 37 -37v65h70v-450q0 -101 -68.5 -170.5
t-166.5 -69.5q-85 0 -151 50q-32 25 -49 50zM270 75q68 0 114 50t46 125t-46 125t-114 50q-64 0 -109.5 -50.5t-45.5 -124.5t45.5 -124.5t109.5 -50.5z" />
    <glyph glyph-name="Hcircumflex" unicode="&#x124;" horiz-adv-x="750" 
d="M105 0v700h75v-310h390v310h75v-700h-75v320h-390v-320h-75zM230 795l110 135h70l110 -135h-65l-80 95l-80 -95h-65z" />
    <glyph glyph-name="hcircumflex" unicode="&#x125;" horiz-adv-x="585" 
d="M85 0v700h70v-290q14 21 38 40q54 40 117 40q87 0 141 -56t54 -149v-285h-70v285q0 63 -36 101.5t-94 38.5q-65 0 -107.5 -44.5t-42.5 -115.5v-265h-70zM150 795l110 135h70l110 -135h-65l-80 95l-80 -95h-65z" />
    <glyph glyph-name="Hbar" unicode="&#x126;" horiz-adv-x="760" 
d="M120 0v490h-100v70h100v140h75v-140h370v140h75v-140h100v-70h-100v-490h-75v290h-370v-290h-75zM195 360h370v130h-370v-130z" />
    <glyph glyph-name="hbar" unicode="&#x127;" horiz-adv-x="595" 
d="M95 0v545h-85v65h85v90h70v-90h140v-65h-140v-165q14 21 38 40q54 40 117 40q87 0 141 -56t54 -149v-255h-70v255q0 63 -36 101.5t-94 38.5q-65 0 -107.5 -44.5t-42.5 -115.5v-235h-70z" />
    <glyph glyph-name="Imacron" unicode="&#x12a;" horiz-adv-x="285" 
d="M105 0v700h75v-700h-75zM0 830v55h290v-55h-290z" />
    <glyph glyph-name="imacron" unicode="&#x12b;" horiz-adv-x="230" 
d="M80 0v480h70v-480h-70zM-30 610v55h290v-55h-290z" />
    <glyph glyph-name="Ibreve" unicode="&#x12c;" horiz-adv-x="285" 
d="M105 0v700h75v-700h-75zM10 930h55q0 -85 80 -85t80 85h55q0 -60 -37.5 -97.5t-97.5 -37.5t-97.5 37.5t-37.5 97.5z" />
    <glyph glyph-name="ibreve" unicode="&#x12d;" horiz-adv-x="230" 
d="M80 0v480h70v-480h-70zM-20 700h55q0 -85 80 -85t80 85h55q0 -60 -37.5 -97.5t-97.5 -37.5t-97.5 37.5t-37.5 97.5z" />
    <glyph glyph-name="Iogonek" unicode="&#x12e;" horiz-adv-x="285" 
d="M210 -140v-50q-3 -2 -10 -4.5t-10 -3.5q-21 -7 -46 -7q-45 0 -69.5 24t-24.5 66q0 44 27 82q13 19 28 33v700h75v-700h-25q-15 -16 -28 -36q-27 -38 -27 -74q0 -45 50 -45q23 0 41 7z" />
    <glyph glyph-name="iogonek" unicode="&#x12f;" horiz-adv-x="230" 
d="M70 640q0 19 13 32t32 13t32 -13t13 -32t-13 -32t-32 -13t-32 13t-13 32zM185 -140v-50q-3 -2 -10 -4.5t-10 -3.5q-21 -7 -46 -7q-45 0 -69.5 24t-24.5 66q0 44 27 82q13 19 28 33v480h70v-480h-20q-15 -16 -28 -36q-27 -38 -27 -74q0 -45 50 -45q23 0 41 7z" />
    <glyph glyph-name="Idot" unicode="&#x130;" horiz-adv-x="285" 
d="M105 0v700h75v-700h-75zM100 855q0 19 13 32t32 13t32 -13t13 -32t-13 -32t-32 -13t-32 13t-13 32z" />
    <glyph glyph-name="dotlessi" unicode="&#x131;" horiz-adv-x="230" 
d="M80 0v480h70v-480h-70z" />
    <glyph glyph-name="uni0132" unicode="&#x132;" horiz-adv-x="705" 
d="M245 60l50 50q13 -15 29 -25q37 -25 86 -25q120 0 120 145v495h75v-495q0 -100 -53.5 -157.5t-141.5 -57.5q-74 0 -124 35q-23 13 -41 35zM105 0v700h75v-700h-75z" />
    <glyph glyph-name="uni0133" unicode="&#x133;" horiz-adv-x="455" 
d="M70 640q0 19 13 32t32 13t32 -13t13 -32t-13 -32t-32 -13t-32 13t-13 32zM80 0v480h70v-480h-70zM295 640q0 19 13 32t32 13t32 -13t13 -32t-13 -32t-32 -13t-32 13t-13 32zM185 -195v65l16 -8q15 -7 39 -7q65 0 65 75v550h70v-550q0 -140 -130 -140q-24 0 -43 7
q-13 5 -17 8z" />
    <glyph glyph-name="Jcircumflex" unicode="&#x134;" horiz-adv-x="495" 
d="M10 70l50 50q12 -16 30 -30q40 -30 90 -30q64 0 102 38.5t38 106.5v495h75v-495q0 -94 -60.5 -154.5t-154.5 -60.5q-68 0 -126 40q-28 19 -44 40zM210 795l110 135h70l110 -135h-65l-80 95l-80 -95h-65z" />
    <glyph glyph-name="jcircumflex" unicode="&#x135;" horiz-adv-x="230" 
d="M-40 -195v65l16 -8q15 -7 39 -7q65 0 65 75v550h70v-550q0 -140 -130 -140q-24 0 -43 7q-13 5 -17 8zM-30 565l110 135h70l110 -135h-65l-80 95l-80 -95h-65z" />
    <glyph glyph-name="Kcommaaccent" unicode="&#x136;" horiz-adv-x="670" 
d="M105 0v700h75v-395l360 395h95l-265 -290l290 -410h-90l-250 355l-140 -150v-205h-75zM280 -215l45 135h65l-60 -135h-50z" />
    <glyph glyph-name="kcommaaccent" unicode="&#x137;" horiz-adv-x="510" 
d="M85 0v700h70v-475l240 255h85l-185 -195l205 -285h-80l-170 235l-95 -100v-135h-70zM205 -215l45 135h65l-60 -135h-50z" />
    <glyph glyph-name="Lacute" unicode="&#x139;" horiz-adv-x="560" 
d="M105 0v700h75v-630h360v-70h-435zM120 795l75 135h75l-95 -135h-55z" />
    <glyph glyph-name="lacute" unicode="&#x13a;" horiz-adv-x="240" 
d="M85 0v700h70v-700h-70zM95 795l75 135h75l-95 -135h-55z" />
    <glyph glyph-name="Lcommaaccent" unicode="&#x13b;" horiz-adv-x="560" 
d="M105 0v700h75v-630h360v-70h-435zM255 -215l45 135h65l-60 -135h-50z" />
    <glyph glyph-name="lcommaaccent" unicode="&#x13c;" horiz-adv-x="240" 
d="M85 0v700h70v-700h-70zM40 -215l45 135h65l-60 -135h-50z" />
    <glyph glyph-name="Lcaron" unicode="&#x13d;" horiz-adv-x="560" 
d="M105 0v700h75v-630h360v-70h-435zM265 565l45 135h65l-60 -135h-50z" />
    <glyph glyph-name="lcaron" unicode="&#x13e;" horiz-adv-x="275" 
d="M85 0v700h70v-700h-70zM215 565l45 135h65l-60 -135h-50z" />
    <glyph glyph-name="Ldot" unicode="&#x13f;" horiz-adv-x="560" 
d="M105 0v700h75v-630h360v-70h-435zM300 370q0 19 13 32t32 13t32 -13t13 -32t-13 -32t-32 -13t-32 13t-13 32z" />
    <glyph glyph-name="ldot" unicode="&#x140;" horiz-adv-x="360" 
d="M85 0v700h70v-700h-70zM235 350q0 19 13 32t32 13t32 -13t13 -32t-13 -32t-32 -13t-32 13t-13 32z" />
    <glyph glyph-name="Lslash" unicode="&#x141;" horiz-adv-x="615" 
d="M160 0v285l-120 -70l-35 60l155 85v340h75v-295l140 85l35 -60l-175 -100v-260h360v-70h-435z" />
    <glyph glyph-name="lslash" unicode="&#x142;" horiz-adv-x="350" 
d="M140 0v310l-125 -75l-30 50l155 95v320h70v-285l125 80l30 -50l-155 -100v-345h-70z" />
    <glyph glyph-name="Nacute" unicode="&#x143;" horiz-adv-x="780" 
d="M105 0v700h65l430 -565v565h75v-700h-65l-430 565v-565h-75zM360 795l75 135h75l-95 -135h-55z" />
    <glyph glyph-name="nacute" unicode="&#x144;" horiz-adv-x="580" 
d="M80 0v480h70v-70q14 21 38 40q54 40 117 40q87 0 141 -56t54 -149v-285h-70v285q0 63 -36 101.5t-94 38.5q-65 0 -107.5 -44.5t-42.5 -115.5v-265h-70zM270 565l75 135h75l-95 -135h-55z" />
    <glyph glyph-name="Ncommaaccent" unicode="&#x145;" horiz-adv-x="780" 
d="M105 0v700h65l430 -565v565h75v-700h-65l-430 565v-565h-75zM330 -215l45 135h65l-60 -135h-50z" />
    <glyph glyph-name="ncommaaccent" unicode="&#x146;" horiz-adv-x="580" 
d="M80 0v480h70v-70q14 21 38 40q54 40 117 40q87 0 141 -56t54 -149v-285h-70v285q0 63 -36 101.5t-94 38.5q-65 0 -107.5 -44.5t-42.5 -115.5v-265h-70zM215 -215l45 135h65l-60 -135h-50z" />
    <glyph glyph-name="Ncaron" unicode="&#x147;" horiz-adv-x="780" 
d="M105 0v700h65l430 -565v565h75v-700h-65l-430 565v-565h-75zM355 795l-110 135h65l80 -95l80 95h65l-110 -135h-70z" />
    <glyph glyph-name="ncaron" unicode="&#x148;" horiz-adv-x="580" 
d="M80 0v480h70v-70q14 21 38 40q54 40 117 40q87 0 141 -56t54 -149v-285h-70v285q0 63 -36 101.5t-94 38.5q-65 0 -107.5 -44.5t-42.5 -115.5v-265h-70zM260 565l-110 135h65l80 -95l80 95h65l-110 -135h-70z" />
    <glyph glyph-name="napostrophe" unicode="&#x149;" horiz-adv-x="580" 
d="M80 0v480h70v-70q14 21 38 40q54 40 117 40q87 0 141 -56t54 -149v-285h-70v285q0 63 -36 101.5t-94 38.5q-65 0 -107.5 -44.5t-42.5 -115.5v-265h-70zM15 545l45 135h65l-60 -135h-50z" />
    <glyph glyph-name="Eng" unicode="&#x14a;" horiz-adv-x="780" 
d="M105 0v700h65l430 -565v565h75v-700q0 -97 -53 -153.5t-137 -56.5q-63 0 -117 30q-24 14 -38 30l50 50q14 -13 28 -20q35 -20 77 -20q55 0 85 35t30 105v15l-420 550v-565h-75z" />
    <glyph glyph-name="eng" unicode="&#x14b;" horiz-adv-x="580" 
d="M80 0v480h70v-70q14 21 38 40q54 40 117 40q87 0 141 -56t54 -149v-355q0 -140 -130 -140q-24 0 -43 7q-13 5 -17 8v65l16 -8q15 -7 39 -7q65 0 65 75v355q0 63 -36 101.5t-94 38.5q-65 0 -107.5 -44.5t-42.5 -115.5v-265h-70z" />
    <glyph glyph-name="Omacron" unicode="&#x14c;" horiz-adv-x="840" 
d="M60 350q0 150 105 255t255 105t255 -105t105 -255t-105 -255t-255 -105t-255 105t-105 255zM420 60q120 0 202.5 83.5t82.5 206.5t-82.5 206.5t-202.5 83.5t-202.5 -83.5t-82.5 -206.5t82.5 -206.5t202.5 -83.5zM275 830v55h290v-55h-290z" />
    <glyph glyph-name="omacron" unicode="&#x14d;" horiz-adv-x="580" 
d="M290 -10q-102 0 -173.5 72.5t-71.5 177.5t71.5 177.5t173.5 72.5t173.5 -72.5t71.5 -177.5t-71.5 -177.5t-173.5 -72.5zM290 55q72 0 123.5 53.5t51.5 131.5t-51.5 131.5t-123.5 53.5t-123.5 -53.5t-51.5 -131.5q0 -77 51.5 -131t123.5 -54zM145 610v55h290v-55h-290z
" />
    <glyph glyph-name="Obreve" unicode="&#x14e;" horiz-adv-x="840" 
d="M60 350q0 150 105 255t255 105t255 -105t105 -255t-105 -255t-255 -105t-255 105t-105 255zM420 60q120 0 202.5 83.5t82.5 206.5t-82.5 206.5t-202.5 83.5t-202.5 -83.5t-82.5 -206.5t82.5 -206.5t202.5 -83.5zM285 930h55q0 -85 80 -85t80 85h55q0 -60 -37.5 -97.5
t-97.5 -37.5t-97.5 37.5t-37.5 97.5z" />
    <glyph glyph-name="obreve" unicode="&#x14f;" horiz-adv-x="580" 
d="M290 -10q-102 0 -173.5 72.5t-71.5 177.5t71.5 177.5t173.5 72.5t173.5 -72.5t71.5 -177.5t-71.5 -177.5t-173.5 -72.5zM290 55q72 0 123.5 53.5t51.5 131.5t-51.5 131.5t-123.5 53.5t-123.5 -53.5t-51.5 -131.5q0 -77 51.5 -131t123.5 -54zM155 700h55q0 -85 80 -85
t80 85h55q0 -60 -37.5 -97.5t-97.5 -37.5t-97.5 37.5t-37.5 97.5z" />
    <glyph glyph-name="Ohungarumlaut" unicode="&#x150;" horiz-adv-x="840" 
d="M60 350q0 150 105 255t255 105t255 -105t105 -255t-105 -255t-255 -105t-255 105t-105 255zM420 60q120 0 202.5 83.5t82.5 206.5t-82.5 206.5t-202.5 83.5t-202.5 -83.5t-82.5 -206.5t82.5 -206.5t202.5 -83.5zM315 795l75 135h75l-96 -135h-54zM470 795l74 135h76
l-95 -135h-55z" />
    <glyph glyph-name="ohungarumlaut" unicode="&#x151;" horiz-adv-x="580" 
d="M290 -10q-102 0 -173.5 72.5t-71.5 177.5t71.5 177.5t173.5 72.5t173.5 -72.5t71.5 -177.5t-71.5 -177.5t-173.5 -72.5zM290 55q72 0 123.5 53.5t51.5 131.5t-51.5 131.5t-123.5 53.5t-123.5 -53.5t-51.5 -131.5q0 -77 51.5 -131t123.5 -54zM180 565l75 135h75l-96 -135
h-54zM335 565l74 135h76l-95 -135h-55z" />
    <glyph glyph-name="OE" unicode="&#x152;" horiz-adv-x="1005" 
d="M590 70h370v-70h-545q-150 0 -252.5 101.5t-102.5 248.5t102.5 248.5t252.5 101.5h535v-70h-360v-230h280v-70h-280v-260zM415 70h100v560h-100q-120 0 -200 -80t-80 -200q0 -121 79.5 -200.5t200.5 -79.5z" />
    <glyph glyph-name="oe" unicode="&#x153;" horiz-adv-x="940" 
d="M830 135l45 -45q-20 -27 -49 -50q-66 -50 -146 -50q-89 0 -153 62q-29 28 -47 63q-18 -34 -49 -63q-66 -62 -151 -62q-95 0 -165 73t-70 177t70 177t165 73q84 0 151 -63q30 -28 49 -62q19 36 46 62q65 63 149 63q92 0 156 -69t64 -176q0 -3 -3 -24l-2 -11h-375
q8 -64 55 -109.5t110 -45.5q62 0 112 40q21 17 38 40zM280 55q65 0 115 54t50 131t-50 131t-115 54t-115 -54t-50 -131t50 -131t115 -54zM515 275h310q-8 68 -49 109t-101 41t-106 -44.5t-54 -105.5z" />
    <glyph glyph-name="Racute" unicode="&#x154;" horiz-adv-x="675" 
d="M105 0v700h280q93 0 154 -60t61 -150q0 -97 -73 -160q-34 -27 -72 -40l165 -290h-85l-155 280h-200v-280h-75zM180 350h205q64 0 102 38t38 102t-38 102t-102 38h-205v-280zM310 795l75 135h75l-95 -135h-55z" />
    <glyph glyph-name="racute" unicode="&#x155;" horiz-adv-x="345" 
d="M80 0v480h70v-65q19 22 39 37q54 38 121 38h20v-70h-30q-62 0 -106 -43t-44 -112v-265h-70zM175 565l75 135h75l-95 -135h-55z" />
    <glyph glyph-name="Rcommaaccent" unicode="&#x156;" horiz-adv-x="675" 
d="M105 0v700h280q93 0 154 -60t61 -150q0 -97 -73 -160q-34 -27 -72 -40l165 -290h-85l-155 280h-200v-280h-75zM180 350h205q64 0 102 38t38 102t-38 102t-102 38h-205v-280zM275 -215l45 135h65l-60 -135h-50z" />
    <glyph glyph-name="rcommaaccent" unicode="&#x157;" horiz-adv-x="345" 
d="M80 0v480h70v-65q19 22 39 37q54 38 121 38h20v-70h-30q-62 0 -106 -43t-44 -112v-265h-70zM40 -215l45 135h65l-60 -135h-50z" />
    <glyph glyph-name="Rcaron" unicode="&#x158;" horiz-adv-x="675" 
d="M105 0v700h280q93 0 154 -60t61 -150q0 -97 -73 -160q-34 -27 -72 -40l165 -290h-85l-155 280h-200v-280h-75zM180 350h205q64 0 102 38t38 102t-38 102t-102 38h-205v-280zM310 795l-110 135h65l80 -95l80 95h65l-110 -135h-70z" />
    <glyph glyph-name="rcaron" unicode="&#x159;" horiz-adv-x="345" 
d="M80 0v480h70v-65q19 22 39 37q54 38 121 38h20v-70h-30q-62 0 -106 -43t-44 -112v-265h-70zM170 565l-110 135h65l80 -95l80 95h65l-110 -135h-70z" />
    <glyph glyph-name="Sacute" unicode="&#x15a;" horiz-adv-x="565" 
d="M45 95l45 51q19 -25 46 -43q58 -43 144 -43q77 0 118.5 35.5t41.5 94.5q0 36 -21 61t-54.5 39.5t-74 26t-81 26t-74 34.5t-54.5 56t-21 87q0 79 62 134.5t163 55.5q85 0 153 -45q29 -19 52 -45l-50 -50q-14 17 -39 35q-56 35 -116 35q-69 0 -109.5 -35t-40.5 -85
q0 -36 21 -61.5t54.5 -39.5t74 -25.5t81 -26t74 -34.5t54.5 -56t21 -87q0 -89 -62.5 -144.5t-172.5 -55.5q-103 0 -178 52q-34 22 -57 53zM250 795l75 135h75l-95 -135h-55z" />
    <glyph glyph-name="sacute" unicode="&#x15b;" horiz-adv-x="430" 
d="M35 75l50 50q14 -20 32 -35q39 -35 93 -35q51 0 78 22.5t27 57.5q0 30 -27 48.5t-65 29.5t-76 24.5t-65 42.5t-27 75q0 54 45 94.5t115 40.5q59 0 115 -33q24 -14 40 -32l-50 -50q-12 15 -26 25q-40 25 -79 25q-40 0 -65 -21t-25 -49q0 -29 27 -46.5t65 -28t76 -24
t65 -44t27 -77.5q0 -62 -47.5 -103.5t-127.5 -41.5q-75 0 -133 42q-26 18 -42 43zM185 565l75 135h75l-95 -135h-55z" />
    <glyph glyph-name="Scircumflex" unicode="&#x15c;" horiz-adv-x="565" 
d="M45 95l45 51q19 -25 46 -43q58 -43 144 -43q77 0 118.5 35.5t41.5 94.5q0 36 -21 61t-54.5 39.5t-74 26t-81 26t-74 34.5t-54.5 56t-21 87q0 79 62 134.5t163 55.5q85 0 153 -45q29 -19 52 -45l-50 -50q-14 17 -39 35q-56 35 -116 35q-69 0 -109.5 -35t-40.5 -85
q0 -36 21 -61.5t54.5 -39.5t74 -25.5t81 -26t74 -34.5t54.5 -56t21 -87q0 -89 -62.5 -144.5t-172.5 -55.5q-103 0 -178 52q-34 22 -57 53zM135 795l110 135h70l110 -135h-65l-80 95l-80 -95h-65z" />
    <glyph glyph-name="scircumflex" unicode="&#x15d;" horiz-adv-x="430" 
d="M35 75l50 50q14 -20 32 -35q39 -35 93 -35q51 0 78 22.5t27 57.5q0 30 -27 48.5t-65 29.5t-76 24.5t-65 42.5t-27 75q0 54 45 94.5t115 40.5q59 0 115 -33q24 -14 40 -32l-50 -50q-12 15 -26 25q-40 25 -79 25q-40 0 -65 -21t-25 -49q0 -29 27 -46.5t65 -28t76 -24
t65 -44t27 -77.5q0 -62 -47.5 -103.5t-127.5 -41.5q-75 0 -133 42q-26 18 -42 43zM70 565l110 135h70l110 -135h-65l-80 95l-80 -95h-65z" />
    <glyph glyph-name="Scedilla" unicode="&#x15e;" horiz-adv-x="565" 
d="M185 -173l20 33q10 -10 17 -13q19 -12 48 -12q22 0 36 12t14 28q0 15 -11 25t-29 10q-14 0 -22 -5q-7 -5 -8 -5l-25 25l31 66q-90 6 -160 56q-32 23 -51 48l45 51q19 -25 46 -43q58 -43 144 -43q77 0 118.5 35.5t41.5 94.5q0 36 -21 61t-54.5 39.5t-74 26t-81 26
t-74 34.5t-54.5 56t-21 87q0 79 62 134.5t163 55.5q85 0 153 -45q29 -19 52 -45l-50 -50q-14 17 -39 35q-56 35 -116 35q-69 0 -109.5 -35t-40.5 -85q0 -36 21 -61.5t54.5 -39.5t74 -25.5t81 -26t74 -34.5t54.5 -56t21 -87q0 -84 -56.5 -138.5t-157.5 -60.5l-21 -46h5
q38 0 59 -19.5t21 -52.5t-25.5 -55.5t-69.5 -22.5q-31 0 -61 16q-15 8 -24 16z" />
    <glyph glyph-name="scedilla" unicode="&#x15f;" horiz-adv-x="430" 
d="M115 -173l20 33q10 -10 17 -13q19 -12 48 -12q22 0 36 12t14 28q0 15 -11 25t-29 10q-14 0 -22 -5q-7 -5 -8 -5l-25 25l31 66q-64 6 -114 46q-20 16 -37 38l50 50q14 -20 32 -35q39 -35 93 -35q51 0 78 22.5t27 57.5q0 30 -27 48.5t-65 29.5t-76 24.5t-65 42.5t-27 75
q0 54 45 94.5t115 40.5q59 0 115 -33q24 -14 40 -32l-50 -50q-12 15 -26 25q-40 25 -79 25q-40 0 -65 -21t-25 -49q0 -29 27 -46.5t65 -28t76 -24t65 -44t27 -77.5q0 -58 -41.5 -98t-112.5 -46l-21 -46h5q38 0 59 -19.5t21 -52.5t-25.5 -55.5t-69.5 -22.5q-31 0 -61 16
q-15 8 -24 16z" />
    <glyph glyph-name="Scaron" unicode="&#x160;" horiz-adv-x="565" 
d="M45 95l45 51q19 -25 46 -43q58 -43 144 -43q77 0 118.5 35.5t41.5 94.5q0 36 -21 61t-54.5 39.5t-74 26t-81 26t-74 34.5t-54.5 56t-21 87q0 79 62 134.5t163 55.5q85 0 153 -45q29 -19 52 -45l-50 -50q-14 17 -39 35q-56 35 -116 35q-69 0 -109.5 -35t-40.5 -85
q0 -36 21 -61.5t54.5 -39.5t74 -25.5t81 -26t74 -34.5t54.5 -56t21 -87q0 -89 -62.5 -144.5t-172.5 -55.5q-103 0 -178 52q-34 22 -57 53zM245 795l-110 135h65l80 -95l80 95h65l-110 -135h-70z" />
    <glyph glyph-name="scaron" unicode="&#x161;" horiz-adv-x="430" 
d="M35 75l50 50q14 -20 32 -35q39 -35 93 -35q51 0 78 22.5t27 57.5q0 30 -27 48.5t-65 29.5t-76 24.5t-65 42.5t-27 75q0 54 45 94.5t115 40.5q59 0 115 -33q24 -14 40 -32l-50 -50q-12 15 -26 25q-40 25 -79 25q-40 0 -65 -21t-25 -49q0 -29 27 -46.5t65 -28t76 -24
t65 -44t27 -77.5q0 -62 -47.5 -103.5t-127.5 -41.5q-75 0 -133 42q-26 18 -42 43zM180 565l-110 135h65l80 -95l80 95h65l-110 -135h-70z" />
    <glyph glyph-name="uni0162" unicode="&#x162;" horiz-adv-x="555" 
d="M194 -173l20 33q10 -10 17 -13q19 -12 48 -12q22 0 36 12t14 28q0 15 -11 25t-29 10q-14 0 -22 -5q-7 -5 -8 -5l-25 25l36 75h-30v630h-220v70h515v-70h-220v-630l-26 -55h5q38 0 59 -19.5t21 -52.5t-25.5 -55.5t-69.5 -22.5q-31 0 -61 16q-15 8 -24 16z" />
    <glyph glyph-name="uni0163" unicode="&#x163;" horiz-adv-x="360" 
d="M135 -173l20 33q10 -10 17 -13q19 -12 48 -12q22 0 36 12t14 28q0 15 -11 25t-29 10q-14 0 -22 -5q-7 -5 -8 -5l-25 25l33 70q-88 25 -88 135v285h-90v65h55q40 0 40 50v110h65v-160h105v-65h-105v-285q0 -75 65 -75q25 0 46 7q1 1 8.5 3.5t10.5 4.5v-65q-3 -2 -10 -4.5
t-10 -3.5q-23 -7 -50 -7l-20 -45h5q38 0 59 -19.5t21 -52.5t-25.5 -55.5t-69.5 -22.5q-31 0 -61 16q-15 8 -24 16z" />
    <glyph glyph-name="Tcaron" unicode="&#x164;" horiz-adv-x="555" 
d="M240 0v630h-220v70h515v-70h-220v-630h-75zM245 795l-110 135h65l80 -95l80 95h65l-110 -135h-70z" />
    <glyph glyph-name="tcaron" unicode="&#x165;" horiz-adv-x="365" 
d="M120 130v285h-90v65h55q40 0 40 50v110h65v-160h105v-65h-105v-285q0 -75 65 -75q25 0 46 7q1 1 8.5 3.5t10.5 4.5v-65q-3 -2 -10 -4.5t-10 -3.5q-21 -7 -48 -7q-63 0 -97.5 36t-34.5 104zM305 565l45 135h65l-60 -135h-50z" />
    <glyph glyph-name="Tbar" unicode="&#x166;" horiz-adv-x="555" 
d="M240 0v370h-155v70h155v190h-220v70h515v-70h-220v-190h155v-70h-155v-370h-75z" />
    <glyph glyph-name="tbar" unicode="&#x167;" horiz-adv-x="370" 
d="M125 130v95h-90v65h90v125h-90v65h55q40 0 40 50v110h65v-160h105v-65h-105v-125h105v-65h-105v-95q0 -75 65 -75q25 0 46 7q1 1 8.5 3.5t10.5 4.5v-65q-3 -2 -10 -4.5t-10 -3.5q-21 -7 -48 -7q-63 0 -97.5 36t-34.5 104z" />
    <glyph glyph-name="Umacron" unicode="&#x16a;" horiz-adv-x="760" 
d="M95 275v425h75v-425q0 -93 60 -154t150 -61t150 61t60 154v425h75v-425q0 -120 -82.5 -202.5t-202.5 -82.5t-202.5 82.5t-82.5 202.5zM235 830v55h290v-55h-290z" />
    <glyph glyph-name="umacron" unicode="&#x16b;" horiz-adv-x="585" 
d="M80 200v280h70v-280q0 -63 39 -104t96 -41q61 0 103 44.5t42 115.5v265h70v-480h-70v65q-15 -21 -38 -38q-53 -37 -117 -37q-84 0 -139.5 58.5t-55.5 151.5zM145 610v55h290v-55h-290z" />
    <glyph glyph-name="Ubreve" unicode="&#x16c;" horiz-adv-x="760" 
d="M95 275v425h75v-425q0 -93 60 -154t150 -61t150 61t60 154v425h75v-425q0 -120 -82.5 -202.5t-202.5 -82.5t-202.5 82.5t-82.5 202.5zM245 930h55q0 -85 80 -85t80 85h55q0 -60 -37.5 -97.5t-97.5 -37.5t-97.5 37.5t-37.5 97.5z" />
    <glyph glyph-name="ubreve" unicode="&#x16d;" horiz-adv-x="585" 
d="M80 200v280h70v-280q0 -63 39 -104t96 -41q61 0 103 44.5t42 115.5v265h70v-480h-70v65q-15 -21 -38 -38q-53 -37 -117 -37q-84 0 -139.5 58.5t-55.5 151.5zM155 700h55q0 -85 80 -85t80 85h55q0 -60 -37.5 -97.5t-97.5 -37.5t-97.5 37.5t-37.5 97.5z" />
    <glyph glyph-name="Uring" unicode="&#x16e;" horiz-adv-x="760" 
d="M95 275v425h75v-425q0 -93 60 -154t150 -61t150 61t60 154v425h75v-425q0 -120 -82.5 -202.5t-202.5 -82.5t-202.5 82.5t-82.5 202.5zM285 860q0 38 28 64t67 26t67 -26t28 -64t-28 -64t-67 -26t-67 26t-28 64zM380 815q19 0 32 13t13 32t-13 32t-32 13t-32 -13t-13 -32
t13 -32t32 -13z" />
    <glyph glyph-name="uring" unicode="&#x16f;" horiz-adv-x="585" 
d="M80 200v280h70v-280q0 -63 39 -104t96 -41q61 0 103 44.5t42 115.5v265h70v-480h-70v65q-15 -21 -38 -38q-53 -37 -117 -37q-84 0 -139.5 58.5t-55.5 151.5zM195 640q0 38 28 64t67 26t67 -26t28 -64t-28 -64t-67 -26t-67 26t-28 64zM290 595q19 0 32 13t13 32t-13 32
t-32 13t-32 -13t-13 -32t13 -32t32 -13z" />
    <glyph glyph-name="Uhungarumlaut" unicode="&#x170;" horiz-adv-x="760" 
d="M95 275v425h75v-425q0 -93 60 -154t150 -61t150 61t60 154v425h75v-425q0 -120 -82.5 -202.5t-202.5 -82.5t-202.5 82.5t-82.5 202.5zM265 795l75 135h75l-96 -135h-54zM420 795l74 135h76l-95 -135h-55z" />
    <glyph glyph-name="uhungarumlaut" unicode="&#x171;" horiz-adv-x="585" 
d="M80 200v280h70v-280q0 -63 39 -104t96 -41q61 0 103 44.5t42 115.5v265h70v-480h-70v65q-15 -21 -38 -38q-53 -37 -117 -37q-84 0 -139.5 58.5t-55.5 151.5zM180 565l75 135h75l-96 -135h-54zM335 565l74 135h76l-95 -135h-55z" />
    <glyph glyph-name="Uogonek" unicode="&#x172;" horiz-adv-x="760" 
d="M480 -140v-50q-3 -2 -10 -4.5t-10 -3.5q-21 -7 -46 -7q-45 0 -69.5 24t-24.5 66q0 32 14.5 60.5t30.5 44.5q-115 6 -192.5 87.5t-77.5 197.5v425h75v-425q0 -93 60 -154t150 -61t150 61t60 154v425h75v-425q0 -109 -71 -189.5t-176 -92.5q-48 -58 -48 -103t50 -45
q23 0 41 7z" />
    <glyph glyph-name="uogonek" unicode="&#x173;" horiz-adv-x="585" 
d="M80 200v280h70v-280q0 -63 39 -104t96 -41q61 0 103 44.5t42 115.5v265h70v-480h-20q-15 -16 -28 -36q-27 -38 -27 -74q0 -45 50 -45q23 0 41 7l19 8v-50q-3 -2 -10 -4.5t-10 -3.5q-21 -7 -46 -7q-45 0 -69.5 24t-24.5 66q0 44 27 82q13 19 28 33v65q-15 -21 -38 -38
q-53 -37 -117 -37q-84 0 -139.5 58.5t-55.5 151.5z" />
    <glyph glyph-name="Wcircumflex" unicode="&#x174;" horiz-adv-x="1040" 
d="M260 0l-230 700h80l185 -585l190 585h70l190 -585l185 585h80l-230 -700h-75l-185 585l-185 -585h-75zM375 795l110 135h70l110 -135h-65l-80 95l-80 -95h-65z" />
    <glyph glyph-name="wcircumflex" unicode="&#x175;" horiz-adv-x="730" 
d="M180 0l-165 480h75l125 -370l120 370h60l120 -370l125 370h75l-165 -480h-65l-120 365l-120 -365h-65zM220 565l110 135h70l110 -135h-65l-80 95l-80 -95h-65z" />
    <glyph glyph-name="Ycircumflex" unicode="&#x176;" horiz-adv-x="635" 
d="M280 0v245l-260 455h85l210 -375h5l210 375h85l-260 -455v-245h-75zM175 795l110 135h70l110 -135h-65l-80 95l-80 -95h-65z" />
    <glyph glyph-name="ycircumflex" unicode="&#x177;" horiz-adv-x="490" 
d="M45 -200v65q9 -4 16 -5q17 -5 34 -5q62 0 90 75l25 70l-195 480h75l155 -390l155 390h75l-220 -550q-30 -76 -64.5 -108t-85.5 -32q-23 0 -43 5q-7 1 -17 5zM100 565l110 135h70l110 -135h-65l-80 95l-80 -95h-65z" />
    <glyph glyph-name="Ydieresis" unicode="&#x178;" horiz-adv-x="635" 
d="M280 0v245l-260 455h85l210 -375h5l210 375h85l-260 -455v-245h-75zM180 855q0 19 13 32t32 13t32 -13t13 -32t-13 -32t-32 -13t-32 13t-13 32zM370 855q0 19 13 32t32 13t32 -13t13 -32t-13 -32t-32 -13t-32 13t-13 32z" />
    <glyph glyph-name="Zacute" unicode="&#x179;" 
d="M45 0v70l410 560h-395v70h485v-70l-410 -560h420v-70h-510zM270 795l75 135h75l-95 -135h-55z" />
    <glyph glyph-name="zacute" unicode="&#x17a;" horiz-adv-x="465" 
d="M40 0v65l290 350h-280v65h365v-65l-290 -350h300v-65h-385zM205 565l75 135h75l-95 -135h-55z" />
    <glyph glyph-name="Zdotaccent" unicode="&#x17b;" 
d="M45 0v70l410 560h-395v70h485v-70l-410 -560h420v-70h-510zM255 855q0 19 13 32t32 13t32 -13t13 -32t-13 -32t-32 -13t-32 13t-13 32z" />
    <glyph glyph-name="zdotaccent" unicode="&#x17c;" horiz-adv-x="465" 
d="M40 0v65l290 350h-280v65h365v-65l-290 -350h300v-65h-385zM185 630q0 19 13 32t32 13t32 -13t13 -32t-13 -32t-32 -13t-32 13t-13 32z" />
    <glyph glyph-name="Zcaron" unicode="&#x17d;" 
d="M45 0v70l410 560h-395v70h485v-70l-410 -560h420v-70h-510zM265 795l-110 135h65l80 -95l80 95h65l-110 -135h-70z" />
    <glyph glyph-name="zcaron" unicode="&#x17e;" horiz-adv-x="465" 
d="M40 0v65l290 350h-280v65h365v-65l-290 -350h300v-65h-385zM195 565l-110 135h65l80 -95l80 95h65l-110 -135h-70z" />
    <glyph glyph-name="uni018F" unicode="&#x18f;" horiz-adv-x="785" 
d="M60 350h590q0 130 -76 210t-194 80q-97 0 -171 -50q-34 -24 -54 -50l-50 45q31 37 68 62q96 63 207 63q148 0 246.5 -101.5t98.5 -258.5q0 -159 -94.5 -259.5t-235.5 -100.5q-144 0 -239.5 100.5t-95.5 259.5zM644 280h-503q18 -103 86.5 -161.5t167.5 -58.5
q95 0 163 58.5t86 161.5z" />
    <glyph glyph-name="florin" unicode="&#x192;" horiz-adv-x="350" 
d="M-80 -200v65q4 -3 17 -8q19 -7 43 -7q66 0 80 75l75 410h-80v65h90l35 170q14 72 50 106t100 34q21 0 43 -8l17 -7v-65l-17 7q-22 8 -43 8q-65 0 -80 -75l-35 -170h115v-65h-125l-75 -410q-26 -140 -150 -140q-24 0 -43 7q-13 6 -17 8z" />
    <glyph glyph-name="Aringacute" unicode="&#x1fa;" horiz-adv-x="690" 
d="M325 855l75 135h75l-95 -135h-55zM20 0l279 670q-22 11 -35.5 31.5t-13.5 43.5q0 39 26.5 64.5t68.5 25.5t68.5 -25.5t26.5 -64.5q0 -23 -13.5 -43.5t-35.5 -31.5l279 -670h-80l-80 195h-330l-80 -195h-80zM210 265h270l-135 335zM300 745q0 -19 13 -32t32 -13t32 13
t13 32t-13 32t-32 13t-32 -13t-13 -32z" />
    <glyph glyph-name="aringacute" unicode="&#x1fb;" horiz-adv-x="520" 
d="M170 600q0 38 27.5 64t67.5 26t67.5 -26t27.5 -64t-27.5 -64t-67.5 -26t-67.5 26t-27.5 64zM235 710l75 125h75l-95 -125h-55zM220 600q0 -19 13 -32t32 -13t32 13t13 32t-13 32t-32 13t-32 -13t-13 -32zM370 0v65q-15 -21 -38 -38q-53 -37 -117 -37q-73 0 -121.5 42.5
t-48.5 97.5q0 122 140 145l185 30q0 53 -33.5 86.5t-86.5 33.5q-52 0 -99 -35q-22 -19 -36 -35l-45 45q19 25 47 45q61 45 133 45q82 0 136 -53t54 -132v-305h-70zM370 215v30l-165 -30q-90 -16 -90 -85q0 -32 26.5 -53.5t73.5 -21.5q69 0 112 44t43 116z" />
    <glyph glyph-name="AEacute" unicode="&#x1fc;" horiz-adv-x="950" 
d="M-30 0l390 700h535v-70h-360v-230h280v-70h-280v-260h370v-70h-445v205h-295l-115 -205h-80zM200 275h260v355h-60zM535 795l75 135h75l-95 -135h-55z" />
    <glyph glyph-name="aeacute" unicode="&#x1fd;" horiz-adv-x="870" 
d="M125 355l-45 45q17 25 44 45q57 45 130 45q74 0 128 -50q25 -25 38 -50q17 25 47 50q62 50 138 50q92 0 156 -69t64 -176l-3 -21l-2 -9h-375q4 -64 53.5 -112t113.5 -48q62 0 112 40q21 17 38 40l46 -45q-19 -25 -50 -50q-66 -50 -146 -50q-88 0 -152 60q-31 26 -50 60
q-17 -35 -43 -60q-60 -60 -152 -60q-76 0 -123 41t-47 99q0 61 47.5 105.5t117.5 44.5h165v15q0 58 -33.5 94t-86.5 36q-50 0 -97 -35q-21 -18 -33 -35zM445 280h315q-11 65 -53.5 105t-101.5 40t-105 -43.5t-55 -101.5zM375 215h-165q-44 0 -69.5 -23t-25.5 -62
q0 -32 26.5 -53.5t73.5 -21.5q70 0 115 47t45 113zM410 565l75 135h75l-95 -135h-55z" />
    <glyph glyph-name="Oslashacute" unicode="&#x1fe;" horiz-adv-x="840" 
d="M50 30l90 90q-20 25 -40 62q-40 80 -40 168q0 150 105 255t255 105q87 0 167 -40q36 -19 63 -40l90 90l50 -50l-90 -90q21 -27 40 -63q40 -80 40 -167q0 -150 -105 -255t-255 -105q-88 0 -168 40q-37 20 -62 40l-90 -90zM190 170l410 410q-24 17 -49 30q-62 30 -131 30
q-120 0 -202.5 -83.5t-82.5 -206.5q0 -75 27 -131q12 -27 28 -49zM650 530l-410 -410q24 -17 49 -30q62 -30 131 -30q120 0 202.5 83.5t82.5 206.5q0 73 -28 131q-11 25 -27 49zM395 795l75 135h75l-95 -135h-55z" />
    <glyph glyph-name="oslashacute" unicode="&#x1ff;" horiz-adv-x="580" 
d="M35 20l65 65q-14 14 -28 40q-27 49 -27 115q0 105 71.5 177.5t173.5 72.5q54 0 106 -25q20 -9 39 -25l65 65l45 -45l-65 -65q14 -15 27 -40q28 -50 28 -115q0 -105 -71.5 -177.5t-173.5 -72.5q-58 0 -106 25q-20 9 -39 25l-65 -65zM145 135l245 255q-18 12 -28 17
q-38 18 -72 18q-72 0 -123.5 -53.5t-51.5 -131.5q0 -41 15 -77q6 -16 15 -28zM435 345l-245 -255q10 -10 27 -18q32 -17 73 -17q72 0 123.5 53.5t51.5 131.5q0 36 -15 77q-7 15 -15 28zM265 565l75 135h75l-95 -135h-55z" />
    <glyph glyph-name="Scommaaccent" unicode="&#x218;" horiz-adv-x="565" 
d="M45 95l45 51q19 -25 46 -43q58 -43 144 -43q77 0 118.5 35.5t41.5 94.5q0 36 -21 61t-54.5 39.5t-74 26t-81 26t-74 34.5t-54.5 56t-21 87q0 79 62 134.5t163 55.5q85 0 153 -45q29 -19 52 -45l-50 -50q-14 17 -39 35q-56 35 -116 35q-69 0 -109.5 -35t-40.5 -85
q0 -36 21 -61.5t54.5 -39.5t74 -25.5t81 -26t74 -34.5t54.5 -56t21 -87q0 -89 -62.5 -144.5t-172.5 -55.5q-103 0 -178 52q-34 22 -57 53zM210 -215l45 135h65l-60 -135h-50z" />
    <glyph glyph-name="scommaaccent" unicode="&#x219;" horiz-adv-x="430" 
d="M35 75l50 50q14 -20 32 -35q39 -35 93 -35q51 0 78 22.5t27 57.5q0 30 -27 48.5t-65 29.5t-76 24.5t-65 42.5t-27 75q0 54 45 94.5t115 40.5q59 0 115 -33q24 -14 40 -32l-50 -50q-12 15 -26 25q-40 25 -79 25q-40 0 -65 -21t-25 -49q0 -29 27 -46.5t65 -28t76 -24
t65 -44t27 -77.5q0 -62 -47.5 -103.5t-127.5 -41.5q-75 0 -133 42q-26 18 -42 43zM135 -215l45 135h65l-60 -135h-50z" />
    <glyph glyph-name="uni021A" unicode="&#x21a;" horiz-adv-x="555" 
d="M240 0v630h-220v70h515v-70h-220v-630h-75zM200 -215l45 135h65l-60 -135h-50z" />
    <glyph glyph-name="uni021B" unicode="&#x21b;" horiz-adv-x="360" 
d="M120 130v285h-90v65h55q40 0 40 50v110h65v-160h105v-65h-105v-285q0 -75 65 -75q25 0 46 7q1 1 8.5 3.5t10.5 4.5v-65q-3 -2 -10 -4.5t-10 -3.5q-21 -7 -48 -7q-63 0 -97.5 36t-34.5 104zM145 -215l45 135h65l-60 -135h-50z" />
    <glyph glyph-name="uni0232" unicode="&#x232;" horiz-adv-x="635" 
d="M280 0v245l-260 455h85l210 -375h5l210 375h85l-260 -455v-245h-75zM175 830v55h290v-55h-290z" />
    <glyph glyph-name="uni0233" unicode="&#x233;" horiz-adv-x="490" 
d="M45 -200v65q9 -4 16 -5q17 -5 34 -5q62 0 90 75l25 70l-195 480h75l155 -390l155 390h75l-220 -550q-30 -76 -64.5 -108t-85.5 -32q-23 0 -43 5q-7 1 -17 5zM100 610v55h290v-55h-290z" />
    <glyph glyph-name="uni0244" unicode="&#x244;" horiz-adv-x="770" 
d="M10 375v70h100v255h75v-255h400v255h75v-255h100v-70h-100v-100q0 -123 -79 -204t-196 -81t-196 81t-79 204v100h-100zM185 375v-100q0 -96 56.5 -155.5t143.5 -59.5t143.5 59.5t56.5 155.5v100h-400z" />
    <glyph glyph-name="uni0259" unicode="&#x259;" horiz-adv-x="555" 
d="M45 240v16l395 -1q-4 69 -53.5 119.5t-116.5 50.5q-63 0 -113 -38q-20 -14 -37 -37l-50 40q19 26 51 50q70 50 149 50q99 0 169.5 -73t70.5 -177q0 -103 -69 -176.5t-161 -73.5q-103 0 -169 69.5t-66 180.5zM435 195h-315q8 -64 52 -102t108 -38q57 0 102 40t53 100z" />
    <glyph glyph-name="uni0289" unicode="&#x289;" 
d="M20 250v65h75v165h70v-165h270v165h70v-165h75v-65h-75v-250h-70v65q-19 -24 -38 -38q-49 -37 -112 -37q-84 0 -137 56.5t-53 153.5v50h-75zM165 250v-50q0 -67 36 -106t94 -39q61 0 100.5 43.5t39.5 116.5v35h-270z" />
    <glyph glyph-name="uni02BC" unicode="&#x2bc;" horiz-adv-x="170" 
d="M30 565l45 135h65l-60 -135h-50z" />
    <glyph glyph-name="circumflex" unicode="&#x2c6;" horiz-adv-x="350" 
d="M30 565l110 135h70l110 -135h-65l-80 95l-80 -95h-65z" />
    <glyph glyph-name="caron" unicode="&#x2c7;" horiz-adv-x="350" 
d="M140 565l-110 135h65l80 -95l80 95h65l-110 -135h-70z" />
    <glyph glyph-name="breve" unicode="&#x2d8;" horiz-adv-x="330" 
d="M30 700h55q0 -85 80 -85t80 85h55q0 -60 -37.5 -97.5t-97.5 -37.5t-97.5 37.5t-37.5 97.5z" />
    <glyph glyph-name="dotaccent" unicode="&#x2d9;" horiz-adv-x="150" 
d="M30 640q0 19 13 32t32 13t32 -13t13 -32t-13 -32t-32 -13t-32 13t-13 32z" />
    <glyph glyph-name="ring" unicode="&#x2da;" horiz-adv-x="250" 
d="M30 600q0 38 28 64t67 26t67 -26t28 -64t-28 -64t-67 -26t-67 26t-28 64zM125 555q19 0 32 13t13 32t-13 32t-32 13t-32 -13t-13 -32t13 -32t32 -13z" />
    <glyph glyph-name="ogonek" unicode="&#x2db;" horiz-adv-x="220" 
d="M190 -140v-50q-3 -2 -10 -4.5t-10 -3.5q-21 -7 -46 -7q-45 0 -69.5 24t-24.5 66q0 44 27 82q13 19 28 33h50q-15 -16 -28 -36q-27 -38 -27 -74q0 -45 50 -45q23 0 41 7z" />
    <glyph glyph-name="tilde" unicode="&#x2dc;" horiz-adv-x="370" 
d="M80 575h-50q0 58 25 89t65 31q30 0 53 -16.5t41 -32.5t36 -16q16 0 28 16.5t12 48.5h50q0 -58 -25 -89t-65 -31q-30 0 -53 16.5t-41 32.5t-36 16q-16 0 -28 -16.5t-12 -48.5z" />
    <glyph glyph-name="hungarumlaut" unicode="&#x2dd;" horiz-adv-x="365" 
d="M30 565l75 135h75l-96 -135h-54zM185 565l74 135h76l-95 -135h-55z" />
    <glyph glyph-name="acutecomb" unicode="&#x301;" horiz-adv-x="0" 
d="M-400 730l75 135h75l-95 -135h-55z" />
    <glyph glyph-name="uni0302" unicode="&#x302;" horiz-adv-x="0" 
d="M-520 730l110 135h70l110 -135h-65l-80 95l-80 -95h-65z" />
    <glyph glyph-name="uni0304" unicode="&#x304;" horiz-adv-x="0" 
d="M-515 770v55h290v-55h-290z" />
    <glyph glyph-name="uni0306" unicode="&#x306;" horiz-adv-x="0" 
d="M-505 855h55q0 -85 80 -85t80 85h55q0 -60 -37.5 -97.5t-97.5 -37.5t-97.5 37.5t-37.5 97.5z" />
    <glyph glyph-name="uni0307" unicode="&#x307;" horiz-adv-x="0" 
d="M-415 795q0 19 13 32t32 13t32 -13t13 -32t-13 -32t-32 -13t-32 13t-13 32z" />
    <glyph glyph-name="uni0308" unicode="&#x308;" horiz-adv-x="0" 
d="M-515 795q0 19 13 32t32 13t32 -13t13 -32t-13 -32t-32 -13t-32 13t-13 32zM-325 795q0 19 13 32t32 13t32 -13t13 -32t-13 -32t-32 -13t-32 13t-13 32z" />
    <glyph glyph-name="uni030A" unicode="&#x30a;" horiz-adv-x="0" 
d="M-465 825q0 38 28 64t67 26t67 -26t28 -64t-28 -64t-67 -26t-67 26t-28 64zM-370 780q19 0 32 13t13 32t-13 32t-32 13t-32 -13t-13 -32t13 -32t32 -13z" />
    <glyph glyph-name="uni030C" unicode="&#x30c;" horiz-adv-x="0" 
d="M-401 730l-110 135h65l80 -95l80 95h65l-110 -135h-70z" />
    <glyph glyph-name="uni0326" unicode="&#x326;" horiz-adv-x="170" 
d="M30 -215l45 135h65l-60 -135h-50z" />
    <glyph glyph-name="Alphatonos" unicode="&#x386;" horiz-adv-x="690" 
d="M80 565l75 135h75l-95 -135h-55zM20 0l290 700h70l290 -700h-80l-80 195h-330l-80 -195h-80zM210 265h270l-135 330z" />
    <glyph glyph-name="Epsilontonos" unicode="&#x388;" horiz-adv-x="640" 
d="M-65 565l75 135h75l-95 -135h-55zM105 0v700h480v-70h-405v-230h325v-70h-325v-260h415v-70h-490z" />
    <glyph glyph-name="Etatonos" unicode="&#x389;" horiz-adv-x="750" 
d="M-65 565l75 135h75l-95 -135h-55zM105 0v700h75v-310h390v310h75v-700h-75v320h-390v-320h-75z" />
    <glyph glyph-name="Iotatonos" unicode="&#x38a;" horiz-adv-x="285" 
d="M-65 565l75 135h75l-95 -135h-55zM105 0v700h75v-700h-75z" />
    <glyph glyph-name="Omicrontonos" unicode="&#x38c;" horiz-adv-x="840" 
d="M-20 565l75 135h75l-95 -135h-55zM60 350q0 150 105 255t255 105t255 -105t105 -255t-105 -255t-255 -105t-255 105t-105 255zM420 60q120 0 202.5 83.5t82.5 206.5t-82.5 206.5t-202.5 83.5t-202.5 -83.5t-82.5 -206.5t82.5 -206.5t202.5 -83.5z" />
    <glyph glyph-name="Upsilontonos" unicode="&#x38e;" horiz-adv-x="675" 
d="M-100 565l75 135h75l-95 -135h-55zM320 0v245l-260 455h85l210 -375h5l210 375h85l-260 -455v-245h-75z" />
    <glyph glyph-name="Omegatonos" unicode="&#x38f;" horiz-adv-x="870" 
d="M105 0v70h125q-70 41 -112.5 118.5t-42.5 161.5q0 150 105 255t255 105t255 -105t105 -255q0 -84 -42.5 -161.5t-112.5 -118.5h125v-70h-250v70q88 27 146.5 104t58.5 176q0 123 -82.5 206.5t-202.5 83.5t-202.5 -83.5t-82.5 -206.5q0 -99 58.5 -176t146.5 -104v-70h-250
zM-5 565l75 135h75l-95 -135h-55z" />
    <glyph glyph-name="iotadieresistonos" unicode="&#x390;" horiz-adv-x="295" 
d="M-25 630q0 19 13 32t32 13t32 -13t13 -32t-13 -32t-32 -13t-32 13t-13 32zM165 630q0 19 13 32t32 13t32 -13t13 -32t-13 -32t-32 -13t-32 13t-13 32zM44 565l75 135h75l-95 -135h-55zM80 130v350h70v-350q0 -75 70 -75q20 0 39 7l16 8v-65l-5 -2.5t-7 -3t-7 -2.5
q-21 -7 -46 -7q-61 0 -95.5 36.5t-34.5 103.5z" />
    <glyph glyph-name="Alpha" unicode="&#x391;" horiz-adv-x="690" 
d="M20 0l290 700h70l290 -700h-80l-80 195h-330l-80 -195h-80zM210 265h270l-135 330z" />
    <glyph glyph-name="Beta" unicode="&#x392;" horiz-adv-x="665" 
d="M105 0v700h270q85 0 140 -52t55 -128q0 -68 -40 -114q-20 -22 -40 -31q32 -15 57 -39q58 -56 58 -136q0 -87 -59.5 -143.5t-155.5 -56.5h-285zM180 406h195q57 0 88.5 30.5t31.5 83.5q0 50 -32 80t-88 30h-195v-224zM180 70h210q63 0 101.5 36t38.5 94t-39 99t-101 41
h-210v-270z" />
    <glyph glyph-name="Gamma" unicode="&#x393;" horiz-adv-x="550" 
d="M105 0v700h435v-70h-360v-630h-75z" />
    <glyph glyph-name="uni0394" unicode="&#x394;" horiz-adv-x="680" 
d="M10 0l295 700h70l295 -700h-660zM120 70h440l-220 525z" />
    <glyph glyph-name="Epsilon" unicode="&#x395;" horiz-adv-x="640" 
d="M105 0v700h480v-70h-405v-230h325v-70h-325v-260h415v-70h-490z" />
    <glyph glyph-name="Zeta" unicode="&#x396;" 
d="M45 0v70l410 560h-395v70h485v-70l-410 -560h420v-70h-510z" />
    <glyph glyph-name="Eta" unicode="&#x397;" horiz-adv-x="750" 
d="M105 0v700h75v-310h390v310h75v-700h-75v320h-390v-320h-75z" />
    <glyph glyph-name="Theta" unicode="&#x398;" horiz-adv-x="840" 
d="M60 350q0 150 105 255t255 105t255 -105t105 -255t-105 -255t-255 -105t-255 105t-105 255zM420 60q120 0 202.5 83.5t82.5 206.5t-82.5 206.5t-202.5 83.5t-202.5 -83.5t-82.5 -206.5t82.5 -206.5t202.5 -83.5zM215 320v70h410v-70h-410z" />
    <glyph glyph-name="Iota" unicode="&#x399;" horiz-adv-x="285" 
d="M105 0v700h75v-700h-75z" />
    <glyph glyph-name="Kappa" unicode="&#x39a;" horiz-adv-x="670" 
d="M105 0v700h75v-395l360 395h95l-265 -290l290 -410h-90l-250 355l-140 -150v-205h-75z" />
    <glyph glyph-name="Lambda" unicode="&#x39b;" horiz-adv-x="680" 
d="M20 0l285 700h70l285 -700h-80l-240 595l-240 -595h-80z" />
    <glyph glyph-name="Mu" unicode="&#x39c;" horiz-adv-x="920" 
d="M105 0v700h65l290 -380l290 380h65v-700h-75v570l-280 -370l-280 370v-570h-75z" />
    <glyph glyph-name="Nu" unicode="&#x39d;" horiz-adv-x="780" 
d="M105 0v700h65l430 -565v565h75v-700h-65l-430 565v-565h-75z" />
    <glyph glyph-name="Xi" unicode="&#x39e;" horiz-adv-x="660" 
d="M70 0v70h520v-70h-520zM85 630v70h490v-70h-490zM145 330v70h370v-70h-370z" />
    <glyph glyph-name="Omicron" unicode="&#x39f;" horiz-adv-x="840" 
d="M60 350q0 150 105 255t255 105t255 -105t105 -255t-105 -255t-255 -105t-255 105t-105 255zM420 60q120 0 202.5 83.5t82.5 206.5t-82.5 206.5t-202.5 83.5t-202.5 -83.5t-82.5 -206.5t82.5 -206.5t202.5 -83.5z" />
    <glyph glyph-name="Pi" unicode="&#x3a0;" horiz-adv-x="750" 
d="M105 0v700h540v-700h-75v630h-390v-630h-75z" />
    <glyph glyph-name="Rho" unicode="&#x3a1;" horiz-adv-x="650" 
d="M105 0v700h265q97 0 161 -63t64 -157t-64 -157t-161 -63h-190v-260h-75zM180 330h190q68 0 109 41t41 109t-41 109t-109 41h-190v-300z" />
    <glyph glyph-name="Sigma" unicode="&#x3a3;" 
d="M60 0v60l230 305l-230 275v60h495v-70h-395l225 -265l-225 -295h395v-70h-495z" />
    <glyph glyph-name="Tau" unicode="&#x3a4;" horiz-adv-x="555" 
d="M240 0v630h-220v70h515v-70h-220v-630h-75z" />
    <glyph glyph-name="Upsilon" unicode="&#x3a5;" horiz-adv-x="635" 
d="M280 0v245l-260 455h85l210 -375h5l210 375h85l-260 -455v-245h-75z" />
    <glyph glyph-name="Phi" unicode="&#x3a6;" horiz-adv-x="845" 
d="M385 100v500q-116 -4 -183 -71t-67 -179t67 -179t183 -71zM385 -50v80q-142 4 -233.5 94.5t-91.5 225.5t91.5 225.5t233.5 94.5v80h75v-80q142 -4 233.5 -94.5t91.5 -225.5t-91.5 -225.5t-233.5 -94.5v-80h-75zM460 600v-500q116 4 183 71t67 179t-67 179t-183 71z" />
    <glyph glyph-name="Chi" unicode="&#x3a7;" horiz-adv-x="650" 
d="M20 0l260 365l-240 335h90l195 -275l195 275h90l-240 -335l260 -365h-90l-215 305l-215 -305h-90z" />
    <glyph glyph-name="Psi" unicode="&#x3a8;" horiz-adv-x="805" 
d="M365 0v210q-134 4 -212 88t-78 232v170h75v-170q0 -121 56 -183.5t159 -66.5v420h75v-420q103 4 159 66.5t56 183.5v170h75v-170q0 -148 -78 -232t-212 -88v-210h-75z" />
    <glyph glyph-name="uni03A9" unicode="&#x3a9;" horiz-adv-x="870" 
d="M105 0v70h125q-70 41 -112.5 118.5t-42.5 161.5q0 150 105 255t255 105t255 -105t105 -255q0 -84 -42.5 -161.5t-112.5 -118.5h125v-70h-250v70q88 27 146.5 104t58.5 176q0 123 -82.5 206.5t-202.5 83.5t-202.5 -83.5t-82.5 -206.5q0 -99 58.5 -176t146.5 -104v-70h-250
z" />
    <glyph glyph-name="Iotadieresis" unicode="&#x3aa;" horiz-adv-x="285" 
d="M105 0v700h75v-700h-75zM5 855q0 19 13 32t32 13t32 -13t13 -32t-13 -32t-32 -13t-32 13t-13 32zM195 855q0 19 13 32t32 13t32 -13t13 -32t-13 -32t-32 -13t-32 13t-13 32z" />
    <glyph glyph-name="Upsilondieresis" unicode="&#x3ab;" horiz-adv-x="635" 
d="M280 0v245l-260 455h85l210 -375h5l210 375h85l-260 -455v-245h-75zM180 855q0 19 13 32t32 13t32 -13t13 -32t-13 -32t-32 -13t-32 13t-13 32zM370 855q0 19 13 32t32 13t32 -13t13 -32t-13 -32t-32 -13t-32 13t-13 32z" />
    <glyph glyph-name="alphatonos" unicode="&#x3ac;" horiz-adv-x="605" 
d="M585 60v-65l-8 -3q-10 -2 -22 -2q-63 0 -93 40q-12 16 -17 40q-15 -21 -41 -40q-56 -40 -124 -40q-99 0 -167 71t-68 179t68 179t167 71q68 0 124 -40q26 -19 41 -40v70h70v-375q0 -24 12 -37t33 -13q8 0 18 2zM280 55q65 0 115 54t50 131t-50 131t-115 54
q-69 0 -117 -52t-48 -133t48 -133t117 -52zM255 565l75 135h75l-95 -135h-55z" />
    <glyph glyph-name="epsilontonos" unicode="&#x3ad;" horiz-adv-x="460" 
d="M395 110l45 -45q-21 -23 -46 -38q-60 -37 -144 -37q-99 0 -149.5 42t-50.5 103q0 64 47 95q22 14 48 20q-21 7 -38 23q-37 33 -37 87q0 55 47 92.5t133 37.5q69 0 119 -28q25 -13 41 -27l-45 -50q-13 11 -29 20q-35 20 -86 20q-110 0 -110 -70q0 -32 26.5 -53.5
t73.5 -21.5h75v-65h-75q-61 0 -90.5 -22t-29.5 -58q0 -33 34 -56.5t101 -23.5q61 0 104 27q22 13 36 28zM212 565l75 135h75l-95 -135h-55z" />
    <glyph glyph-name="etatonos" unicode="&#x3ae;" horiz-adv-x="580" 
d="M80 0v480h70v-70q14 21 38 40q54 40 117 40q87 0 141 -56t54 -149v-285h-70v285q0 63 -36 101.5t-94 38.5q-65 0 -107.5 -44.5t-42.5 -115.5v-265h-70zM265 565l75 135h75l-95 -135h-55z" />
    <glyph glyph-name="iotatonos" unicode="&#x3af;" horiz-adv-x="295" 
d="M80 130v350h70v-350q0 -75 70 -75q20 0 39 7l16 8v-65l-5 -2.5t-7 -3t-7 -2.5q-21 -7 -46 -7q-61 0 -95.5 36.5t-34.5 103.5zM85 565l75 135h75l-95 -135h-55z" />
    <glyph glyph-name="upsilondieresistonos" unicode="&#x3b0;" horiz-adv-x="580" 
d="M150 630q0 19 13 32t32 13t32 -13t13 -32t-13 -32t-32 -13t-32 13t-13 32zM340 630q0 19 13 32t32 13t32 -13t13 -32t-13 -32t-32 -13t-32 13t-13 32zM219 565l75 135h75l-95 -135h-55zM80 200v280h70v-280q0 -68 38 -106.5t102 -38.5t102 38.5t38 106.5v280h70v-280
q0 -94 -58 -152t-152 -58t-152 58t-58 152z" />
    <glyph glyph-name="alpha" unicode="&#x3b1;" horiz-adv-x="605" 
d="M585 60v-65l-8 -3q-10 -2 -22 -2q-63 0 -93 40q-12 16 -17 40q-15 -21 -41 -40q-56 -40 -124 -40q-99 0 -167 71t-68 179t68 179t167 71q68 0 124 -40q26 -19 41 -40v70h70v-375q0 -24 12 -37t33 -13q8 0 18 2zM280 55q65 0 115 54t50 131t-50 131t-115 54
q-69 0 -117 -52t-48 -133t48 -133t117 -52z" />
    <glyph glyph-name="beta" unicode="&#x3b2;" horiz-adv-x="570" 
d="M85 -210v730q0 83 54.5 136.5t140.5 53.5q81 0 135.5 -50.5t54.5 -119.5q0 -66 -43 -113q-19 -20 -42 -32q37 -12 67 -36q68 -58 68 -149q0 -95 -61.5 -152.5t-168.5 -57.5h-135v-210h-70zM155 65h135q69 0 114.5 39t45.5 106q0 66 -41.5 105.5t-118.5 39.5h-75v65h55
q63 0 96.5 30.5t33.5 84.5q0 45 -34.5 77.5t-85.5 32.5q-57 0 -91 -34t-34 -91v-455z" />
    <glyph glyph-name="gamma" unicode="&#x3b3;" horiz-adv-x="490" 
d="M210 -210v210l-195 480h75l155 -385l155 385h75l-195 -480v-210h-70z" />
    <glyph glyph-name="delta" unicode="&#x3b4;" horiz-adv-x="580" 
d="M95 640v60h360v-60h-190v-5q38 -16 80 -49.5t82.5 -81t66.5 -113.5t26 -136q0 -118 -67.5 -191.5t-167.5 -73.5q-97 0 -166 69t-69 166q0 101 65 168t160 67q49 0 97 -23q21 -11 33 -22h5q-42 81 -130.5 144t-184.5 81zM285 55q69 0 117 49t48 121q0 76 -47.5 123
t-117.5 47q-72 0 -118.5 -47.5t-46.5 -122.5q0 -72 48 -121t117 -49z" />
    <glyph glyph-name="epsilon" unicode="&#x3b5;" horiz-adv-x="460" 
d="M395 110l45 -45q-21 -23 -46 -38q-60 -37 -144 -37q-99 0 -149.5 42t-50.5 103q0 64 47 95q22 14 48 20q-21 7 -38 23q-37 33 -37 87q0 55 47 92.5t133 37.5q69 0 119 -28q25 -13 41 -27l-45 -50q-13 11 -29 20q-35 20 -86 20q-110 0 -110 -70q0 -32 26.5 -53.5
t73.5 -21.5h75v-65h-75q-61 0 -90.5 -22t-29.5 -58q0 -33 34 -56.5t101 -23.5q61 0 104 27q22 13 36 28z" />
    <glyph glyph-name="zeta" unicode="&#x3b6;" horiz-adv-x="465" 
d="M415 -150h-70q0 56 17 109q7 24 18 46q-4 -2 -13 -4.5t-12 -3.5q-28 -7 -70 -7q-108 0 -169 55t-61 150q0 148 142 306q62 71 143 134h-260v65h360v-65q-81 -59 -158 -136q-67 -67 -112 -144.5t-45 -149.5q0 -150 165 -150q60 0 99 12q15 3 36 13l40 -50q-17 -32 -25 -54
q-25 -63 -25 -126z" />
    <glyph glyph-name="eta" unicode="&#x3b7;" horiz-adv-x="580" 
d="M80 0v480h70v-70q14 21 38 40q54 40 117 40q87 0 141 -56t54 -149v-285h-70v285q0 63 -36 101.5t-94 38.5q-65 0 -107.5 -44.5t-42.5 -115.5v-265h-70z" />
    <glyph glyph-name="theta" unicode="&#x3b8;" horiz-adv-x="610" 
d="M305 -10q-101 0 -170.5 93.5t-69.5 266.5t69.5 266.5t170.5 93.5t170.5 -93.5t69.5 -266.5t-69.5 -266.5t-170.5 -93.5zM135 380h339q-4 133 -50 199t-119 66t-119.5 -66.5t-50.5 -198.5zM474 315h-338q6 -133 53 -196.5t116 -63.5t116 63.5t53 196.5z" />
    <glyph glyph-name="iota" unicode="&#x3b9;" horiz-adv-x="295" 
d="M80 130v350h70v-350q0 -75 70 -75q20 0 39 7l16 8v-65l-5 -2.5t-7 -3t-7 -2.5q-21 -7 -46 -7q-61 0 -95.5 36.5t-34.5 103.5z" />
    <glyph glyph-name="kappa" unicode="&#x3ba;" horiz-adv-x="505" 
d="M80 0v480h70v-255l240 255h85l-185 -195l205 -285h-80l-170 235l-95 -100v-135h-70z" />
    <glyph glyph-name="lambda" unicode="&#x3bb;" horiz-adv-x="500" 
d="M25 0l200 480l-40 100q-25 65 -80 65q-19 0 -32 -5q-12 -5 -13 -5v65l17 5q18 5 43 5q49 0 79.5 -26t55.5 -89l230 -595h-75l-150 390l-162 -390h-73z" />
    <glyph glyph-name="uni03BC" unicode="&#x3bc;" horiz-adv-x="580" 
d="M80 -210v690h70v-285q0 -63 36 -101.5t94 -38.5q65 0 107.5 44.5t42.5 115.5v265h70v-480h-70v70q-14 -21 -38 -40q-54 -40 -117 -40q-56 0 -94 20q-15 7 -31 20v-240h-70z" />
    <glyph glyph-name="nu" unicode="&#x3bd;" horiz-adv-x="490" 
d="M210 0l-195 480h75l155 -385l155 385h75l-195 -480h-70z" />
    <glyph glyph-name="xi" unicode="&#x3be;" horiz-adv-x="520" 
d="M455 -150h-70q0 56 17 109q7 24 18 46q-2 -1 -23 -8q-28 -7 -72 -7q-124 0 -192 57.5t-68 147.5q0 41 14.5 75t31 52t42 33.5t32.5 18t19 6.5q-3 0 -14 4t-28.5 15.5t-33 27.5t-27 43t-11.5 60q0 77 58 128.5t157 51.5q67 0 123 -23q26 -12 37 -22l-40 -55q-11 9 -28 17
q-38 18 -92 18q-70 0 -107.5 -32t-37.5 -83t39.5 -83t115.5 -32h65v-70h-65q-84 0 -132 -42t-48 -108q0 -63 49 -101.5t146 -38.5q60 0 99 12q15 3 36 13l40 -50q-17 -32 -25 -54q-25 -63 -25 -126z" />
    <glyph glyph-name="omicron" unicode="&#x3bf;" horiz-adv-x="580" 
d="M290 -10q-102 0 -173.5 72.5t-71.5 177.5t71.5 177.5t173.5 72.5t173.5 -72.5t71.5 -177.5t-71.5 -177.5t-173.5 -72.5zM290 55q72 0 123.5 53.5t51.5 131.5t-51.5 131.5t-123.5 53.5t-123.5 -53.5t-51.5 -131.5q0 -77 51.5 -131t123.5 -54z" />
    <glyph glyph-name="pi" unicode="&#x3c0;" horiz-adv-x="585" 
d="M80 0v480h425v-480h-70v414h-285v-414h-70z" />
    <glyph glyph-name="rho" unicode="&#x3c1;" 
d="M75 -210v450q0 108 69 179t171 71t171 -71t69 -179t-69 -179t-171 -71q-72 0 -128 40q-26 19 -42 40v-280h-70zM315 55q73 0 121.5 52t48.5 133t-48.5 133t-121.5 52t-121.5 -52t-48.5 -133t48.5 -133t121.5 -52z" />
    <glyph glyph-name="sigma1" unicode="&#x3c2;" horiz-adv-x="515" 
d="M410 -150h-70q0 55 17 106q7 22 18 42q-2 0 -7.5 -1.5t-9.5 -2.5q-15 -4 -43 -4q-120 0 -195 71t-75 179t70 179t175 71q73 0 131 -30q27 -14 44 -30l-40 -50q-14 10 -36 22q-48 23 -99 23q-76 0 -125.5 -52t-49.5 -133q0 -82 56 -133.5t154 -51.5q38 0 70 10q18 6 25 10
l40 -50q-16 -26 -25 -50q-25 -60 -25 -125z" />
    <glyph glyph-name="sigma" unicode="&#x3c3;" 
d="M290 480h10h290v-65h-140q85 -67 85 -180q0 -105 -70 -175t-175 -70t-175 70t-70 175t70 175t175 70zM290 55q75 0 125 51t50 129t-50 129t-125 51t-125 -51t-50 -129t50 -129t125 -51z" />
    <glyph glyph-name="tau" unicode="&#x3c4;" horiz-adv-x="445" 
d="M180 130v285h-165v65h405v-65h-170v-285q0 -75 70 -75q20 0 39 7l16 8v-65l-5 -2.5t-7 -3t-7 -2.5q-21 -7 -46 -7q-61 0 -95.5 36.5t-34.5 103.5z" />
    <glyph glyph-name="upsilon" unicode="&#x3c5;" horiz-adv-x="580" 
d="M80 200v280h70v-280q0 -68 38 -106.5t102 -38.5t102 38.5t38 106.5v280h70v-280q0 -94 -58 -152t-152 -58t-152 58t-58 152z" />
    <glyph glyph-name="phi" unicode="&#x3c6;" horiz-adv-x="730" 
d="M330 -210v200q-126 4 -203 73t-77 172q0 87 50.5 152t124.5 88l25 -55q-60 -21 -95 -68.5t-35 -116.5q0 -80 54.5 -128t155.5 -52v425h70q125 0 202.5 -70.5t77.5 -174.5q0 -103 -77 -172t-203 -73v-200h-70zM400 415v-360q101 4 155.5 52t54.5 128t-55.5 130t-154.5 50z
" />
    <glyph glyph-name="chi" unicode="&#x3c7;" horiz-adv-x="480" 
d="M15 0l180 250l-165 230h85l125 -175l125 175h85l-165 -230l180 -250h-85l-140 195l-140 -195h-85z" />
    <glyph glyph-name="psi" unicode="&#x3c8;" horiz-adv-x="720" 
d="M325 -210v200q-111 4 -178 76.5t-67 198.5v215h70v-210q0 -207 175 -215v425h70v-425q175 8 175 215v210h70v-215q0 -126 -67 -198.5t-178 -76.5v-200h-70z" />
    <glyph glyph-name="omega" unicode="&#x3c9;" horiz-adv-x="820" 
d="M375 240v80h70v-80q0 -185 120 -185q56 0 90.5 46t34.5 139q0 70 -27 120t-69 76l36 54q58 -31 94 -98t36 -152q0 -119 -54 -184.5t-136 -65.5q-81 0 -127 52q-21 22 -33 53q-12 -31 -33 -53q-46 -52 -127 -52q-82 0 -136 65.5t-54 184.5q0 85 36 152t94 98l36 -54
q-42 -26 -69 -76t-27 -120q0 -93 34.5 -139t90.5 -46q120 0 120 185z" />
    <glyph glyph-name="iotadieresis" unicode="&#x3ca;" horiz-adv-x="295" 
d="M80 130v350h70v-350q0 -75 70 -75q20 0 39 7l16 8v-65l-5 -2.5t-7 -3t-7 -2.5q-21 -7 -46 -7q-61 0 -95.5 36.5t-34.5 103.5zM-25 630q0 19 13 32t32 13t32 -13t13 -32t-13 -32t-32 -13t-32 13t-13 32zM165 630q0 19 13 32t32 13t32 -13t13 -32t-13 -32t-32 -13t-32 13
t-13 32z" />
    <glyph glyph-name="upsilondieresis" unicode="&#x3cb;" horiz-adv-x="580" 
d="M80 200v280h70v-280q0 -68 38 -106.5t102 -38.5t102 38.5t38 106.5v280h70v-280q0 -94 -58 -152t-152 -58t-152 58t-58 152zM150 630q0 19 13 32t32 13t32 -13t13 -32t-13 -32t-32 -13t-32 13t-13 32zM340 630q0 19 13 32t32 13t32 -13t13 -32t-13 -32t-32 -13t-32 13
t-13 32z" />
    <glyph glyph-name="omicrontonos" unicode="&#x3cc;" horiz-adv-x="580" 
d="M260 565l75 135h75l-95 -135h-55zM290 -10q-102 0 -173.5 72.5t-71.5 177.5t71.5 177.5t173.5 72.5t173.5 -72.5t71.5 -177.5t-71.5 -177.5t-173.5 -72.5zM290 55q72 0 123.5 53.5t51.5 131.5t-51.5 131.5t-123.5 53.5t-123.5 -53.5t-51.5 -131.5q0 -77 51.5 -131
t123.5 -54z" />
    <glyph glyph-name="upsilontonos" unicode="&#x3cd;" horiz-adv-x="580" 
d="M80 200v280h70v-280q0 -68 38 -106.5t102 -38.5t102 38.5t38 106.5v280h70v-280q0 -94 -58 -152t-152 -58t-152 58t-58 152zM255 565l75 135h75l-95 -135h-55z" />
    <glyph glyph-name="omegatonos" unicode="&#x3ce;" horiz-adv-x="820" 
d="M375 240v80h70v-80q0 -185 120 -185q56 0 90.5 46t34.5 139q0 70 -27 120t-69 76l36 54q58 -31 94 -98t36 -152q0 -119 -54 -184.5t-136 -65.5q-81 0 -127 52q-21 22 -33 53q-12 -31 -33 -53q-46 -52 -127 -52q-82 0 -136 65.5t-54 184.5q0 85 36 152t94 98l36 -54
q-42 -26 -69 -76t-27 -120q0 -93 34.5 -139t90.5 -46q120 0 120 185zM355 565l75 135h75l-95 -135h-55z" />
    <glyph glyph-name="uni0400" unicode="&#x400;" horiz-adv-x="640" 
d="M335 795l-95 135h75l75 -135h-55zM105 0v700h480v-70h-405v-230h325v-70h-325v-260h415v-70h-490z" />
    <glyph glyph-name="uni0401" unicode="&#x401;" horiz-adv-x="640" 
d="M105 0v700h480v-70h-405v-230h325v-70h-325v-260h415v-70h-490zM205 855q0 19 13 32t32 13t32 -13t13 -32t-13 -32t-32 -13t-32 13t-13 32zM395 855q0 19 13 32t32 13t32 -13t13 -32t-13 -32t-32 -13t-32 13t-13 32z" />
    <glyph glyph-name="uni0402" unicode="&#x402;" horiz-adv-x="715" 
d="M180 0v630h-180v70h435v-70h-180v-240q23 18 52 32q68 33 138 33q95 0 152.5 -61.5t57.5 -168.5q0 -108 -62.5 -171.5t-167.5 -63.5v70q72 0 113.5 43.5t41.5 121.5q0 74 -40 117t-105 43t-129 -40q-30 -19 -51 -40v-305h-75z" />
    <glyph glyph-name="uni0403" unicode="&#x403;" horiz-adv-x="550" 
d="M105 0v700h435v-70h-360v-630h-75zM295 795l75 135h75l-95 -135h-55z" />
    <glyph glyph-name="uni0404" unicode="&#x404;" horiz-adv-x="750" 
d="M135 390h370v-70h-370q12 -111 91 -185.5t194 -74.5q103 0 180 60q34 26 60 60l50 -45q-35 -44 -74 -73q-98 -72 -216 -72q-150 0 -255 105t-105 255t105 255t255 105q117 0 214 -73q42 -32 71 -72l-50 -45q-25 35 -58 60q-75 60 -177 60q-113 0 -191.5 -71.5
t-93.5 -178.5z" />
    <glyph glyph-name="uni0405" unicode="&#x405;" horiz-adv-x="565" 
d="M45 95l45 51q19 -25 46 -43q58 -43 144 -43q77 0 118.5 35.5t41.5 94.5q0 36 -21 61t-54.5 39.5t-74 26t-81 26t-74 34.5t-54.5 56t-21 87q0 79 62 134.5t163 55.5q85 0 153 -45q29 -19 52 -45l-50 -50q-14 17 -39 35q-56 35 -116 35q-69 0 -109.5 -35t-40.5 -85
q0 -36 21 -61.5t54.5 -39.5t74 -25.5t81 -26t74 -34.5t54.5 -56t21 -87q0 -89 -62.5 -144.5t-172.5 -55.5q-103 0 -178 52q-34 22 -57 53z" />
    <glyph glyph-name="uni0406" unicode="&#x406;" horiz-adv-x="285" 
d="M105 0v700h75v-700h-75z" />
    <glyph glyph-name="uni0407" unicode="&#x407;" horiz-adv-x="285" 
d="M105 0v700h75v-700h-75zM5 855q0 19 13 32t32 13t32 -13t13 -32t-13 -32t-32 -13t-32 13t-13 32zM195 855q0 19 13 32t32 13t32 -13t13 -32t-13 -32t-32 -13t-32 13t-13 32z" />
    <glyph glyph-name="uni0408" unicode="&#x408;" horiz-adv-x="495" 
d="M10 70l50 50q12 -16 30 -30q40 -30 90 -30q64 0 102 38.5t38 106.5v495h75v-495q0 -94 -60.5 -154.5t-154.5 -60.5q-68 0 -126 40q-28 19 -44 40z" />
    <glyph glyph-name="uni0409" unicode="&#x409;" horiz-adv-x="1080" 
d="M-5 0v75q9 -4 18 -5q20 -5 37 -5q31 0 52.5 15t40.5 58t28 130.5t9 221.5v210h435v-260h180q97 0 161 -63t64 -157t-64 -157t-161 -63h-255v630h-285v-140q0 -155 -13 -256.5t-40 -153.5t-60 -71t-82 -19q-24 0 -46 5q-10 1 -19 5zM615 70h180q68 0 109 41t41 109
t-41 109t-109 41h-180v-300z" />
    <glyph glyph-name="uni040A" unicode="&#x40a;" horiz-adv-x="1080" 
d="M105 0v700h75v-260h360v260h75v-260h180q97 0 161 -63t64 -157t-64 -157t-161 -63h-255v370h-360v-370h-75zM615 70h180q68 0 109 41t41 109t-41 109t-109 41h-180v-300z" />
    <glyph glyph-name="uni040B" unicode="&#x40b;" horiz-adv-x="740" 
d="M180 0v630h-180v70h435v-70h-180v-240q23 18 52 32q68 33 138 33q94 0 152 -59t58 -156v-240h-75v240q0 64 -40.5 104.5t-104.5 40.5q-65 0 -129 -40q-30 -19 -51 -40v-305h-75z" />
    <glyph glyph-name="uni040C" unicode="&#x40c;" horiz-adv-x="670" 
d="M105 0v700h75v-395l360 395h95l-265 -290l290 -410h-90l-250 355l-140 -150v-205h-75zM325 795l75 135h75l-95 -135h-55z" />
    <glyph glyph-name="uni040D" unicode="&#x40d;" horiz-adv-x="780" 
d="M105 0v700h75v-565l430 565h65v-700h-75v565l-430 -565h-65zM370 795l-95 135h75l75 -135h-55z" />
    <glyph glyph-name="uni040E" unicode="&#x40e;" horiz-adv-x="610" 
d="M65 0v70q10 -4 17 -5q20 -5 43 -5q46 0 74 22t56 73l30 55q-29 55 -82.5 154.5t-96.5 181t-81 154.5h80l220 -410l190 410h80l-260 -545q-44 -90 -88.5 -127.5t-116.5 -37.5q-24 0 -46 5q-10 1 -19 5zM175 930h55q0 -34 23 -57t57 -23t57 23t23 57h55q0 -60 -37.5 -97.5
t-97.5 -37.5t-97.5 37.5t-37.5 97.5z" />
    <glyph glyph-name="uni040F" unicode="&#x40f;" horiz-adv-x="745" 
d="M105 0v700h75v-630h385v630h75v-700h-230v-150h-75v150h-230z" />
    <glyph glyph-name="uni0410" unicode="&#x410;" horiz-adv-x="690" 
d="M20 0l290 700h70l290 -700h-80l-80 195h-330l-80 -195h-80zM210 265h270l-135 330z" />
    <glyph glyph-name="uni0411" unicode="&#x411;" horiz-adv-x="655" 
d="M105 0v700h435v-70h-360v-210h195q93 0 156.5 -61.5t63.5 -148.5t-63.5 -148.5t-156.5 -61.5h-270zM180 70h195q63 0 104 40t41 100t-41 100t-104 40h-195v-280z" />
    <glyph glyph-name="uni0412" unicode="&#x412;" horiz-adv-x="665" 
d="M105 0v700h270q85 0 140 -52t55 -128q0 -68 -40 -114q-20 -22 -40 -31q32 -15 57 -39q58 -56 58 -136q0 -87 -59.5 -143.5t-155.5 -56.5h-285zM180 406h195q57 0 88.5 30.5t31.5 83.5q0 50 -32 80t-88 30h-195v-224zM180 70h210q63 0 101.5 36t38.5 94t-39 99t-101 41
h-210v-270z" />
    <glyph glyph-name="uni0413" unicode="&#x413;" horiz-adv-x="550" 
d="M105 0v700h435v-70h-360v-630h-75z" />
    <glyph glyph-name="uni0414" unicode="&#x414;" horiz-adv-x="710" 
d="M0 -150v220h40q36 37 62 94q63 136 63 326v210h430v-630h85v-220h-75v150h-530v-150h-75zM120 70h400v560h-280v-140q0 -192 -60 -324q-26 -58 -60 -96z" />
    <glyph glyph-name="uni0415" unicode="&#x415;" horiz-adv-x="640" 
d="M105 0v700h480v-70h-405v-230h325v-70h-325v-260h415v-70h-490z" />
    <glyph glyph-name="uni0416" unicode="&#x416;" horiz-adv-x="965" 
d="M10 0l290 410l-265 290h95l315 -344v344h75v-344l315 344h95l-265 -290l290 -410h-90l-250 355l-95 -100v-255h-75v255l-95 100l-250 -355h-90z" />
    <glyph glyph-name="uni0417" unicode="&#x417;" horiz-adv-x="595" 
d="M30 100l50 50q21 -26 51 -45q68 -45 149 -45q83 0 131.5 40t48.5 95q0 59 -48.5 99.5t-131.5 40.5h-80v70h80q72 0 113.5 33.5t41.5 81.5q0 51 -41.5 85.5t-113.5 34.5q-67 0 -129 -40q-29 -21 -46 -40l-50 50q24 27 58 50q78 50 167 50q105 0 167.5 -53.5t62.5 -131.5
q0 -77 -60 -123q-26 -22 -60 -32q39 -12 72 -35q73 -55 73 -140q0 -82 -71.5 -143.5t-183.5 -61.5q-103 0 -187 55q-38 25 -63 55z" />
    <glyph glyph-name="uni0418" unicode="&#x418;" horiz-adv-x="780" 
d="M105 0v700h75v-565l430 565h65v-700h-75v565l-430 -565h-65z" />
    <glyph glyph-name="uni0419" unicode="&#x419;" horiz-adv-x="780" 
d="M105 0v700h75v-565l430 565h65v-700h-75v565l-430 -565h-65zM255 930h55q0 -34 23 -57t57 -23t57 23t23 57h55q0 -60 -37.5 -97.5t-97.5 -37.5t-97.5 37.5t-37.5 97.5z" />
    <glyph glyph-name="uni041A" unicode="&#x41a;" horiz-adv-x="670" 
d="M105 0v700h75v-395l360 395h95l-265 -290l290 -410h-90l-250 355l-140 -150v-205h-75z" />
    <glyph glyph-name="uni041B" unicode="&#x41b;" horiz-adv-x="735" 
d="M-5 0v75q9 -4 18 -5q20 -5 37 -5q31 0 52.5 15t40.5 58t28 130.5t9 221.5v210h450v-700h-75v630h-300v-140q0 -155 -13 -256.5t-40 -153.5t-60 -71t-82 -19q-24 0 -46 5q-10 1 -19 5z" />
    <glyph glyph-name="uni041C" unicode="&#x41c;" horiz-adv-x="920" 
d="M105 0v700h65l290 -380l290 380h65v-700h-75v570l-280 -370l-280 370v-570h-75z" />
    <glyph glyph-name="uni041D" unicode="&#x41d;" horiz-adv-x="750" 
d="M105 0v700h75v-310h390v310h75v-700h-75v320h-390v-320h-75z" />
    <glyph glyph-name="uni041E" unicode="&#x41e;" horiz-adv-x="840" 
d="M60 350q0 150 105 255t255 105t255 -105t105 -255t-105 -255t-255 -105t-255 105t-105 255zM420 60q120 0 202.5 83.5t82.5 206.5t-82.5 206.5t-202.5 83.5t-202.5 -83.5t-82.5 -206.5t82.5 -206.5t202.5 -83.5z" />
    <glyph glyph-name="uni041F" unicode="&#x41f;" horiz-adv-x="750" 
d="M105 0v700h540v-700h-75v630h-390v-630h-75z" />
    <glyph glyph-name="uni0420" unicode="&#x420;" horiz-adv-x="650" 
d="M105 0v700h265q97 0 161 -63t64 -157t-64 -157t-161 -63h-190v-260h-75zM180 330h190q68 0 109 41t41 109t-41 109t-109 41h-190v-300z" />
    <glyph glyph-name="uni0421" unicode="&#x421;" horiz-adv-x="750" 
d="M660 180l50 -45q-35 -44 -74 -73q-98 -72 -216 -72q-150 0 -255 105t-105 255t105 255t255 105q117 0 214 -73q42 -32 71 -72l-50 -45q-25 35 -58 60q-75 60 -177 60q-120 0 -202.5 -83.5t-82.5 -206.5t82.5 -206.5t202.5 -83.5q103 0 180 60q34 26 60 60z" />
    <glyph glyph-name="uni0422" unicode="&#x422;" horiz-adv-x="555" 
d="M240 0v630h-220v70h515v-70h-220v-630h-75z" />
    <glyph glyph-name="uni0423" unicode="&#x423;" horiz-adv-x="610" 
d="M65 0v70q10 -4 17 -5q20 -5 43 -5q46 0 74 22t56 73l30 55q-29 55 -82.5 154.5t-96.5 181t-81 154.5h80l220 -410l190 410h80l-260 -545q-44 -90 -88.5 -127.5t-116.5 -37.5q-24 0 -46 5q-10 1 -19 5z" />
    <glyph glyph-name="uni0424" unicode="&#x424;" horiz-adv-x="845" 
d="M385 -20v95q-150 4 -240 85t-90 200t90 200t240 85v75h75v-75q150 -4 240 -85t90 -200t-90 -200t-240 -85v-95h-75zM385 145v430q-121 -4 -188 -63t-67 -152t67 -152t188 -63zM460 575v-430q121 4 188 63t67 152t-67 152t-188 63z" />
    <glyph glyph-name="uni0425" unicode="&#x425;" horiz-adv-x="650" 
d="M20 0l260 365l-240 335h90l195 -275l195 275h90l-240 -335l260 -365h-90l-215 305l-215 -305h-90z" />
    <glyph glyph-name="uni0426" unicode="&#x426;" horiz-adv-x="755" 
d="M105 0v700h75v-630h380v630h75v-630h90v-220h-75v150h-545z" />
    <glyph glyph-name="uni0427" unicode="&#x427;" horiz-adv-x="705" 
d="M525 0v305q-21 -15 -52 -30q-66 -30 -138 -30q-111 0 -175.5 65.5t-64.5 179.5v210h75v-210q0 -84 45.5 -129.5t129.5 -45.5q73 0 133 37q27 17 47 38v310h75v-700h-75z" />
    <glyph glyph-name="uni0428" unicode="&#x428;" horiz-adv-x="1015" 
d="M105 0v700h75v-630h290v630h75v-630h290v630h75v-700h-805z" />
    <glyph glyph-name="uni0429" unicode="&#x429;" horiz-adv-x="1030" 
d="M105 0v700h75v-630h290v630h75v-630h290v630h75v-630h90v-220h-75v150h-820z" />
    <glyph glyph-name="uni042A" unicode="&#x42a;" horiz-adv-x="710" 
d="M170 0v630h-170v70h245v-260h180q97 0 161 -63t64 -157t-64 -157t-161 -63h-255zM245 70h180q68 0 109 41t41 109t-41 109t-109 41h-180v-300z" />
    <glyph glyph-name="uni042B" unicode="&#x42b;" horiz-adv-x="885" 
d="M105 0v700h75v-260h180q97 0 161 -63t64 -157t-64 -157t-161 -63h-255zM705 0v700h75v-700h-75zM180 70h180q68 0 109 41t41 109t-41 109t-109 41h-180v-300z" />
    <glyph glyph-name="uni042C" unicode="&#x42c;" horiz-adv-x="655" 
d="M105 0v700h75v-260h190q97 0 161 -63t64 -157t-64 -157t-161 -63h-265zM180 70h190q68 0 109 41t41 109t-41 109t-109 41h-190v-300z" />
    <glyph glyph-name="uni042D" unicode="&#x42d;" horiz-adv-x="745" 
d="M35 135l50 45q25 -34 60 -60q77 -60 180 -60q114 0 193.5 74.5t91.5 185.5h-370v70h370q-16 108 -93.5 179t-191.5 71q-102 0 -177 -60q-33 -25 -58 -60l-50 45q28 40 71 72q95 73 214 73q150 0 255 -105t105 -255t-105 -255t-255 -105q-118 0 -216 72q-39 29 -74 73z
" />
    <glyph glyph-name="uni042E" unicode="&#x42e;" horiz-adv-x="1055" 
d="M105 0v700h75v-310h135q14 133 111 226.5t229 93.5q140 0 240 -104t100 -256t-100 -256t-240 -104q-134 0 -231 95t-109 235h-135v-320h-75zM655 60q111 0 188 82t77 208t-77 208t-188 82t-188 -82t-77 -208t77 -208t188 -82z" />
    <glyph glyph-name="uni042F" unicode="&#x42f;" horiz-adv-x="670" 
d="M50 0l165 290q-40 13 -73 40q-72 62 -72 160q0 90 61 150t154 60h280v-700h-75v280h-200l-155 -280h-85zM285 350h205v280h-205q-64 0 -102 -38t-38 -102t38 -102t102 -38z" />
    <glyph glyph-name="uni0430" unicode="&#x430;" horiz-adv-x="520" 
d="M370 0v65q-15 -21 -38 -38q-53 -37 -117 -37q-73 0 -121.5 42.5t-48.5 97.5q0 122 140 145l185 30q0 53 -33.5 86.5t-86.5 33.5q-52 0 -99 -35q-22 -19 -36 -35l-45 45q19 25 47 45q61 45 133 45q82 0 136 -53t54 -132v-305h-70zM370 215v30l-165 -30q-90 -16 -90 -85
q0 -32 26.5 -53.5t73.5 -21.5q69 0 112 44t43 116z" />
    <glyph glyph-name="uni0431" unicode="&#x431;" horiz-adv-x="585" 
d="M470 730l35 -55q-13 -11 -39 -21q-57 -25 -151 -44q-80 -17 -128 -75.5t-52 -159.5q17 27 42 47q56 48 128 48q94 0 162 -70t68 -170q0 -101 -68.5 -170.5t-166.5 -69.5q-106 0 -173 81t-67 229q0 174 66 265t179 110q75 14 127 35q28 13 38 20zM300 55q69 0 117 50.5
t48 124.5t-48 124.5t-117 50.5t-117 -50.5t-48 -124.5t48 -124.5t117 -50.5z" />
    <glyph glyph-name="uni0432" unicode="&#x432;" horiz-adv-x="515" 
d="M80 0v480h220q67 0 106 -35t39 -90q0 -44 -30 -76q-13 -13 -30 -24q23 -8 40 -22q40 -34 40 -93q0 -65 -40.5 -102.5t-114.5 -37.5h-230zM150 285h150q75 0 75 65t-75 65h-150v-130zM150 65h160q85 0 85 80t-85 80h-160v-160z" />
    <glyph glyph-name="uni0433" unicode="&#x433;" horiz-adv-x="410" 
d="M80 0v480h320v-65h-250v-415h-70z" />
    <glyph glyph-name="uni0434" unicode="&#x434;" horiz-adv-x="555" 
d="M0 -120v185h35q24 25 42 66q43 92 43 209v140h330v-415h75v-185h-70v120h-385v-120h-70zM110 65h270v350h-190v-75q0 -113 -40 -207q-18 -40 -40 -68z" />
    <glyph glyph-name="uni0435" unicode="&#x435;" horiz-adv-x="555" 
d="M440 135l45 -45q-19 -26 -51 -50q-70 -50 -149 -50q-99 0 -169.5 73t-70.5 177t70 177t165 73q99 0 164.5 -68t65.5 -172q0 -5 -3 -26l-2 -10l-390 1q4 -65 53.5 -112.5t116.5 -47.5q61 0 115 40q26 21 40 40zM115 275h325q-8 65 -52.5 107.5t-107.5 42.5t-110 -44
t-55 -106z" />
    <glyph glyph-name="uni0436" unicode="&#x436;" horiz-adv-x="730" 
d="M10 0l205 285l-185 195h85l215 -230v230h70v-230l215 230h85l-185 -195l205 -285h-80l-170 235l-70 -75v-160h-70v160l-70 75l-170 -235h-80z" />
    <glyph glyph-name="uni0437" unicode="&#x437;" horiz-adv-x="440" 
d="M25 75l45 45q16 -20 36 -33q46 -32 99 -32q57 0 86 22t29 58t-29 58t-86 22h-55v65h55q43 0 69 22t26 53t-24 50.5t-71 19.5q-49 0 -88 -28q-19 -13 -32 -27l-50 50q15 16 44 35q60 35 126 35q72 0 118.5 -40.5t46.5 -94.5q0 -55 -38 -85q-17 -14 -37 -20q25 -6 47 -20
q48 -32 48 -95q0 -60 -48.5 -102.5t-136.5 -42.5q-73 0 -135 42q-26 19 -45 43z" />
    <glyph glyph-name="uni0438" unicode="&#x438;" horiz-adv-x="580" 
d="M80 0v480h70v-360l290 360h60v-480h-70v360l-290 -360h-60z" />
    <glyph glyph-name="uni0439" unicode="&#x439;" horiz-adv-x="580" 
d="M155 700h55q0 -85 80 -85t80 85h55q0 -60 -37.5 -97.5t-97.5 -37.5t-97.5 37.5t-37.5 97.5zM80 0v480h70v-360l290 360h60v-480h-70v360l-290 -360h-60z" />
    <glyph glyph-name="uni043A" unicode="&#x43a;" horiz-adv-x="505" 
d="M80 0v480h70v-255l240 255h85l-185 -195l205 -285h-80l-170 235l-95 -100v-135h-70z" />
    <glyph glyph-name="uni043B" unicode="&#x43b;" horiz-adv-x="560" 
d="M0 0v70q6 -4 12 -5q13 -5 28 -5q31 0 48.5 18t29.5 81.5t12 180.5v140h350v-480h-70v415h-210v-75q0 -106 -10.5 -176.5t-31.5 -107.5t-46.5 -51.5t-61.5 -14.5q-18 0 -35 5q-5 1 -15 5z" />
    <glyph glyph-name="uni043C" unicode="&#x43c;" horiz-adv-x="650" 
d="M80 0v480h55l190 -240l190 240h55v-480h-70v355l-175 -220l-175 220v-355h-70z" />
    <glyph glyph-name="uni043D" unicode="&#x43d;" horiz-adv-x="575" 
d="M80 0v480h70v-205h275v205h70v-480h-70v210h-275v-210h-70z" />
    <glyph glyph-name="uni043E" unicode="&#x43e;" horiz-adv-x="580" 
d="M290 -10q-102 0 -173.5 72.5t-71.5 177.5t71.5 177.5t173.5 72.5t173.5 -72.5t71.5 -177.5t-71.5 -177.5t-173.5 -72.5zM290 55q72 0 123.5 53.5t51.5 131.5t-51.5 131.5t-123.5 53.5t-123.5 -53.5t-51.5 -131.5q0 -77 51.5 -131t123.5 -54z" />
    <glyph glyph-name="uni043F" unicode="&#x43f;" horiz-adv-x="575" 
d="M80 0v480h415v-480h-70v414h-275v-414h-70z" />
    <glyph glyph-name="uni0440" unicode="&#x440;" horiz-adv-x="595" 
d="M80 -210v690h70v-70q17 23 41 40q54 40 124 40q99 0 167 -71t68 -179t-68 -179t-167 -71q-70 0 -124 40q-24 17 -41 40v-280h-70zM315 55q69 0 117 52t48 133t-48 133t-117 52q-65 0 -115 -54t-50 -131t50 -131t115 -54z" />
    <glyph glyph-name="uni0441" unicode="&#x441;" horiz-adv-x="515" 
d="M435 135l50 -45q-20 -25 -53 -50q-70 -50 -147 -50q-99 0 -169.5 73t-70.5 177t70.5 177t169.5 73q78 0 144 -48q27 -20 51 -47l-50 -50q-16 22 -37 40q-48 40 -108 40q-69 0 -119.5 -53.5t-50.5 -131.5t50.5 -131.5t119.5 -53.5q57 0 111 40q23 19 39 40z" />
    <glyph glyph-name="uni0442" unicode="&#x442;" horiz-adv-x="450" 
d="M190 0v415h-170v65h410v-65h-170v-415h-70z" />
    <glyph glyph-name="uni0443" unicode="&#x443;" horiz-adv-x="490" 
d="M45 -200v65q9 -4 16 -5q17 -5 34 -5q62 0 90 75l25 70l-195 480h75l155 -390l155 390h75l-220 -550q-30 -76 -64.5 -108t-85.5 -32q-23 0 -43 5q-7 1 -17 5z" />
    <glyph glyph-name="uni0444" unicode="&#x444;" horiz-adv-x="710" 
d="M320 -210v200q-121 0 -198 71.5t-77 178.5t77 178.5t198 71.5v210h70v-210q121 0 198 -71.5t77 -178.5t-77 -178.5t-198 -71.5v-200h-70zM320 55v370q-92 0 -148.5 -52.5t-56.5 -132.5q0 -81 56 -133t149 -52zM390 425v-370q93 0 149 52t56 133q0 80 -56.5 132.5
t-148.5 52.5z" />
    <glyph glyph-name="uni0445" unicode="&#x445;" horiz-adv-x="480" 
d="M15 0l180 250l-165 230h85l125 -175l125 175h85l-165 -230l180 -250h-85l-140 195l-140 -195h-85z" />
    <glyph glyph-name="uni0446" unicode="&#x446;" horiz-adv-x="590" 
d="M80 0v480h70v-415h265v415h70v-415h75v-185h-70v120h-410z" />
    <glyph glyph-name="uni0447" unicode="&#x447;" horiz-adv-x="540" 
d="M390 0v195q-18 -11 -38 -20q-44 -20 -97 -20q-82 0 -133.5 51.5t-51.5 133.5v140h70v-140q0 -53 33.5 -86.5t86.5 -33.5q49 0 95 22q20 11 35 23v215h70v-480h-70z" />
    <glyph glyph-name="uni0448" unicode="&#x448;" horiz-adv-x="780" 
d="M80 0v480h70v-415h205v415h71v-415h204v415h70v-480h-620z" />
    <glyph glyph-name="uni0449" unicode="&#x449;" horiz-adv-x="805" 
d="M80 0v480h70v-415h205v415h71v-415h204v415h70v-415h75v-185h-70v120h-625z" />
    <glyph glyph-name="uni044A" unicode="&#x44a;" horiz-adv-x="535" 
d="M125 0v415h-125v65h195v-160h120q82 0 128.5 -43.5t46.5 -116.5t-46.5 -116.5t-127.5 -43.5h-191zM195 65h121q48 0 76 26.5t28 68.5q0 43 -28.5 69t-76.5 26h-120v-190z" />
    <glyph glyph-name="uni044B" unicode="&#x44b;" horiz-adv-x="685" 
d="M80 0v480h70v-160h120q82 0 128.5 -43.5t46.5 -116.5t-46.5 -116.5t-127.5 -43.5h-191zM535 0v480h70v-480h-70zM150 65h121q48 0 76 26.5t28 68.5q0 43 -28.5 69t-76.5 26h-120v-190z" />
    <glyph glyph-name="uni044C" unicode="&#x44c;" horiz-adv-x="495" 
d="M80 0v480h70v-160h125q82 0 128.5 -43.5t46.5 -116.5t-46.5 -116.5t-127.5 -43.5h-196zM150 65h126q48 0 76 26.5t28 68.5q0 43 -28.5 69t-76.5 26h-125v-190z" />
    <glyph glyph-name="uni044D" unicode="&#x44d;" horiz-adv-x="510" 
d="M25 90l50 45q16 -21 39 -40q54 -40 111 -40q63 0 112.5 47.5t57.5 112.5h-240v65h235q-9 58 -56 101.5t-109 43.5q-60 0 -108 -40q-21 -18 -37 -40l-50 50q24 27 51 47q66 48 144 48q99 0 169.5 -73t70.5 -177t-70.5 -177t-169.5 -73q-77 0 -147 50q-33 25 -53 50z" />
    <glyph glyph-name="uni044E" unicode="&#x44e;" horiz-adv-x="780" 
d="M80 0v480h70v-205h105q12 89 80 152t160 63q99 0 169.5 -73t70.5 -177t-70.5 -177t-169.5 -73q-92 0 -160 64t-80 156h-105v-210h-70zM495 55q69 0 119.5 53.5t50.5 131.5t-50.5 131.5t-119.5 53.5t-119.5 -53.5t-50.5 -131.5t50.5 -131.5t119.5 -53.5z" />
    <glyph glyph-name="uni044F" unicode="&#x44f;" horiz-adv-x="510" 
d="M40 0l110 175q-27 8 -50 27q-50 42 -50 118q0 69 48.5 114.5t126.5 45.5h205v-480h-70v160h-140l-100 -160h-80zM225 225h135v190h-135q-48 0 -76.5 -26t-28.5 -69t28.5 -69t76.5 -26z" />
    <glyph glyph-name="uni0450" unicode="&#x450;" horiz-adv-x="555" 
d="M250 565l-95 135h75l75 -135h-55zM440 135l45 -45q-19 -26 -51 -50q-70 -50 -149 -50q-99 0 -169.5 73t-70.5 177t70 177t165 73q99 0 164.5 -68t65.5 -172q0 -5 -3 -26l-2 -10l-390 1q4 -65 53.5 -112.5t116.5 -47.5q61 0 115 40q26 21 40 40zM115 275h325
q-8 65 -52.5 107.5t-107.5 42.5t-110 -44t-55 -106z" />
    <glyph glyph-name="uni0451" unicode="&#x451;" horiz-adv-x="555" 
d="M440 135l45 -45q-19 -26 -51 -50q-70 -50 -149 -50q-99 0 -169.5 73t-70.5 177t70 177t165 73q99 0 164.5 -68t65.5 -172q0 -5 -3 -26l-2 -10l-390 1q4 -65 53.5 -112.5t116.5 -47.5q61 0 115 40q26 21 40 40zM115 275h325q-8 65 -52.5 107.5t-107.5 42.5t-110 -44
t-55 -106zM140 630q0 19 13 32t32 13t32 -13t13 -32t-13 -32t-32 -13t-32 13t-13 32zM330 630q0 19 13 32t32 13t32 -13t13 -32t-13 -32t-32 -13t-32 13t-13 32z" />
    <glyph glyph-name="uni0452" unicode="&#x452;" horiz-adv-x="580" 
d="M95 0v545h-85v65h85v90h70v-90h140v-65h-140v-165q14 21 38 40q54 40 117 40q88 0 146.5 -63.5t58.5 -166.5q0 -107 -62.5 -173.5t-157.5 -66.5v65q65 0 107.5 47.5t42.5 127.5q0 73 -41 119t-99 46q-65 0 -107.5 -44.5t-42.5 -115.5v-235h-70z" />
    <glyph glyph-name="uni0453" unicode="&#x453;" horiz-adv-x="410" 
d="M80 0v480h320v-65h-250v-415h-70zM205 565l75 135h75l-95 -135h-55z" />
    <glyph glyph-name="uni0454" unicode="&#x454;" horiz-adv-x="515" 
d="M120 280h235v-65h-240q8 -65 57.5 -112.5t112.5 -47.5q57 0 111 40q23 19 39 40l50 -45q-20 -25 -53 -50q-70 -50 -147 -50q-99 0 -169.5 73t-70.5 177t70.5 177t169.5 73q78 0 144 -48q27 -20 51 -47l-50 -50q-16 22 -37 40q-48 40 -108 40q-62 0 -109 -43.5t-56 -101.5
z" />
    <glyph glyph-name="uni0455" unicode="&#x455;" horiz-adv-x="430" 
d="M35 75l50 50q14 -20 32 -35q39 -35 93 -35q51 0 78 22.5t27 57.5q0 30 -27 48.5t-65 29.5t-76 24.5t-65 42.5t-27 75q0 54 45 94.5t115 40.5q59 0 115 -33q24 -14 40 -32l-50 -50q-12 15 -26 25q-40 25 -79 25q-40 0 -65 -21t-25 -49q0 -29 27 -46.5t65 -28t76 -24
t65 -44t27 -77.5q0 -62 -47.5 -103.5t-127.5 -41.5q-75 0 -133 42q-26 18 -42 43z" />
    <glyph glyph-name="uni0456" unicode="&#x456;" horiz-adv-x="230" 
d="M70 640q0 19 13 32t32 13t32 -13t13 -32t-13 -32t-32 -13t-32 13t-13 32zM80 0v480h70v-480h-70z" />
    <glyph glyph-name="uni0457" unicode="&#x457;" horiz-adv-x="230" 
d="M80 0v480h70v-480h-70zM-25 630q0 19 13 32t32 13t32 -13t13 -32t-13 -32t-32 -13t-32 13t-13 32zM165 630q0 19 13 32t32 13t32 -13t13 -32t-13 -32t-32 -13t-32 13t-13 32z" />
    <glyph glyph-name="uni0458" unicode="&#x458;" horiz-adv-x="230" 
d="M70 640q0 19 13 32t32 13t32 -13t13 -32t-13 -32t-32 -13t-32 13t-13 32zM-40 -195v65l16 -8q15 -7 39 -7q65 0 65 75v550h70v-550q0 -140 -130 -140q-24 0 -43 7q-13 5 -17 8z" />
    <glyph glyph-name="uni0459" unicode="&#x459;" horiz-adv-x="805" 
d="M0 0v70q6 -4 12 -5q13 -5 28 -5q31 0 48.5 18t29.5 81.5t12 180.5v140h335v-180h120q85 0 130 -40t45 -110t-44.5 -110t-129.5 -40h-191v415h-195v-75q0 -106 -10.5 -176.5t-31.5 -107.5t-46.5 -51.5t-61.5 -14.5q-18 0 -35 5q-5 1 -15 5zM465 65h121q51 0 77.5 23
t26.5 62t-26.5 62t-78.5 23h-120v-170z" />
    <glyph glyph-name="uni045A" unicode="&#x45a;" horiz-adv-x="815" 
d="M80 0v480h70v-180h255v180h70v-180h120q85 0 130 -40t45 -110t-44.5 -110t-129.5 -40h-191v235h-255v-235h-70zM475 65h121q51 0 77.5 23t26.5 62t-26.5 62t-78.5 23h-120v-170z" />
    <glyph glyph-name="uni045B" unicode="&#x45b;" horiz-adv-x="595" 
d="M95 0v545h-85v65h85v90h70v-90h140v-65h-140v-165q14 21 38 40q54 40 117 40q87 0 141 -56t54 -149v-255h-70v255q0 63 -36 101.5t-94 38.5q-65 0 -107.5 -44.5t-42.5 -115.5v-235h-70z" />
    <glyph glyph-name="uni045C" unicode="&#x45c;" horiz-adv-x="505" 
d="M80 0v480h70v-255l240 255h85l-185 -195l205 -285h-80l-170 235l-95 -100v-135h-70zM235 565l75 135h75l-95 -135h-55z" />
    <glyph glyph-name="uni045D" unicode="&#x45d;" horiz-adv-x="580" 
d="M80 0v480h70v-360l290 360h60v-480h-70v360l-290 -360h-60zM275 565l-95 135h75l75 -135h-55z" />
    <glyph glyph-name="uni045E" unicode="&#x45e;" horiz-adv-x="490" 
d="M45 -200v65q9 -4 16 -5q17 -5 34 -5q62 0 90 75l25 70l-195 480h75l155 -390l155 390h75l-220 -550q-30 -76 -64.5 -108t-85.5 -32q-23 0 -43 5q-7 1 -17 5zM110 700h55q0 -85 80 -85t80 85h55q0 -60 -37.5 -97.5t-97.5 -37.5t-97.5 37.5t-37.5 97.5z" />
    <glyph glyph-name="uni045F" unicode="&#x45f;" horiz-adv-x="570" 
d="M80 0v480h70v-415h270v415h70v-480h-170v-120h-70v120h-170z" />
    <glyph glyph-name="uni0462" unicode="&#x462;" horiz-adv-x="690" 
d="M150 0v525h-150v70h150v105h75v-105h190v-70h-190v-115h185q100 0 160 -57t60 -148t-60 -148t-160 -57h-260zM225 70h185q71 0 108 35t37 100t-37 100t-108 35h-185v-270z" />
    <glyph glyph-name="uni0463" unicode="&#x463;" horiz-adv-x="535" 
d="M125 0v415h-125v65h125v220h70v-220h155v-65h-155v-95h120q82 0 128.5 -43.5t46.5 -116.5t-46.5 -116.5t-127.5 -43.5h-191zM195 65h121q48 0 76 26.5t28 68.5q0 43 -28.5 69t-76.5 26h-120v-190z" />
    <glyph glyph-name="uni046A" unicode="&#x46a;" horiz-adv-x="795" 
d="M70 0v85q0 134 62 215t173 100l-220 250v50h625v-50l-220 -250q111 -19 173 -100t62 -215v-85h-75v85q0 242 -215 250v-335h-75v335q-215 -8 -215 -250v-85h-75zM395 405h5l200 225h-405z" />
    <glyph glyph-name="uni046B" unicode="&#x46b;" horiz-adv-x="650" 
d="M115 0h-70q0 107 53.5 175.5t141.5 84.5l-160 170v50h490v-50l-160 -170q88 -16 141.5 -84.5t53.5 -175.5h-70q0 197 -175 205v-205h-70v205q-175 -8 -175 -205zM325 260l147 160h-294z" />
    <glyph glyph-name="uni0472" unicode="&#x472;" horiz-adv-x="840" 
d="M60 350q0 150 105 255t255 105t255 -105t105 -255t-105 -255t-255 -105t-255 105t-105 255zM705 325q-18 -8 -43 -15q-51 -15 -102 -15q-61 0 -149.5 20t-130.5 20q-59 0 -107 -16q-24 -8 -35 -16q16 -106 94 -174.5t188 -68.5q113 0 193 74.5t92 190.5zM702 397
q-16 106 -94 174.5t-188 68.5q-113 0 -193 -74.5t-92 -190.5l42 15q58 15 103 15q61 0 149.5 -20t130.5 -20q59 0 107 16q24 8 35 16z" />
    <glyph glyph-name="uni0473" unicode="&#x473;" horiz-adv-x="580" 
d="M290 -10q-102 0 -173.5 72.5t-71.5 177.5t71.5 177.5t173.5 72.5t173.5 -72.5t71.5 -177.5t-71.5 -177.5t-173.5 -72.5zM461 280q-12 63 -61 104t-110 41q-68 0 -117.5 -46t-57.5 -115q8 5 24 10q33 11 61 11q42 0 98 -12.5t87 -12.5q35 0 59 10q12 5 17 10zM465 216
q-8 -6 -24 -11q-30 -10 -61 -10q-42 0 -98 12.5t-87 12.5q-35 0 -59 -10q-12 -5 -17 -10q12 -63 61 -104t110 -41q68 0 117.5 46t57.5 115z" />
    <glyph glyph-name="uni0474" unicode="&#x474;" horiz-adv-x="700" 
d="M300 0l-270 700h80l225 -590l171 450q33 84 62.5 117t86.5 33q21 0 39 -5q13 -5 16 -5l-20 -65l-8 2q-15 3 -22 3q-26 0 -40.5 -15.5t-29.5 -54.5l-220 -570h-70z" />
    <glyph glyph-name="uni0475" unicode="&#x475;" horiz-adv-x="515" 
d="M210 0l-190 480h75l150 -385l110 285q23 60 51.5 85t73.5 25q21 0 36 -5l14 -5l-20 -60l-7 2q-12 3 -18 3q-22 0 -34 -12t-25 -43l-146 -370h-70z" />
    <glyph glyph-name="uni048A" unicode="&#x48a;" horiz-adv-x="785" 
d="M105 0v700h75v-565l430 565h65v-630h110v-10l-115 -210h-50l50 150h-70v565l-430 -565h-65zM255 930h55q0 -34 23 -57t57 -23t57 23t23 57h55q0 -60 -37.5 -97.5t-97.5 -37.5t-97.5 37.5t-37.5 97.5z" />
    <glyph glyph-name="uni048B" unicode="&#x48b;" horiz-adv-x="595" 
d="M80 0v480h70v-360l290 360h60v-415h95v-10l-95 -175h-45l40 120h-65v360l-290 -360h-60zM155 700h55q0 -85 80 -85t80 85h55q0 -60 -37.5 -97.5t-97.5 -37.5t-97.5 37.5t-37.5 97.5z" />
    <glyph glyph-name="uni048C" unicode="&#x48c;" horiz-adv-x="690" 
d="M150 0v525h-150v70h150v105h75v-105h190v-70h-190v-115h185q100 0 160 -57t60 -148t-60 -148t-160 -57h-260zM225 70h185q71 0 108 35t37 100t-37 100t-108 35h-185v-270z" />
    <glyph glyph-name="uni048D" unicode="&#x48d;" horiz-adv-x="535" 
d="M125 0v415h-125v65h125v220h70v-220h155v-65h-155v-95h120q82 0 128.5 -43.5t46.5 -116.5t-46.5 -116.5t-127.5 -43.5h-191zM195 65h121q48 0 76 26.5t28 68.5q0 43 -28.5 69t-76.5 26h-120v-190z" />
    <glyph glyph-name="uni048E" unicode="&#x48e;" horiz-adv-x="650" 
d="M105 0v700h265q97 0 161 -63t64 -157q0 -61 -29 -113t-81 -79l55 -78l-60 -40l-65 94l-13 -2q-16 -2 -32 -2h-190v-260h-75zM180 330h188l-53 75l60 40l70 -100q75 42 75 135q0 68 -41 109t-109 41h-190v-300z" />
    <glyph glyph-name="uni048F" unicode="&#x48f;" horiz-adv-x="595" 
d="M80 -210v690h70v-70q17 23 41 40q54 40 124 40q99 0 167 -71t68 -179q0 -120 -85 -195l60 -85l-55 -35l-60 85q-9 -4 -29 -10q-38 -10 -66 -10q-70 0 -124 40q-24 17 -41 40v-280h-70zM371 65l-66 95l55 35l66 -94q54 54 54 139q0 81 -48 133t-117 52q-65 0 -115 -54
t-50 -131t50 -131t115 -54q23 0 41 5q8 1 15 5z" />
    <glyph glyph-name="uni0490" unicode="&#x490;" horiz-adv-x="550" 
d="M105 0v700h365v140h70v-210h-360v-630h-75z" />
    <glyph glyph-name="uni0491" unicode="&#x491;" horiz-adv-x="410" 
d="M80 0v480h254v120h66v-185h-250v-415h-70z" />
    <glyph glyph-name="uni0492" unicode="&#x492;" horiz-adv-x="575" 
d="M130 0v320h-100v70h100v310h425v-70h-350v-240h195v-70h-195v-320h-75z" />
    <glyph glyph-name="uni0493" unicode="&#x493;" horiz-adv-x="430" 
d="M100 0v200h-80v65h80v215h320v-65h-250v-150h140v-65h-140v-200h-70z" />
    <glyph glyph-name="uni0494" unicode="&#x494;" horiz-adv-x="665" 
d="M105 0v700h435v-70h-360v-285q28 17 49 25q65 25 131 25q113 0 179 -68t66 -187q0 -127 -71.5 -201t-188.5 -74v70q85 0 135 54t50 151q0 86 -47.5 135.5t-127.5 49.5q-71 0 -131 -33q-26 -14 -44 -32v-260h-75z" />
    <glyph glyph-name="uni0495" unicode="&#x495;" horiz-adv-x="490" 
d="M250 -210v65q64 0 102 44t38 131q0 81 -35.5 123t-94.5 42q-41 0 -81 -25q-16 -10 -29 -25v-145h-70v480h310v-65h-240v-190q13 10 29 17q38 18 86 18q84 0 139.5 -62t55.5 -168q0 -115 -57 -177.5t-153 -62.5z" />
    <glyph glyph-name="uni0496" unicode="&#x496;" horiz-adv-x="975" 
d="M10 0l290 410l-265 290h95l315 -344v344h75v-344l315 344h95l-265 -290l240 -340h85v-220h-75v150h-50l-250 355l-95 -100v-255h-75v255l-95 100l-250 -355h-90z" />
    <glyph glyph-name="uni0497" unicode="&#x497;" horiz-adv-x="750" 
d="M10 0l205 285l-185 195h85l215 -230v230h70v-230l215 230h85l-185 -195l158 -220h82v-185h-70v120h-45l-170 235l-70 -75v-160h-70v160l-70 75l-170 -235h-80z" />
    <glyph glyph-name="uni0498" unicode="&#x498;" horiz-adv-x="595" 
d="M245 -150v142q-87 9 -160 59q-35 25 -55 49l50 50q21 -26 51 -45q68 -45 149 -45q83 0 131.5 40t48.5 95q0 59 -48.5 99.5t-131.5 40.5h-80v70h80q72 0 113.5 33.5t41.5 81.5q0 51 -41.5 85.5t-113.5 34.5q-67 0 -129 -40q-29 -21 -46 -40l-50 50q24 27 58 50
q78 50 167 50q105 0 167.5 -53.5t62.5 -131.5q0 -77 -60 -123q-26 -22 -60 -32q39 -12 72 -35q73 -55 73 -140q0 -74 -60.5 -134t-154.5 -68v-143h-75z" />
    <glyph glyph-name="uni0499" unicode="&#x499;" horiz-adv-x="440" 
d="M180 -120v112q-62 5 -115 44q-25 20 -40 39l45 45q16 -20 36 -33q46 -32 99 -32q57 0 86 22t29 58t-29 58t-86 22h-55v65h55q43 0 69 22t26 53t-24 50.5t-71 19.5q-49 0 -88 -28q-19 -13 -32 -27l-50 50q15 16 44 35q60 35 126 35q72 0 118.5 -40.5t46.5 -94.5
q0 -77 -75 -105q3 0 12 -2.5t23.5 -10.5t27.5 -20t22.5 -33.5t9.5 -48.5q0 -51 -37.5 -92.5t-102.5 -49.5v-113h-70z" />
    <glyph glyph-name="uni049A" unicode="&#x49a;" horiz-adv-x="680" 
d="M105 0v700h75v-395l360 395h95l-265 -290l240 -340h85v-220h-75v150h-50l-250 355l-140 -150v-205h-75z" />
    <glyph glyph-name="uni049B" unicode="&#x49b;" horiz-adv-x="525" 
d="M80 0v480h70v-255l240 255h85l-185 -195l158 -220h82v-185h-70v120h-45l-170 235l-95 -100v-135h-70z" />
    <glyph glyph-name="uni049C" unicode="&#x49c;" horiz-adv-x="705" 
d="M105 0v700h75v-310h60v135h70v-135h50l210 310h90l-235 -345l260 -355h-90l-235 320h-50v-135h-70v135h-60v-320h-75z" />
    <glyph glyph-name="uni049D" unicode="&#x49d;" horiz-adv-x="540" 
d="M80 0v480h70v-210h50v105h60v-105h30l125 210h80l-140 -235l160 -245h-85l-137 210h-33v-100h-60v100h-50v-210h-70z" />
    <glyph glyph-name="uni049E" unicode="&#x49e;" horiz-adv-x="690" 
d="M135 0v530h-135v70h135v100h75v-100h125v-70h-125v-220l350 390h95l-260 -290l285 -410h-95l-244 351l-131 -146v-205h-75z" />
    <glyph glyph-name="uni049F" unicode="&#x49f;" horiz-adv-x="520" 
d="M95 0v545h-85v65h85v90h70v-90h140v-65h-140v-320l240 255h85l-185 -195l205 -285h-80l-170 235l-95 -100v-135h-70z" />
    <glyph glyph-name="uni04A0" unicode="&#x4a0;" horiz-adv-x="735" 
d="M180 0v630h-180v70h255v-390l350 390h95l-260 -290l285 -410h-95l-244 351l-131 -146v-205h-75z" />
    <glyph glyph-name="uni04A1" unicode="&#x4a1;" horiz-adv-x="525" 
d="M100 0v415h-100v65h170v-255l240 255h85l-185 -195l205 -285h-80l-170 235l-95 -100v-135h-70z" />
    <glyph glyph-name="uni04A2" unicode="&#x4a2;" horiz-adv-x="760" 
d="M105 0v700h75v-310h390v310h75v-630h85v-220h-75v150h-85v320h-390v-320h-75z" />
    <glyph glyph-name="uni04A3" unicode="&#x4a3;" 
d="M80 0v480h70v-205h275v205h70v-415h75v-185h-70v120h-75v210h-275v-210h-70z" />
    <glyph glyph-name="uni04A4" unicode="&#x4a4;" horiz-adv-x="975" 
d="M105 0v700h75v-310h370v310h415v-70h-340v-630h-75v320h-370v-320h-75z" />
    <glyph glyph-name="uni04A5" unicode="&#x4a5;" horiz-adv-x="725" 
d="M80 0v480h70v-205h260v205h305v-65h-235v-415h-70v210h-260v-210h-70z" />
    <glyph glyph-name="uni04A6" unicode="&#x4a6;" horiz-adv-x="1085" 
d="M105 0v700h530v-355q28 17 49 25q65 25 131 25q113 0 179 -68t66 -187q0 -127 -71.5 -201t-188.5 -74v70q85 0 135 54t50 151q0 86 -47.5 135.5t-127.5 49.5q-71 0 -131 -33q-25 -14 -44 -32v-260h-75v630h-380v-630h-75z" />
    <glyph glyph-name="uni04A7" unicode="&#x4a7;" horiz-adv-x="815" 
d="M80 0v480h405v-255q13 10 29 17q38 18 86 18q84 0 139.5 -62t55.5 -168q0 -115 -57 -177.5t-153 -62.5v65q64 0 102 44t38 131q0 81 -35.5 123t-94.5 42q-41 0 -81 -25q-16 -10 -29 -25v-145h-70v414h-265v-414h-70z" />
    <glyph glyph-name="uni04A8" unicode="&#x4a8;" horiz-adv-x="835" 
d="M620 60h40q52 0 90 17q18 7 30 18l30 -60q-12 -12 -34 -23q-48 -22 -116 -22q-50 0 -84 12q-14 3 -31 13q-20 -9 -37 -13q-39 -12 -93 -12q-144 0 -244.5 103.5t-100.5 256.5q0 155 90.5 253t219.5 107v-70q-100 -9 -167.5 -85t-67.5 -205q0 -127 78.5 -208.5
t196.5 -81.5h45q-42 31 -73 77q-72 104 -72 243q0 127 65.5 203.5t159.5 76.5t159.5 -76.5t65.5 -203.5q0 -138 -75 -243q-34 -48 -75 -77zM543 85q44 26 76 65q76 92 76 230q0 100 -43 155t-107 55t-107 -55t-43 -155q0 -136 74 -230q31 -38 74 -65z" />
    <glyph glyph-name="uni04A9" unicode="&#x4a9;" 
d="M290 50h15q-22 21 -40 52q-40 70 -40 158q0 85 42.5 135t107.5 50t107.5 -50t42.5 -135q0 -88 -40 -158q-18 -31 -40 -52h20q47 0 76 27q14 13 24 28l45 -45q-17 -22 -34 -35q-42 -35 -101 -35q-44 0 -76 10q-16 5 -24 10q-10 -6 -23 -10q-30 -10 -67 -10q-102 0 -171 72
t-69 183q0 101 59 168.5t141 76.5v-65q-53 -9 -91.5 -57t-38.5 -123q0 -85 50 -140t125 -55zM375 65q21 16 40 42q40 62 40 148q0 60 -23.5 92.5t-56.5 32.5t-56.5 -32.5t-23.5 -92.5q0 -86 40 -148q19 -26 40 -42z" />
    <glyph glyph-name="uni04AA" unicode="&#x4aa;" horiz-adv-x="750" 
d="M375 -150v143q-135 16 -225 117.5t-90 239.5q0 150 105 255t255 105q117 0 214 -73q42 -32 71 -72l-50 -45q-25 35 -58 60q-75 60 -177 60q-120 0 -202.5 -83.5t-82.5 -206.5t82.5 -206.5t202.5 -83.5q103 0 180 60q34 26 60 60l50 -45q-26 -36 -66 -67q-86 -68 -194 -77
v-141h-75z" />
    <glyph glyph-name="uni04AB" unicode="&#x4ab;" horiz-adv-x="515" 
d="M245 -120v114q-83 12 -141.5 82.5t-58.5 163.5q0 104 70.5 177t169.5 73q78 0 144 -48q27 -20 51 -47l-50 -50q-16 22 -37 40q-48 40 -108 40q-69 0 -119.5 -53.5t-50.5 -131.5t50.5 -131.5t119.5 -53.5q57 0 111 40q23 19 39 40l50 -45q-19 -23 -46 -44
q-57 -45 -124 -54v-112h-70z" />
    <glyph glyph-name="uni04AC" unicode="&#x4ac;" horiz-adv-x="555" 
d="M325 -150v150h-85v630h-220v70h515v-70h-220v-560h85v-220h-75z" />
    <glyph glyph-name="uni04AD" unicode="&#x4ad;" horiz-adv-x="450" 
d="M265 -120v120h-75v415h-170v65h410v-65h-170v-350h75v-185h-70z" />
    <glyph glyph-name="uni04AE" unicode="&#x4ae;" horiz-adv-x="635" 
d="M280 0v245l-260 455h85l210 -375h5l210 375h85l-260 -455v-245h-75z" />
    <glyph glyph-name="uni04AF" unicode="&#x4af;" horiz-adv-x="490" 
d="M210 -210v210l-195 480h75l155 -385l155 385h75l-195 -480v-210h-70z" />
    <glyph glyph-name="uni04B0" unicode="&#x4b0;" horiz-adv-x="635" 
d="M280 0v200h-160v70h155l-255 430h85l210 -360h5l210 360h85l-255 -430h155v-70h-160v-200h-75z" />
    <glyph glyph-name="uni04B1" unicode="&#x4b1;" horiz-adv-x="490" 
d="M210 -210v145h-110v65h110l-195 480h75l155 -385l155 385h75l-195 -480h110v-65h-110v-145h-70z" />
    <glyph glyph-name="uni04B2" unicode="&#x4b2;" horiz-adv-x="665" 
d="M20 0l260 365l-240 335h90l195 -275l195 275h90l-240 -335l210 -295h85v-220h-75v150h-50l-215 305l-215 -305h-90z" />
    <glyph glyph-name="uni04B3" unicode="&#x4b3;" horiz-adv-x="490" 
d="M15 0l180 250l-165 230h85l125 -175l125 175h85l-165 -230l133 -185h77v-185h-70v120h-45l-140 195l-140 -195h-85z" />
    <glyph glyph-name="uni04B4" unicode="&#x4b4;" horiz-adv-x="890" 
d="M240 0v630h-220v70h495v-70h-200v-560h380v630h75v-630h90v-220h-75v150h-545z" />
    <glyph glyph-name="uni04B5" unicode="&#x4b5;" horiz-adv-x="700" 
d="M190 0v415h-170v65h390v-65h-150v-350h265v415h70v-415h75v-185h-70v120h-410z" />
    <glyph glyph-name="uni04B6" unicode="&#x4b6;" horiz-adv-x="715" 
d="M610 -150v150h-85v305q-21 -15 -52 -30q-66 -30 -138 -30q-111 0 -175.5 65.5t-64.5 179.5v210h75v-210q0 -84 45.5 -129.5t129.5 -45.5q73 0 133 37q27 17 47 38v310h75v-630h85v-220h-75z" />
    <glyph glyph-name="uni04B7" unicode="&#x4b7;" horiz-adv-x="565" 
d="M465 -120v120h-75v195q-18 -11 -38 -20q-44 -20 -97 -20q-82 0 -133.5 51.5t-51.5 133.5v140h70v-140q0 -53 33.5 -86.5t86.5 -33.5q49 0 95 22q20 11 35 23v215h70v-415h75v-185h-70z" />
    <glyph glyph-name="uni04B8" unicode="&#x4b8;" horiz-adv-x="715" 
d="M320 140v105q-105 4 -165 70t-60 175v210h75v-210q0 -78 39 -122.5t111 -51.5v139h70v-136q56 10 106 44q21 14 39 32v305h75v-700h-75v310q-17 -14 -39 -24q-54 -28 -106 -36v-110h-70z" />
    <glyph glyph-name="uni04B9" unicode="&#x4b9;" horiz-adv-x="550" 
d="M245 80v75q-79 4 -127 55t-48 130v140h70v-140q0 -49 30 -82.5t75 -36.5v99h60v-95q39 7 68 26q17 10 27 19v210h70v-480h-70v200q-4 -4 -23 -14q-36 -18 -72 -26v-80h-60z" />
    <glyph glyph-name="uni04BA" unicode="&#x4ba;" horiz-adv-x="680" 
d="M105 0v700h75v-305q21 15 52 30q66 30 138 30q111 0 175.5 -65.5t64.5 -179.5v-210h-75v210q0 84 -45.5 129.5t-129.5 45.5q-71 0 -133 -38q-26 -16 -47 -37v-310h-75z" />
    <glyph glyph-name="uni04BB" unicode="&#x4bb;" horiz-adv-x="585" 
d="M85 0v700h70v-290q14 21 38 40q54 40 117 40q87 0 141 -56t54 -149v-285h-70v285q0 63 -36 101.5t-94 38.5q-65 0 -107.5 -44.5t-42.5 -115.5v-265h-70z" />
    <glyph glyph-name="uni04BC" unicode="&#x4bc;" horiz-adv-x="870" 
d="M-5 490h70v-20q0 -31 16.5 -45.5t53.5 -14.5h24q16 132 107 216t219 84q138 0 231.5 -102.5t93.5 -267.5h-580q0 -123 77.5 -201.5t197.5 -78.5q100 0 171 52q32 22 54 53l50 -45q-24 -36 -66 -65q-89 -65 -209 -65q-147 0 -246.5 99t-103.5 251h-15q-150 0 -150 115
q0 13 2 27zM236 410h493q-18 109 -84.5 169.5t-159.5 60.5q-96 0 -163.5 -60.5t-85.5 -169.5z" />
    <glyph glyph-name="uni04BD" unicode="&#x4bd;" horiz-adv-x="625" 
d="M126 215h-1q-130 0 -130 100q0 13 2 27l3 8h60v-15q0 -60 65 -60h2q14 94 77.5 154.5t150.5 60.5q95 0 160 -68t65 -172q0 -5 -3 -26l-2 -10l-380 1q4 -65 53.5 -112.5t116.5 -47.5q61 0 115 40q26 21 40 40l45 -45q-19 -26 -51 -50q-70 -50 -149 -50q-95 0 -164 68
t-75 157zM195 275h315q-8 64 -52 107t-103 43q-62 0 -106.5 -44t-53.5 -106z" />
    <glyph glyph-name="uni04BE" unicode="&#x4be;" horiz-adv-x="870" 
d="M455 -150v144q-129 16 -212.5 112t-87.5 234h-15q-150 0 -150 115q0 13 2 27l3 8h70v-20q0 -31 16.5 -45.5t53.5 -14.5h24q16 132 107 216t219 84q138 0 231.5 -102.5t93.5 -267.5h-580q0 -123 77.5 -201.5t197.5 -78.5q100 0 171 52q32 22 54 53l50 -45q-25 -34 -61 -61
q-83 -63 -189 -68v-141h-75zM236 410h493q-18 109 -84.5 169.5t-159.5 60.5q-96 0 -163.5 -60.5t-85.5 -169.5z" />
    <glyph glyph-name="uni04BF" unicode="&#x4bf;" horiz-adv-x="625" 
d="M320 -120v115q-77 14 -132.5 78t-61.5 142h-1q-130 0 -130 100q0 13 2 27l3 8h60v-15q0 -60 65 -60h2q14 94 77.5 154.5t150.5 60.5q95 0 160 -68t65 -172q0 -5 -3 -26l-2 -10l-380 1q4 -65 53.5 -112.5t116.5 -47.5q61 0 115 40q26 21 40 40l45 -45q-18 -24 -44 -44
q-58 -46 -131 -55v-111h-70zM195 275h315q-8 64 -52 107t-103 43q-62 0 -106.5 -44t-53.5 -106z" />
    <glyph glyph-name="uni04C0" unicode="&#x4c0;" horiz-adv-x="285" 
d="M105 0v700h75v-700h-75z" />
    <glyph glyph-name="uni04C1" unicode="&#x4c1;" horiz-adv-x="965" 
d="M10 0l290 410l-265 290h95l315 -344v344h75v-344l315 344h95l-265 -290l290 -410h-90l-250 355l-95 -100v-255h-75v255l-95 100l-250 -355h-90zM345 930h55q0 -34 23 -57t57 -23t57 23t23 57h55q0 -60 -37.5 -97.5t-97.5 -37.5t-97.5 37.5t-37.5 97.5z" />
    <glyph glyph-name="uni04C2" unicode="&#x4c2;" horiz-adv-x="730" 
d="M10 0l205 285l-185 195h85l215 -230v230h70v-230l215 230h85l-185 -195l205 -285h-80l-170 235l-70 -75v-160h-70v160l-70 75l-170 -235h-80zM230 700h55q0 -85 80 -85t80 85h55q0 -60 -37.5 -97.5t-97.5 -37.5t-97.5 37.5t-37.5 97.5z" />
    <glyph glyph-name="uni04C3" unicode="&#x4c3;" horiz-adv-x="705" 
d="M105 0v700h75v-390l340 390h95l-275 -310l19 7q24 8 56 8q108 0 171.5 -73.5t63.5 -211.5q0 -156 -73.5 -243t-186.5 -87v70q80 0 132.5 67.5t52.5 192.5q0 105 -45.5 160t-119.5 55q-62 0 -109.5 -23.5t-98.5 -81.5l-22 -25v-205h-75z" />
    <glyph glyph-name="uni04C4" unicode="&#x4c4;" horiz-adv-x="520" 
d="M280 -210v65q130 0 130 175q0 89 -35 132t-95 43q-48 0 -95 -33q-20 -14 -35 -32v-140h-70v480h70v-250l225 250h85l-200 -220l11 2q21 3 29 3q79 0 129.5 -60t50.5 -175q0 -117 -54 -178.5t-146 -61.5z" />
    <glyph glyph-name="uni04C5" unicode="&#x4c5;" horiz-adv-x="740" 
d="M-5 0v75q9 -4 18 -5q20 -5 37 -5q31 0 52.5 15t40.5 58t28 130.5t9 221.5v210h450v-630h110v-10l-115 -210h-50l50 150h-70v630h-300v-140q0 -155 -13 -256.5t-40 -153.5t-60 -71t-82 -19q-24 0 -46 5q-10 1 -19 5z" />
    <glyph glyph-name="uni04C6" unicode="&#x4c6;" horiz-adv-x="575" 
d="M0 0v70q6 -4 12 -5q13 -5 28 -5q31 0 48.5 18t29.5 81.5t12 180.5v140h350v-415h95v-10l-95 -175h-45l40 120h-65v415h-210v-75q0 -106 -10.5 -176.5t-31.5 -107.5t-46.5 -51.5t-61.5 -14.5q-18 0 -35 5q-5 1 -15 5z" />
    <glyph glyph-name="uni04C7" unicode="&#x4c7;" horiz-adv-x="750" 
d="M105 0v700h75v-310h390v310h75v-765q0 -145 -125 -145q-31 0 -54 7l-21 8v65q4 -2 17 -8q18 -7 48 -7q60 0 60 80v385h-390v-320h-75z" />
    <glyph glyph-name="uni04C8" unicode="&#x4c8;" horiz-adv-x="575" 
d="M80 0v480h70v-205h275v205h70v-550q0 -140 -130 -140q-24 0 -43 7q-13 5 -17 8v65l16 -8q15 -7 39 -7q65 0 65 75v280h-275v-210h-70z" />
    <glyph glyph-name="uni04C9" unicode="&#x4c9;" horiz-adv-x="755" 
d="M105 0v700h75v-310h390v310h75v-630h110v-10l-115 -210h-50l50 150h-70v320h-390v-320h-75z" />
    <glyph glyph-name="uni04CA" unicode="&#x4ca;" horiz-adv-x="590" 
d="M80 0v480h70v-205h275v205h70v-415h95v-10l-95 -175h-45l40 120h-65v210h-275v-210h-70z" />
    <glyph glyph-name="uni04CB" unicode="&#x4cb;" horiz-adv-x="705" 
d="M440 -150v220h85v235q-21 -15 -52 -30q-66 -30 -138 -30q-111 0 -175.5 65.5t-64.5 179.5v210h75v-210q0 -84 45.5 -129.5t129.5 -45.5q73 0 133 37q27 17 47 38v310h75v-700h-85v-150h-75z" />
    <glyph glyph-name="uni04CC" unicode="&#x4cc;" horiz-adv-x="540" 
d="M315 -120v185h75v130q-18 -11 -38 -20q-44 -20 -97 -20q-82 0 -133.5 51.5t-51.5 133.5v140h70v-140q0 -53 33.5 -86.5t86.5 -33.5q49 0 95 22q20 11 35 23v215h70v-480h-75v-120h-70z" />
    <glyph glyph-name="uni04CD" unicode="&#x4cd;" horiz-adv-x="925" 
d="M105 0v700h65l290 -380l290 380h65v-630h110v-10l-115 -210h-50l50 150h-70v570l-280 -370l-280 370v-570h-75z" />
    <glyph glyph-name="uni04CE" unicode="&#x4ce;" horiz-adv-x="665" 
d="M80 0v480h55l190 -240l190 240h55v-415h95v-10l-95 -175h-45l40 120h-65v355l-175 -220l-175 220v-355h-70z" />
    <glyph glyph-name="uni04CF" unicode="&#x4cf;" horiz-adv-x="240" 
d="M85 0v700h70v-700h-70z" />
    <glyph glyph-name="uni04D0" unicode="&#x4d0;" horiz-adv-x="690" 
d="M210 930h55q0 -34 23 -57t57 -23t57 23t23 57h55q0 -60 -37.5 -97.5t-97.5 -37.5t-97.5 37.5t-37.5 97.5zM20 0l290 700h70l290 -700h-80l-80 195h-330l-80 -195h-80zM210 265h270l-135 330z" />
    <glyph glyph-name="uni04D1" unicode="&#x4d1;" horiz-adv-x="520" 
d="M370 0v65q-15 -21 -38 -38q-53 -37 -117 -37q-73 0 -121.5 42.5t-48.5 97.5q0 122 140 145l185 30q0 53 -33.5 86.5t-86.5 33.5q-52 0 -99 -35q-22 -19 -36 -35l-45 45q19 25 47 45q61 45 133 45q82 0 136 -53t54 -132v-305h-70zM370 215v30l-165 -30q-90 -16 -90 -85
q0 -32 26.5 -53.5t73.5 -21.5q69 0 112 44t43 116zM130 700h55q0 -85 80 -85t80 85h55q0 -60 -37.5 -97.5t-97.5 -37.5t-97.5 37.5t-37.5 97.5z" />
    <glyph glyph-name="uni04D2" unicode="&#x4d2;" horiz-adv-x="690" 
d="M205 855q0 19 13 32t32 13t32 -13t13 -32t-13 -32t-32 -13t-32 13t-13 32zM395 855q0 19 13 32t32 13t32 -13t13 -32t-13 -32t-32 -13t-32 13t-13 32zM20 0l290 700h70l290 -700h-80l-80 195h-330l-80 -195h-80zM210 265h270l-135 330z" />
    <glyph glyph-name="uni04D3" unicode="&#x4d3;" horiz-adv-x="520" 
d="M125 630q0 19 13 32t32 13t32 -13t13 -32t-13 -32t-32 -13t-32 13t-13 32zM315 630q0 19 13 32t32 13t32 -13t13 -32t-13 -32t-32 -13t-32 13t-13 32zM370 0v65q-15 -21 -38 -38q-53 -37 -117 -37q-73 0 -121.5 42.5t-48.5 97.5q0 122 140 145l185 30q0 53 -33.5 86.5
t-86.5 33.5q-52 0 -99 -35q-22 -19 -36 -35l-45 45q19 25 47 45q61 45 133 45q82 0 136 -53t54 -132v-305h-70zM370 215v30l-165 -30q-90 -16 -90 -85q0 -32 26.5 -53.5t73.5 -21.5q69 0 112 44t43 116z" />
    <glyph glyph-name="uni04D6" unicode="&#x4d6;" horiz-adv-x="640" 
d="M210 930h55q0 -34 23 -57t57 -23t57 23t23 57h55q0 -60 -37.5 -97.5t-97.5 -37.5t-97.5 37.5t-37.5 97.5zM105 0v700h480v-70h-405v-230h325v-70h-325v-260h415v-70h-490z" />
    <glyph glyph-name="uni04D7" unicode="&#x4d7;" horiz-adv-x="555" 
d="M440 135l45 -45q-19 -26 -51 -50q-70 -50 -149 -50q-99 0 -169.5 73t-70.5 177t70 177t165 73q99 0 164.5 -68t65.5 -172q0 -5 -3 -26l-2 -10l-390 1q4 -65 53.5 -112.5t116.5 -47.5q61 0 115 40q26 21 40 40zM115 275h325q-8 65 -52.5 107.5t-107.5 42.5t-110 -44
t-55 -106zM145 700h55q0 -85 80 -85t80 85h55q0 -60 -37.5 -97.5t-97.5 -37.5t-97.5 37.5t-37.5 97.5z" />
    <glyph glyph-name="uni04D8" unicode="&#x4d8;" horiz-adv-x="785" 
d="M60 350h590q0 130 -76 210t-194 80q-97 0 -171 -50q-34 -24 -54 -50l-50 45q31 37 68 62q96 63 207 63q148 0 246.5 -101.5t98.5 -258.5q0 -159 -94.5 -259.5t-235.5 -100.5q-144 0 -239.5 100.5t-95.5 259.5zM644 280h-503q18 -103 86.5 -161.5t167.5 -58.5
q95 0 163 58.5t86 161.5z" />
    <glyph glyph-name="uni04D9" unicode="&#x4d9;" horiz-adv-x="555" 
d="M45 240v16l395 -1q-4 69 -53.5 119.5t-116.5 50.5q-63 0 -113 -38q-20 -14 -37 -37l-50 40q19 26 51 50q70 50 149 50q99 0 169.5 -73t70.5 -177q0 -103 -69 -176.5t-161 -73.5q-103 0 -169 69.5t-66 180.5zM435 195h-315q8 -64 52 -102t108 -38q57 0 102 40t53 100z" />
    <glyph glyph-name="uni04DA" unicode="&#x4da;" horiz-adv-x="785" 
d="M60 350h590q0 130 -76 210t-194 80q-97 0 -171 -50q-34 -24 -54 -50l-50 45q31 37 68 62q96 63 207 63q148 0 246.5 -101.5t98.5 -258.5q0 -159 -94.5 -259.5t-235.5 -100.5q-144 0 -239.5 100.5t-95.5 259.5zM644 280h-503q18 -103 86.5 -161.5t167.5 -58.5
q95 0 163 58.5t86 161.5zM260 855q0 19 13 32t32 13t32 -13t13 -32t-13 -32t-32 -13t-32 13t-13 32zM450 855q0 19 13 32t32 13t32 -13t13 -32t-13 -32t-32 -13t-32 13t-13 32z" />
    <glyph glyph-name="uni04DB" unicode="&#x4db;" horiz-adv-x="555" 
d="M45 240v16l395 -1q-4 69 -53.5 119.5t-116.5 50.5q-63 0 -113 -38q-20 -14 -37 -37l-50 40q19 26 51 50q70 50 149 50q99 0 169.5 -73t70.5 -177q0 -103 -69 -176.5t-161 -73.5q-103 0 -169 69.5t-66 180.5zM435 195h-315q8 -64 52 -102t108 -38q57 0 102 40t53 100z
M140 630q0 19 13 32t32 13t32 -13t13 -32t-13 -32t-32 -13t-32 13t-13 32zM330 630q0 19 13 32t32 13t32 -13t13 -32t-13 -32t-32 -13t-32 13t-13 32z" />
    <glyph glyph-name="uni04DC" unicode="&#x4dc;" horiz-adv-x="965" 
d="M10 0l290 410l-265 290h95l315 -344v344h75v-344l315 344h95l-265 -290l290 -410h-90l-250 355l-95 -100v-255h-75v255l-95 100l-250 -355h-90zM340 855q0 19 13 32t32 13t32 -13t13 -32t-13 -32t-32 -13t-32 13t-13 32zM530 855q0 19 13 32t32 13t32 -13t13 -32t-13 -32
t-32 -13t-32 13t-13 32z" />
    <glyph glyph-name="uni04DD" unicode="&#x4dd;" horiz-adv-x="730" 
d="M10 0l205 285l-185 195h85l215 -230v230h70v-230l215 230h85l-185 -195l205 -285h-80l-170 235l-70 -75v-160h-70v160l-70 75l-170 -235h-80zM225 630q0 19 13 32t32 13t32 -13t13 -32t-13 -32t-32 -13t-32 13t-13 32zM415 630q0 19 13 32t32 13t32 -13t13 -32t-13 -32
t-32 -13t-32 13t-13 32z" />
    <glyph glyph-name="uni04DE" unicode="&#x4de;" horiz-adv-x="595" 
d="M30 100l50 50q21 -26 51 -45q68 -45 149 -45q83 0 131.5 40t48.5 95q0 59 -48.5 99.5t-131.5 40.5h-80v70h80q72 0 113.5 33.5t41.5 81.5q0 51 -41.5 85.5t-113.5 34.5q-67 0 -129 -40q-29 -21 -46 -40l-50 50q24 27 58 50q78 50 167 50q105 0 167.5 -53.5t62.5 -131.5
q0 -77 -60 -123q-26 -22 -60 -32q39 -12 72 -35q73 -55 73 -140q0 -82 -71.5 -143.5t-183.5 -61.5q-103 0 -187 55q-38 25 -63 55zM145 855q0 19 13 32t32 13t32 -13t13 -32t-13 -32t-32 -13t-32 13t-13 32zM335 855q0 19 13 32t32 13t32 -13t13 -32t-13 -32t-32 -13t-32 13
t-13 32z" />
    <glyph glyph-name="uni04DF" unicode="&#x4df;" horiz-adv-x="440" 
d="M25 75l45 45q16 -20 36 -33q46 -32 99 -32q57 0 86 22t29 58t-29 58t-86 22h-55v65h55q43 0 69 22t26 53t-24 50.5t-71 19.5q-49 0 -88 -28q-19 -13 -32 -27l-50 50q15 16 44 35q60 35 126 35q72 0 118.5 -40.5t46.5 -94.5q0 -55 -38 -85q-17 -14 -37 -20q25 -6 47 -20
q48 -32 48 -95q0 -60 -48.5 -102.5t-136.5 -42.5q-73 0 -135 42q-26 19 -45 43zM70 630q0 19 13 32t32 13t32 -13t13 -32t-13 -32t-32 -13t-32 13t-13 32zM260 630q0 19 13 32t32 13t32 -13t13 -32t-13 -32t-32 -13t-32 13t-13 32z" />
    <glyph glyph-name="uni04E0" unicode="&#x4e0;" horiz-adv-x="590" 
d="M35 100l50 50q21 -26 51 -45q68 -45 149 -45q84 0 132 41.5t48 103.5q0 63 -50 104t-140 41h-120v50l260 230h-345v70h440v-70l-240 -210h5q120 0 192.5 -62.5t72.5 -152.5q0 -89 -71 -152t-184 -63q-103 0 -187 55q-38 25 -63 55z" />
    <glyph glyph-name="uni04E1" unicode="&#x4e1;" horiz-adv-x="490" 
d="M20 -125l50 50q16 -19 40 -35q50 -35 115 -35q72 0 113.5 38t41.5 102t-42.5 99.5t-117.5 35.5h-95v50l210 235h-290v65h375v-65l-200 -220h5q103 0 164 -53.5t61 -146.5q0 -94 -61.5 -149.5t-163.5 -55.5q-83 0 -153 42q-30 18 -52 43z" />
    <glyph glyph-name="uni04E2" unicode="&#x4e2;" horiz-adv-x="780" 
d="M105 0v700h75v-565l430 565h65v-700h-75v565l-430 -565h-65zM245 830v55h290v-55h-290z" />
    <glyph glyph-name="uni04E3" unicode="&#x4e3;" horiz-adv-x="580" 
d="M80 0v480h70v-360l290 360h60v-480h-70v360l-290 -360h-60zM145 610v55h290v-55h-290z" />
    <glyph glyph-name="uni04E4" unicode="&#x4e4;" horiz-adv-x="780" 
d="M105 0v700h75v-565l430 565h65v-700h-75v565l-430 -565h-65zM250 855q0 19 13 32t32 13t32 -13t13 -32t-13 -32t-32 -13t-32 13t-13 32zM440 855q0 19 13 32t32 13t32 -13t13 -32t-13 -32t-32 -13t-32 13t-13 32z" />
    <glyph glyph-name="uni04E5" unicode="&#x4e5;" horiz-adv-x="580" 
d="M80 0v480h70v-360l290 360h60v-480h-70v360l-290 -360h-60zM150 630q0 19 13 32t32 13t32 -13t13 -32t-13 -32t-32 -13t-32 13t-13 32zM340 630q0 19 13 32t32 13t32 -13t13 -32t-13 -32t-32 -13t-32 13t-13 32z" />
    <glyph glyph-name="uni04E6" unicode="&#x4e6;" horiz-adv-x="840" 
d="M280 855q0 19 13 32t32 13t32 -13t13 -32t-13 -32t-32 -13t-32 13t-13 32zM470 855q0 19 13 32t32 13t32 -13t13 -32t-13 -32t-32 -13t-32 13t-13 32zM60 350q0 150 105 255t255 105t255 -105t105 -255t-105 -255t-255 -105t-255 105t-105 255zM420 60q120 0 202.5 83.5
t82.5 206.5t-82.5 206.5t-202.5 83.5t-202.5 -83.5t-82.5 -206.5t82.5 -206.5t202.5 -83.5z" />
    <glyph glyph-name="uni04E7" unicode="&#x4e7;" horiz-adv-x="580" 
d="M150 630q0 19 13 32t32 13t32 -13t13 -32t-13 -32t-32 -13t-32 13t-13 32zM340 630q0 19 13 32t32 13t32 -13t13 -32t-13 -32t-32 -13t-32 13t-13 32zM290 -10q-102 0 -173.5 72.5t-71.5 177.5t71.5 177.5t173.5 72.5t173.5 -72.5t71.5 -177.5t-71.5 -177.5t-173.5 -72.5
zM290 55q72 0 123.5 53.5t51.5 131.5t-51.5 131.5t-123.5 53.5t-123.5 -53.5t-51.5 -131.5q0 -77 51.5 -131t123.5 -54z" />
    <glyph glyph-name="uni04E8" unicode="&#x4e8;" horiz-adv-x="840" 
d="M60 350q0 150 105 255t255 105t255 -105t105 -255t-105 -255t-255 -105t-255 105t-105 255zM705 320h-570q12 -113 92.5 -186.5t192.5 -73.5t192.5 73.5t92.5 186.5zM136 390h567q-14 109 -94 179.5t-189 70.5q-108 0 -189 -71t-95 -179z" />
    <glyph glyph-name="uni04E9" unicode="&#x4e9;" horiz-adv-x="580" 
d="M290 -10q-102 0 -173.5 72.5t-71.5 177.5t71.5 177.5t173.5 72.5t173.5 -72.5t71.5 -177.5t-71.5 -177.5t-173.5 -72.5zM463 210h-346q10 -68 59.5 -111.5t113.5 -43.5t113.5 43.5t59.5 111.5zM118 275h344q-10 62 -57.5 106t-114.5 44q-66 0 -115 -44t-57 -106z" />
    <glyph glyph-name="uni04EA" unicode="&#x4ea;" horiz-adv-x="840" 
d="M60 350q0 150 105 255t255 105t255 -105t105 -255t-105 -255t-255 -105t-255 105t-105 255zM705 320h-570q12 -113 92.5 -186.5t192.5 -73.5t192.5 73.5t92.5 186.5zM136 390h567q-14 109 -94 179.5t-189 70.5q-108 0 -189 -71t-95 -179zM280 855q0 19 13 32t32 13
t32 -13t13 -32t-13 -32t-32 -13t-32 13t-13 32zM470 855q0 19 13 32t32 13t32 -13t13 -32t-13 -32t-32 -13t-32 13t-13 32z" />
    <glyph glyph-name="uni04EB" unicode="&#x4eb;" horiz-adv-x="580" 
d="M290 -10q-102 0 -173.5 72.5t-71.5 177.5t71.5 177.5t173.5 72.5t173.5 -72.5t71.5 -177.5t-71.5 -177.5t-173.5 -72.5zM463 210h-346q10 -68 59.5 -111.5t113.5 -43.5t113.5 43.5t59.5 111.5zM118 275h344q-10 62 -57.5 106t-114.5 44q-66 0 -115 -44t-57 -106zM150 630
q0 19 13 32t32 13t32 -13t13 -32t-13 -32t-32 -13t-32 13t-13 32zM340 630q0 19 13 32t32 13t32 -13t13 -32t-13 -32t-32 -13t-32 13t-13 32z" />
    <glyph glyph-name="uni04EC" unicode="&#x4ec;" horiz-adv-x="745" 
d="M35 135l50 45q25 -34 60 -60q77 -60 180 -60q114 0 193.5 74.5t91.5 185.5h-370v70h370q-16 108 -93.5 179t-191.5 71q-102 0 -177 -60q-33 -25 -58 -60l-50 45q28 40 71 72q95 73 214 73q150 0 255 -105t105 -255t-105 -255t-255 -105q-118 0 -216 72q-39 29 -74 73z
M220 855q0 19 13 32t32 13t32 -13t13 -32t-13 -32t-32 -13t-32 13t-13 32zM410 855q0 19 13 32t32 13t32 -13t13 -32t-13 -32t-32 -13t-32 13t-13 32z" />
    <glyph glyph-name="uni04ED" unicode="&#x4ed;" horiz-adv-x="510" 
d="M25 90l50 45q16 -21 39 -40q54 -40 111 -40q63 0 112.5 47.5t57.5 112.5h-240v65h235q-9 58 -56 101.5t-109 43.5q-60 0 -108 -40q-21 -18 -37 -40l-50 50q24 27 51 47q66 48 144 48q99 0 169.5 -73t70.5 -177t-70.5 -177t-169.5 -73q-77 0 -147 50q-33 25 -53 50z
M105 630q0 19 13 32t32 13t32 -13t13 -32t-13 -32t-32 -13t-32 13t-13 32zM295 630q0 19 13 32t32 13t32 -13t13 -32t-13 -32t-32 -13t-32 13t-13 32z" />
    <glyph glyph-name="uni04EE" unicode="&#x4ee;" horiz-adv-x="610" 
d="M65 0v70q10 -4 17 -5q20 -5 43 -5q46 0 74 22t56 73l30 55q-29 55 -82.5 154.5t-96.5 181t-81 154.5h80l220 -410l190 410h80l-260 -545q-44 -90 -88.5 -127.5t-116.5 -37.5q-24 0 -46 5q-10 1 -19 5zM170 830v55h290v-55h-290z" />
    <glyph glyph-name="uni04EF" unicode="&#x4ef;" horiz-adv-x="490" 
d="M100 610v55h290v-55h-290zM45 -200v65q9 -4 16 -5q17 -5 34 -5q62 0 90 75l25 70l-195 480h75l155 -390l155 390h75l-220 -550q-30 -76 -64.5 -108t-85.5 -32q-23 0 -43 5q-7 1 -17 5z" />
    <glyph glyph-name="uni04F0" unicode="&#x4f0;" horiz-adv-x="610" 
d="M65 0v70q10 -4 17 -5q20 -5 43 -5q46 0 74 22t56 73l30 55q-29 55 -82.5 154.5t-96.5 181t-81 154.5h80l220 -410l190 410h80l-260 -545q-44 -90 -88.5 -127.5t-116.5 -37.5q-24 0 -46 5q-10 1 -19 5zM175 855q0 19 13 32t32 13t32 -13t13 -32t-13 -32t-32 -13t-32 13
t-13 32zM365 855q0 19 13 32t32 13t32 -13t13 -32t-13 -32t-32 -13t-32 13t-13 32z" />
    <glyph glyph-name="uni04F1" unicode="&#x4f1;" horiz-adv-x="490" 
d="M105 630q0 19 13 32t32 13t32 -13t13 -32t-13 -32t-32 -13t-32 13t-13 32zM295 630q0 19 13 32t32 13t32 -13t13 -32t-13 -32t-32 -13t-32 13t-13 32zM45 -200v65q9 -4 16 -5q17 -5 34 -5q62 0 90 75l25 70l-195 480h75l155 -390l155 390h75l-220 -550
q-30 -76 -64.5 -108t-85.5 -32q-23 0 -43 5q-7 1 -17 5z" />
    <glyph glyph-name="uni04F2" unicode="&#x4f2;" horiz-adv-x="610" 
d="M65 0v70q10 -4 17 -5q20 -5 43 -5q46 0 74 22t56 73l30 55q-29 55 -82.5 154.5t-96.5 181t-81 154.5h80l220 -410l190 410h80l-260 -545q-44 -90 -88.5 -127.5t-116.5 -37.5q-24 0 -46 5q-10 1 -19 5zM200 795l75 135h75l-96 -135h-54zM355 795l74 135h76l-95 -135h-55z
" />
    <glyph glyph-name="uni04F3" unicode="&#x4f3;" horiz-adv-x="490" 
d="M140 565l75 135h75l-96 -135h-54zM295 565l74 135h76l-95 -135h-55zM45 -200v65q9 -4 16 -5q17 -5 34 -5q62 0 90 75l25 70l-195 480h75l155 -390l155 390h75l-220 -550q-30 -76 -64.5 -108t-85.5 -32q-23 0 -43 5q-7 1 -17 5z" />
    <glyph glyph-name="uni04F4" unicode="&#x4f4;" horiz-adv-x="705" 
d="M525 0v305q-21 -15 -52 -30q-66 -30 -138 -30q-111 0 -175.5 65.5t-64.5 179.5v210h75v-210q0 -84 45.5 -129.5t129.5 -45.5q73 0 133 37q27 17 47 38v310h75v-700h-75zM210 855q0 19 13 32t32 13t32 -13t13 -32t-13 -32t-32 -13t-32 13t-13 32zM400 855q0 19 13 32
t32 13t32 -13t13 -32t-13 -32t-32 -13t-32 13t-13 32z" />
    <glyph glyph-name="uni04F5" unicode="&#x4f5;" horiz-adv-x="540" 
d="M390 0v195q-18 -11 -38 -20q-44 -20 -97 -20q-82 0 -133.5 51.5t-51.5 133.5v140h70v-140q0 -53 33.5 -86.5t86.5 -33.5q49 0 95 22q20 11 35 23v215h70v-480h-70zM125 630q0 19 13 32t32 13t32 -13t13 -32t-13 -32t-32 -13t-32 13t-13 32zM315 630q0 19 13 32t32 13
t32 -13t13 -32t-13 -32t-32 -13t-32 13t-13 32z" />
    <glyph glyph-name="uni04F6" unicode="&#x4f6;" horiz-adv-x="550" 
d="M190 -150v150h-85v700h435v-70h-360v-560h85v-220h-75z" />
    <glyph glyph-name="uni04F7" unicode="&#x4f7;" horiz-adv-x="410" 
d="M155 -120v120h-75v480h320v-65h-250v-350h75v-185h-70z" />
    <glyph glyph-name="uni04F8" unicode="&#x4f8;" horiz-adv-x="885" 
d="M105 0v700h75v-260h180q97 0 161 -63t64 -157t-64 -157t-161 -63h-255zM705 0v700h75v-700h-75zM180 70h180q68 0 109 41t41 109t-41 109t-109 41h-180v-300zM300 855q0 19 13 32t32 13t32 -13t13 -32t-13 -32t-32 -13t-32 13t-13 32zM490 855q0 19 13 32t32 13t32 -13
t13 -32t-13 -32t-32 -13t-32 13t-13 32z" />
    <glyph glyph-name="uni04F9" unicode="&#x4f9;" horiz-adv-x="685" 
d="M80 0v480h70v-160h120q82 0 128.5 -43.5t46.5 -116.5t-46.5 -116.5t-127.5 -43.5h-191zM535 0v480h70v-480h-70zM150 65h121q48 0 76 26.5t28 68.5q0 43 -28.5 69t-76.5 26h-120v-190zM200 630q0 19 13 32t32 13t32 -13t13 -32t-13 -32t-32 -13t-32 13t-13 32zM390 630
q0 19 13 32t32 13t32 -13t13 -32t-13 -32t-32 -13t-32 13t-13 32z" />
    <glyph glyph-name="uni04FA" unicode="&#x4fa;" horiz-adv-x="575" 
d="M150 -200v60l7 -3q10 -2 18 -2q40 0 40 50v95h-85v320h-100v70h100v310h425v-70h-350v-240h195v-70h-195v-250h85v-165q0 -56 -24.5 -85.5t-70.5 -29.5q-21 0 -34 5q-5 1 -11 5z" />
    <glyph glyph-name="uni04FB" unicode="&#x4fb;" horiz-adv-x="430" 
d="M110 -200v55l7 -3q10 -2 18 -2q40 0 40 50v100h-75v200h-80v65h80v215h320v-65h-250v-150h140v-65h-140v-135h75v-160q0 -115 -90 -115q-21 0 -34 5q-5 1 -11 5z" />
    <glyph glyph-name="uni04FC" unicode="&#x4fc;" horiz-adv-x="655" 
d="M20 0l260 365l-240 335h90l195 -275l195 275h90l-240 -335l200 -280q75 -107 75 -165q0 -60 -34 -95t-91 -35q-31 0 -54 7l-21 8v65q4 -2 17 -8q18 -7 48 -7q28 0 44 16t16 44q0 43 -65 135l-180 255l-215 -305h-90z" />
    <glyph glyph-name="uni04FD" unicode="&#x4fd;" horiz-adv-x="485" 
d="M15 0l180 250l-165 230h85l125 -175l125 175h85l-165 -230l137 -190q58 -80 58 -140t-35 -95t-95 -35q-24 0 -43 7q-13 5 -17 8v65l16 -8q15 -7 39 -7q30 0 47.5 17.5t17.5 47.5q0 26 -10.5 45.5t-55.5 84.5l-104 145l-140 -195h-85z" />
    <glyph glyph-name="uni04FE" unicode="&#x4fe;" horiz-adv-x="650" 
d="M20 0l235 330h-145v70h145l-215 300h90l195 -280l195 280h90l-215 -300h145v-70h-145l235 -330h-90l-215 310l-215 -310h-90z" />
    <glyph glyph-name="uni04FF" unicode="&#x4ff;" horiz-adv-x="480" 
d="M15 0l160 220h-90v60h90l-145 200h85l125 -175l125 175h85l-145 -200h90v-60h-90l160 -220h-85l-140 195l-140 -195h-85z" />
    <glyph glyph-name="uni0510" unicode="&#x510;" horiz-adv-x="590" 
d="M510 145l50 -50q-25 -31 -57 -53q-75 -52 -173 -52q-119 0 -189.5 59.5t-70.5 145.5t72 140q32 23 73 35q-34 10 -60 32q-60 46 -60 123q0 78 62.5 131.5t167.5 53.5q78 0 146 -33q26 -12 49 -32l-50 -55q-20 17 -37 25q-50 25 -108 25q-72 0 -113.5 -33.5t-41.5 -81.5
q0 -51 41.5 -85.5t113.5 -34.5h75v-70h-75q-83 0 -131.5 -40.5t-48.5 -99.5t48 -97t137 -38q73 0 135 42q26 19 45 43z" />
    <glyph glyph-name="uni0511" unicode="&#x511;" horiz-adv-x="435" 
d="M370 110l45 -45q-16 -21 -43 -38q-56 -37 -132 -37q-92 0 -141 42t-49 103q0 64 47 95q22 14 48 20q-21 7 -38 23q-37 33 -37 87t44.5 92t120.5 38q66 0 116 -25q18 -9 34 -25l-45 -50q-10 10 -24 17q-34 18 -81 18t-71 -19.5t-24 -50.5t26 -53t69 -22h55v-65h-55
q-57 0 -86 -22t-29 -58t29.5 -58t90.5 -22q56 0 97 27q20 13 33 28z" />
    <glyph glyph-name="uni0512" unicode="&#x512;" horiz-adv-x="735" 
d="M-5 0v75q9 -4 18 -5q20 -5 37 -5q31 0 52.5 15t40.5 58t28 130.5t9 221.5v210h450v-765q0 -145 -125 -145q-31 0 -54 7l-21 8v65q4 -2 17 -8q18 -7 48 -7q60 0 60 80v695h-300v-140q0 -155 -13 -256.5t-40 -153.5t-60 -71t-82 -19q-24 0 -46 5q-10 1 -19 5z" />
    <glyph glyph-name="uni0513" unicode="&#x513;" horiz-adv-x="560" 
d="M0 0v70q6 -4 12 -5q13 -5 28 -5q31 0 48.5 18t29.5 81.5t12 180.5v140h350v-550q0 -140 -130 -140q-24 0 -43 7q-13 5 -17 8v65l16 -8q15 -7 39 -7q65 0 65 75v485h-210v-75q0 -106 -10.5 -176.5t-31.5 -107.5t-46.5 -51.5t-61.5 -14.5q-18 0 -35 5q-5 1 -15 5z" />
    <glyph glyph-name="Wgrave" unicode="&#x1e80;" horiz-adv-x="1040" 
d="M260 0l-230 700h80l185 -585l190 585h70l190 -585l185 585h80l-230 -700h-75l-185 585l-185 -585h-75zM490 795l-95 135h75l75 -135h-55z" />
    <glyph glyph-name="wgrave" unicode="&#x1e81;" horiz-adv-x="730" 
d="M180 0l-165 480h75l125 -370l120 370h60l120 -370l125 370h75l-165 -480h-65l-120 365l-120 -365h-65zM335 565l-95 135h75l75 -135h-55z" />
    <glyph glyph-name="Wacute" unicode="&#x1e82;" horiz-adv-x="1040" 
d="M260 0l-230 700h80l185 -585l190 585h70l190 -585l185 585h80l-230 -700h-75l-185 585l-185 -585h-75zM495 795l75 135h75l-95 -135h-55z" />
    <glyph glyph-name="wacute" unicode="&#x1e83;" horiz-adv-x="730" 
d="M180 0l-165 480h75l125 -370l120 370h60l120 -370l125 370h75l-165 -480h-65l-120 365l-120 -365h-65zM335 565l75 135h75l-95 -135h-55z" />
    <glyph glyph-name="Wdieresis" unicode="&#x1e84;" horiz-adv-x="1040" 
d="M260 0l-230 700h80l185 -585l190 585h70l190 -585l185 585h80l-230 -700h-75l-185 585l-185 -585h-75zM380 855q0 19 13 32t32 13t32 -13t13 -32t-13 -32t-32 -13t-32 13t-13 32zM570 855q0 19 13 32t32 13t32 -13t13 -32t-13 -32t-32 -13t-32 13t-13 32z" />
    <glyph glyph-name="wdieresis" unicode="&#x1e85;" horiz-adv-x="730" 
d="M180 0l-165 480h75l125 -370l120 370h60l120 -370l125 370h75l-165 -480h-65l-120 365l-120 -365h-65zM225 630q0 19 13 32t32 13t32 -13t13 -32t-13 -32t-32 -13t-32 13t-13 32zM415 630q0 19 13 32t32 13t32 -13t13 -32t-13 -32t-32 -13t-32 13t-13 32z" />
    <glyph glyph-name="uni1E9E" unicode="&#x1e9e;" horiz-adv-x="720" 
d="M105 0v486q0 93 60.5 153.5t154.5 60.5h285v-70l-180 -210h5q100 0 165 -61t65 -149t-65 -149t-165 -61h-90v70h90q70 0 112.5 39.5t42.5 100.5t-42.5 100.5t-112.5 39.5h-90v70l180 210h-200q-64 0 -102 -39t-38 -105v-486h-75z" />
    <glyph glyph-name="Ygrave" unicode="&#x1ef2;" horiz-adv-x="635" 
d="M280 0v245l-260 455h85l210 -375h5l210 375h85l-260 -455v-245h-75zM295 795l-95 135h75l75 -135h-55z" />
    <glyph glyph-name="ygrave" unicode="&#x1ef3;" horiz-adv-x="490" 
d="M45 -200v65q9 -4 16 -5q17 -5 34 -5q62 0 90 75l25 70l-195 480h75l155 -390l155 390h75l-220 -550q-30 -76 -64.5 -108t-85.5 -32q-23 0 -43 5q-7 1 -17 5zM215 565l-95 135h75l75 -135h-55z" />
    <glyph glyph-name="endash" unicode="&#x2013;" horiz-adv-x="480" 
d="M45 260v65h390v-65h-390z" />
    <glyph glyph-name="emdash" unicode="&#x2014;" horiz-adv-x="720" 
d="M45 260v65h630v-65h-630z" />
    <glyph glyph-name="quoteleft" unicode="&#x2018;" horiz-adv-x="210" 
d="M25 540l115 180l45 -25l-90 -195z" />
    <glyph glyph-name="quoteright" unicode="&#x2019;" horiz-adv-x="210" 
d="M25 525l90 195l70 -40l-115 -180z" />
    <glyph glyph-name="quotesinglbase" unicode="&#x201a;" horiz-adv-x="220" 
d="M0 -105l90 195l70 -40l-115 -180z" />
    <glyph glyph-name="quotedblleft" unicode="&#x201c;" horiz-adv-x="365" 
d="M25 540l115 180l45 -25l-90 -195zM180 540l115 180l45 -25l-90 -195z" />
    <glyph glyph-name="quotedblright" unicode="&#x201d;" horiz-adv-x="365" 
d="M25 525l90 195l70 -40l-115 -180zM180 525l90 195l70 -40l-115 -180z" />
    <glyph glyph-name="quotedblbase" unicode="&#x201e;" horiz-adv-x="375" 
d="M0 -105l90 195l70 -40l-115 -180zM155 -105l90 195l70 -40l-115 -180z" />
    <glyph glyph-name="dagger" unicode="&#x2020;" horiz-adv-x="420" 
d="M180 200v310h-120v55h120v135h60v-135h120v-55h-120v-310h-60z" />
    <glyph glyph-name="daggerdbl" unicode="&#x2021;" horiz-adv-x="420" 
d="M180 200v135h-120v55h120v120h-120v55h120v135h60v-135h120v-55h-120v-120h120v-55h-120v-135h-60z" />
    <glyph glyph-name="bullet" unicode="&#x2022;" horiz-adv-x="430" 
d="M120 240q0 38 29 66.5t66 28.5t66 -28.5t29 -66.5t-29 -66.5t-66 -28.5t-66 28.5t-29 66.5z" />
    <glyph glyph-name="ellipsis" unicode="&#x2026;" horiz-adv-x="670" 
d="M60 40q0 23 13.5 36.5t36.5 13.5t36.5 -13.5t13.5 -36.5t-13.5 -36.5t-36.5 -13.5t-36.5 13.5t-13.5 36.5zM285 40q0 23 13.5 36.5t36.5 13.5t36.5 -13.5t13.5 -36.5t-13.5 -36.5t-36.5 -13.5t-36.5 13.5t-13.5 36.5zM510 40q0 23 13.5 36.5t36.5 13.5t36.5 -13.5
t13.5 -36.5t-13.5 -36.5t-36.5 -13.5t-36.5 13.5t-13.5 36.5z" />
    <glyph glyph-name="perthousand" unicode="&#x2030;" horiz-adv-x="1120" 
d="M40 555q0 63 46 109t109 46t109 -46t46 -109t-46 -109t-109 -46t-109 46t-46 109zM125 0l440 700h70l-440 -700h-70zM195 460q39 0 64.5 26.5t25.5 68.5t-25.5 68.5t-64.5 26.5t-64.5 -26.5t-25.5 -68.5t25.5 -68.5t64.5 -26.5zM410 145q0 63 46 109t109 46t109 -46
t46 -109t-46 -109t-109 -46t-109 46t-46 109zM770 145q0 63 46 109t109 46t109 -46t46 -109t-46 -109t-109 -46t-109 46t-46 109zM565 50q39 0 64.5 26.5t25.5 68.5t-25.5 68.5t-64.5 26.5t-64.5 -26.5t-25.5 -68.5t25.5 -68.5t64.5 -26.5zM925 50q39 0 64.5 26.5t25.5 68.5
t-25.5 68.5t-64.5 26.5t-64.5 -26.5t-25.5 -68.5t25.5 -68.5t64.5 -26.5z" />
    <glyph glyph-name="guilsinglleft" unicode="&#x2039;" horiz-adv-x="280" 
d="M160 75l-115 165l115 165h75l-115 -165l115 -165h-75z" />
    <glyph glyph-name="guilsinglright" unicode="&#x203a;" horiz-adv-x="280" 
d="M45 75l115 165l-115 165h75l115 -165l-115 -165h-75z" />
    <glyph glyph-name="uni203D" unicode="&#x203d;" horiz-adv-x="525" 
d="M215 170v465q-59 -14 -89 -60q-14 -21 -21 -45l-65 20q14 46 42 80q64 80 178 80q96 0 158 -56.5t62 -133.5q0 -44 -14.5 -78.5t-36 -54.5t-47 -41t-47 -39t-36 -48.5t-14.5 -68.5v-20h-70zM285 640v-290q12 14 49.5 46t54 58.5t16.5 65.5q0 46 -32 79t-88 41zM200 40
q0 23 13.5 36.5t36.5 13.5t36.5 -13.5t13.5 -36.5t-13.5 -36.5t-36.5 -13.5t-36.5 13.5t-13.5 36.5z" />
    <glyph glyph-name="fraction" unicode="&#x2044;" horiz-adv-x="175" 
d="M-160 0l430 700h65l-430 -700h-65z" />
    <glyph glyph-name="uni2070" unicode="&#x2070;" horiz-adv-x="350" 
d="M175 445q-62 0 -103.5 48t-41.5 132t41.5 132t103.5 48t103.5 -48t41.5 -132t-41.5 -132t-103.5 -48zM175 495q36 0 63 35t27 95t-27 95t-63 35t-63 -35t-27 -95t27 -95t63 -35z" />
    <glyph glyph-name="uni2074" unicode="&#x2074;" horiz-adv-x="300" 
d="M10 530v50l155 220h65v-220h40v-50h-40v-80h-55v80h-165zM65 580h110v155z" />
    <glyph glyph-name="uni2075" unicode="&#x2075;" horiz-adv-x="290" 
d="M10 500l35 35q10 -10 25 -20q29 -20 70 -20q37 0 56 16.5t19 43.5q0 30 -18.5 47.5t-51.5 17.5q-27 0 -49 -10q-10 -4 -16 -10h-45l20 200h195v-50h-150l-10 -95l17 7q22 8 43 8q53 0 86.5 -33t33.5 -82q0 -46 -36 -78t-94 -32q-61 0 -99 27q-18 12 -31 28z" />
    <glyph glyph-name="uni2076" unicode="&#x2076;" horiz-adv-x="300" 
d="M45 645l105 155h60l-75 -115h15q55 0 92.5 -35.5t37.5 -84.5t-37.5 -84.5t-92.5 -35.5t-92.5 35.5t-37.5 84.5q0 31 12 57q4 10 13 23zM75 566q0 -31 21 -51t54 -20t54 20t21 50t-21 50t-54 20t-54 -19.5t-21 -49.5z" />
    <glyph glyph-name="uni2077" unicode="&#x2077;" horiz-adv-x="265" 
d="M65 450l135 300h-180v50h235v-50l-135 -300h-55z" />
    <glyph glyph-name="uni2078" unicode="&#x2078;" horiz-adv-x="280" 
d="M15 550q0 41 32 67q13 11 33 18q-14 6 -25 17q-25 23 -25 58q0 39 31 67t79 28t79 -28t31 -67q0 -33 -25 -58q-11 -11 -25 -17q19 -8 32 -18q33 -27 33 -67q0 -43 -35 -74t-90 -31t-90 31t-35 74zM85 710q0 -50 55 -50t55 50q0 19 -15 32t-40 13t-40 -13t-15 -32zM70 550
q0 -24 18.5 -39.5t51.5 -15.5t51.5 15.5t18.5 39.5q0 25 -19 42.5t-51 17.5t-51 -17.5t-19 -42.5z" />
    <glyph glyph-name="uni2079" unicode="&#x2079;" horiz-adv-x="300" 
d="M90 450l75 115h-15q-55 0 -92.5 35.5t-37.5 84.5t37.5 84.5t92.5 35.5t92.5 -35.5t37.5 -84.5q0 -29 -13 -57q-5 -13 -12 -23l-105 -155h-60zM75 685q0 -30 21 -50t54 -20t54 19.5t21 49.5q0 31 -21 51t-54 20t-54 -20t-21 -50z" />
    <glyph glyph-name="uni2080" unicode="&#x2080;" horiz-adv-x="350" 
d="M175 -105q-62 0 -103.5 48t-41.5 132t41.5 132t103.5 48t103.5 -48t41.5 -132t-41.5 -132t-103.5 -48zM175 -55q36 0 63 35t27 95t-27 95t-63 35t-63 -35t-27 -95t27 -95t63 -35z" />
    <glyph glyph-name="uni2081" unicode="&#x2081;" horiz-adv-x="220" 
d="M95 -100v265h-65v40q38 0 60 22q11 11 15 23h45v-350h-55z" />
    <glyph glyph-name="uni2082" unicode="&#x2082;" horiz-adv-x="300" 
d="M95 -50h170v-50h-235q0 42 18.5 75.5t45 55t53 39.5t45 38t18.5 42q0 23 -17 39t-43 16q-33 0 -54 -28q-10 -11 -16 -27l-45 15q8 27 22 45q33 45 93 45q52 0 83.5 -29.5t31.5 -75.5q0 -37 -22 -66t-49.5 -45t-57 -39.5t-41.5 -49.5z" />
    <glyph glyph-name="uni2083" unicode="&#x2083;" horiz-adv-x="310" 
d="M25 -45l35 40q11 -14 25 -25q31 -25 70 -25q65 0 65 55q0 27 -18.5 43.5t-51.5 16.5h-40v50h40q26 0 40.5 13.5t14.5 36.5q0 20 -15.5 32.5t-44.5 12.5q-31 0 -55 -22q-14 -14 -19 -22l-36 37q12 16 28 28q37 29 82 29q52 0 83.5 -27.5t31.5 -67.5t-20 -60
q-9 -10 -20 -15q13 -4 27 -16q28 -24 28 -69q0 -46 -32 -75.5t-88 -29.5q-57 0 -99 30q-17 13 -31 30z" />
    <glyph glyph-name="uni2084" unicode="&#x2084;" horiz-adv-x="300" 
d="M10 -20v50l155 220h65v-220h40v-50h-40v-80h-55v80h-165zM65 30h110v155z" />
    <glyph glyph-name="uni2085" unicode="&#x2085;" horiz-adv-x="290" 
d="M10 -50l35 35q10 -10 25 -20q29 -20 70 -20q37 0 56 16.5t19 43.5q0 30 -18.5 47.5t-51.5 17.5q-27 0 -49 -10q-10 -5 -16 -10h-45l20 200h195v-50h-150l-10 -95l17 7q22 8 43 8q53 0 86.5 -33t33.5 -82q0 -46 -36 -78t-94 -32q-61 0 -99 27q-18 12 -31 28z" />
    <glyph glyph-name="uni2086" unicode="&#x2086;" horiz-adv-x="300" 
d="M45 95l105 155h60l-75 -115h15q55 0 92.5 -35.5t37.5 -84.5t-37.5 -84.5t-92.5 -35.5t-92.5 35.5t-37.5 84.5q0 31 12 57q4 10 13 23zM75 16q0 -31 21 -51t54 -20t54 20t21 50t-21 50t-54 20t-54 -19.5t-21 -49.5z" />
    <glyph glyph-name="uni2087" unicode="&#x2087;" horiz-adv-x="265" 
d="M65 -100l135 300h-180v50h235v-50l-135 -300h-55z" />
    <glyph glyph-name="uni2088" unicode="&#x2088;" horiz-adv-x="280" 
d="M15 0q0 41 32 67q13 11 33 18q-14 6 -25 17q-25 23 -25 58q0 39 31 67t79 28t79 -28t31 -67q0 -33 -25 -58q-11 -11 -25 -17q19 -8 32 -18q33 -27 33 -67q0 -43 -35 -74t-90 -31t-90 31t-35 74zM85 160q0 -50 55 -50t55 50q0 19 -15 32t-40 13t-40 -13t-15 -32zM70 0
q0 -24 18.5 -39.5t51.5 -15.5t51.5 15.5t18.5 39.5q0 25 -19 42.5t-51 17.5t-51 -17.5t-19 -42.5z" />
    <glyph glyph-name="uni2089" unicode="&#x2089;" horiz-adv-x="300" 
d="M90 -100l75 115h-15q-55 0 -92.5 35.5t-37.5 84.5t37.5 84.5t92.5 35.5t92.5 -35.5t37.5 -84.5q0 -29 -13 -57q-5 -13 -12 -23l-105 -155h-60zM75 135q0 -30 21 -50t54 -20t54 19.5t21 49.5q0 31 -21 51t-54 20t-54 -20t-21 -50z" />
    <glyph glyph-name="uni20A9" unicode="&#x20a9;" horiz-adv-x="990" 
d="M45 235v60h147l-32 105h-115v60h97l-72 240h80l70 -240h178l62 240h70l62 -240h178l70 240h80l-72 -240h97v-60h-115l-32 -105h147v-60h-165l-70 -235h-70l-60 235h-170l-60 -235h-70l-70 235h-165zM268 295h88l27 105h-146zM634 295h88l31 105h-146zM425 295h140
l-28 105h-84zM676 130l29 105h-56zM314 130l27 105h-56zM468 460h54l-27 105z" />
    <glyph glyph-name="Euro" unicode="&#x20ac;" horiz-adv-x="740" 
d="M40 235v65h88l-2 16q-1 9 -1 34t1 34l2 16h-88v65h100q32 101 119 173t201 72q94 0 175 -55q36 -26 60 -55l-50 -50q-21 26 -48 45q-63 45 -137 45q-84 0 -154 -56.5t-86 -118.5h230v-65h-247l-2 -16q-1 -9 -1 -34t1 -34l2 -16h247v-65h-230q16 -62 86 -118.5t154 -56.5
q74 0 139 45q29 19 51 45l50 -50q-24 -30 -62 -55q-81 -55 -178 -55q-114 0 -201 72t-119 173h-100z" />
    <glyph glyph-name="uni20B4" unicode="&#x20b4;" horiz-adv-x="635" 
d="M65 395v70h370l7 14q8 18 8 41q0 50 -40.5 85t-109.5 35q-61 0 -117 -35q-25 -19 -38 -35l-50 50q22 26 52 45q68 45 153 45q101 0 163 -55.5t62 -134.5q0 -26 -5 -41l-5 -14h55v-70h-505zM65 235v70h505v-70h-370q-2 -2 -4.5 -7l-3.5 -7q-7 -15 -7 -41q0 -50 40.5 -85
t109.5 -35q66 0 116 35q22 14 39 35l50 -50q-23 -26 -52 -45q-68 -45 -153 -45q-101 0 -163 55.5t-62 134.5q0 24 5 41q1 7 5 14h-55z" />
    <glyph glyph-name="uni20B8" unicode="&#x20b8;" horiz-adv-x="575" 
d="M250 0v460h-210v70h495v-70h-210v-460h-75zM40 630v70h495v-70h-495z" />
    <glyph glyph-name="uni20B9" unicode="&#x20b9;" horiz-adv-x="605" 
d="M80 300v70h155q131 0 150 95h-305v70h305q-9 44 -46.5 69.5t-103.5 25.5h-155v70h185h290v-70h-160q15 -7 29 -21q29 -29 38 -74h93v-70h-93q-10 -73 -68 -119t-159 -46h-40l370 -300h-115z" />
    <glyph glyph-name="uni20BA" unicode="&#x20ba;" horiz-adv-x="565" 
d="M130 -10v276l-80 -26v65l80 26v90l-80 -26v65l80 26v214h75v-190l185 60v-65l-185 -60v-90l185 60v-65l-185 -60v-225q130 11 190 52t60 98q0 19 -5 32q-5 12 -5 13l60 35q4 -7 10 -23q10 -30 10 -57q0 -95 -93.5 -156t-301.5 -69z" />
    <glyph glyph-name="uni20BD" unicode="&#x20bd;" horiz-adv-x="670" 
d="M130 0v125h-80v70h80v85h-80v70h80v350h260q97 0 158.5 -59.5t61.5 -150.5t-61.5 -150.5t-158.5 -59.5h-185v-85h245v-70h-245v-125h-75zM205 350h185q63 0 104 40t41 100t-41 100t-104 40h-185v-280z" />
    <glyph glyph-name="uni20BF" unicode="&#x20bf;" horiz-adv-x="650" 
d="M205 -120v120h-100v700h100v120h65v-120h70v120h65v-125q69 -15 109.5 -61.5t40.5 -113.5q0 -68 -40 -114q-20 -22 -40 -31q31 -15 57 -39q58 -56 58 -136q0 -79 -49.5 -133.5t-135.5 -62.5v-124h-65v120h-70v-120h-65zM180 70h195q63 0 101.5 36t38.5 94t-39 99t-101 41
h-195v-270zM180 406h180q57 0 88.5 30.5t31.5 83.5q0 50 -32 80t-88 30h-180v-224z" />
    <glyph glyph-name="uni2113" unicode="&#x2113;" horiz-adv-x="365" 
d="M10 215v65q38 0 66 7q3 1 8 2.5t9 3t7 2.5v275q0 67 32.5 103.5t87.5 36.5q58 0 91.5 -38.5t33.5 -111.5q0 -103 -47 -182.5t-128 -122.5v-125q0 -75 70 -75q20 0 39 7l16 8v-65l-5 -2.5t-7 -3t-7 -2.5q-21 -7 -46 -7q-61 0 -95.5 36.5t-34.5 103.5v100q-4 -2 -13 -4.5
t-13 -3.5q-28 -7 -64 -7zM170 563v-233q105 73 105 230q0 43 -15 64t-40 21q-50 0 -50 -82z" />
    <glyph glyph-name="uni2116" unicode="&#x2116;" horiz-adv-x="1125" 
d="M105 0v700h65l425 -565v565h75v-700h-65l-425 565v-565h-75zM770 325q0 63 46 109t109 46t109 -46t46 -109t-46 -109t-109 -46t-109 46t-46 109zM925 230q39 0 64.5 26.5t25.5 68.5t-25.5 68.5t-64.5 26.5t-64.5 -26.5t-25.5 -68.5t25.5 -68.5t64.5 -26.5zM780 0v65h290
v-65h-290z" />
    <glyph glyph-name="uni2117" unicode="&#x2117;" horiz-adv-x="880" 
d="M75 350q0 150 106 255t259 105t259 -105t106 -255t-106 -255t-259 -105t-259 105t-106 255zM140 350q0 -128 86 -214t214 -86t214 86t86 214t-86 214t-214 86t-214 -86t-86 -214zM325 165v370h135q68 0 104 -35t36 -90q0 -59 -35 -92t-105 -33h-75v-120h-60zM385 340h75
q75 0 75 70t-75 70h-75v-140z" />
    <glyph glyph-name="trademark" unicode="&#x2122;" horiz-adv-x="665" 
d="M100 400v250h-90v50h235v-50h-90v-250h-55zM300 400v300h50l105 -140l105 140h50v-300h-55v200l-100 -130l-100 130v-200h-55z" />
    <glyph glyph-name="uni2126" unicode="&#x2126;" horiz-adv-x="880" 
d="M125 0v70h135q-67 42 -113.5 121t-46.5 174q0 146 99 245.5t241 99.5t241 -99.5t99 -245.5q0 -95 -47.5 -174.5t-112.5 -120.5h135v-70h-245v70q55 26 97 65q98 92 98 230q0 119 -76 197t-189 78t-189 -78t-76 -197q0 -139 97 -230q42 -39 98 -65v-70h-245z" />
    <glyph glyph-name="estimated" unicode="&#x212e;" horiz-adv-x="870" 
d="M225 380h420v215q-88 80 -210 80t-210 -80v-215zM225 345v-238q25 -24 57 -41q72 -41 163 -41q119 0 209 75q42 34 71 75l30 -25q-37 -48 -80 -80q-106 -80 -230 -80q-157 0 -263.5 104.5t-106.5 255.5q0 150 105 255t255 105t255 -105t105 -255v-5h-570z" />
    <glyph glyph-name="uni2150" unicode="&#x2150;" horiz-adv-x="685" 
d="M65 0l430 700h65l-430 -700h-65zM105 350v265h-65v40q38 0 60 22q11 11 15 23h45v-350h-55zM465 0l135 300h-180v50h235v-50l-135 -300h-55z" />
    <glyph glyph-name="uni2151" unicode="&#x2151;" horiz-adv-x="705" 
d="M65 0l430 700h65l-430 -700h-65zM105 350v265h-65v40q38 0 60 22q11 11 15 23h45v-350h-55zM485 0l75 115h-15q-55 0 -92.5 35.5t-37.5 84.5t37.5 84.5t92.5 35.5t92.5 -35.5t37.5 -84.5q0 -29 -13 -57q-5 -13 -12 -23l-105 -155h-60zM470 235q0 -30 21 -50t54 -20
t54 19.5t21 49.5q0 31 -21 51t-54 20t-54 -20t-21 -50z" />
    <glyph glyph-name="uni2152" unicode="&#x2152;" horiz-adv-x="935" 
d="M65 0l430 700h65l-430 -700h-65zM105 350v265h-65v40q38 0 60 22q11 11 15 23h45v-350h-55zM475 0v265h-65v40q38 0 60 22q11 11 15 23h45v-350h-55zM750 -5q-62 0 -103.5 48t-41.5 132t41.5 132t103.5 48t103.5 -48t41.5 -132t-41.5 -132t-103.5 -48zM750 45q36 0 63 35
t27 95t-27 95t-63 35t-63 -35t-27 -95t27 -95t63 -35z" />
    <glyph glyph-name="onethird" unicode="&#x2153;" horiz-adv-x="685" 
d="M65 0l430 700h65l-430 -700h-65zM105 350v265h-65v40q38 0 60 22q11 11 15 23h45v-350h-55zM395 55l35 40q11 -14 25 -25q31 -25 70 -25q65 0 65 55q0 27 -18.5 43.5t-51.5 16.5h-40v50h40q26 0 40.5 13.5t14.5 36.5q0 20 -15.5 32.5t-44.5 12.5q-31 0 -55 -22
q-14 -14 -19 -22l-36 37q12 16 28 28q37 29 82 29q52 0 83.5 -27.5t31.5 -67.5t-20 -60q-9 -10 -20 -15q13 -4 27 -16q28 -24 28 -69q0 -46 -32 -75.5t-88 -29.5q-57 0 -99 30q-17 13 -31 30z" />
    <glyph glyph-name="twothirds" unicode="&#x2154;" horiz-adv-x="760" 
d="M140 0l430 700h65l-430 -700h-65zM105 400h170v-50h-235q0 42 18.5 75.5t45 55t53 39.5t45 38t18.5 42q0 23 -17 39t-43 16q-33 0 -54 -28q-10 -11 -16 -27l-45 15q8 27 22 45q33 45 93 45q52 0 83.5 -29.5t31.5 -75.5q0 -37 -22 -66t-49.5 -45t-57 -39.5t-41.5 -49.5z
M470 55l35 40q11 -14 25 -25q31 -25 70 -25q65 0 65 55q0 27 -18.5 43.5t-51.5 16.5h-40v50h40q26 0 40.5 13.5t14.5 36.5q0 20 -15.5 32.5t-44.5 12.5q-31 0 -55 -22q-14 -14 -19 -22l-36 37q12 16 28 28q37 29 82 29q52 0 83.5 -27.5t31.5 -67.5t-20 -60q-9 -10 -20 -15
q13 -4 27 -16q28 -24 28 -69q0 -46 -32 -75.5t-88 -29.5q-57 0 -99 30q-17 13 -31 30z" />
    <glyph glyph-name="uni2155" unicode="&#x2155;" horiz-adv-x="690" 
d="M65 0l430 700h65l-430 -700h-65zM105 350v265h-65v40q38 0 60 22q11 11 15 23h45v-350h-55zM395 50l35 35q10 -10 25 -20q29 -20 70 -20q37 0 56 16.5t19 43.5q0 30 -18.5 47.5t-51.5 17.5q-27 0 -49 -10q-10 -4 -16 -10h-45l20 200h195v-50h-150l-10 -95l17 7q22 8 43 8
q53 0 86.5 -33t33.5 -82q0 -46 -36 -78t-94 -32q-61 0 -99 27q-18 12 -31 28z" />
    <glyph glyph-name="uni2156" unicode="&#x2156;" horiz-adv-x="765" 
d="M140 0l430 700h65l-430 -700h-65zM105 400h170v-50h-235q0 42 18.5 75.5t45 55t53 39.5t45 38t18.5 42q0 23 -17 39t-43 16q-33 0 -54 -28q-10 -11 -16 -27l-45 15q8 27 22 45q33 45 93 45q52 0 83.5 -29.5t31.5 -75.5q0 -37 -22 -66t-49.5 -45t-57 -39.5t-41.5 -49.5z
M470 50l35 35q10 -10 25 -20q29 -20 70 -20q37 0 56 16.5t19 43.5q0 30 -18.5 47.5t-51.5 17.5q-27 0 -49 -10q-10 -4 -16 -10h-45l20 200h195v-50h-150l-10 -95l17 7q22 8 43 8q53 0 86.5 -33t33.5 -82q0 -46 -36 -78t-94 -32q-61 0 -99 27q-18 12 -31 28z" />
    <glyph glyph-name="uni2157" unicode="&#x2157;" horiz-adv-x="755" 
d="M130 0l430 700h65l-430 -700h-65zM30 405l35 40q11 -14 25 -25q31 -25 70 -25q65 0 65 55q0 27 -18.5 43.5t-51.5 16.5h-40v50h40q26 0 40.5 13.5t14.5 36.5q0 20 -15.5 32.5t-44.5 12.5q-31 0 -55 -22q-14 -14 -19 -22l-36 37q12 16 28 28q37 29 82 29q52 0 83.5 -27.5
t31.5 -67.5t-20 -60q-9 -10 -20 -15q13 -4 27 -16q28 -24 28 -69q0 -46 -32 -75.5t-88 -29.5q-57 0 -99 30q-17 13 -31 30zM460 50l35 35q10 -10 25 -20q29 -20 70 -20q37 0 56 16.5t19 43.5q0 30 -18.5 47.5t-51.5 17.5q-27 0 -49 -10q-10 -4 -16 -10h-45l20 200h195v-50
h-150l-10 -95l17 7q22 8 43 8q53 0 86.5 -33t33.5 -82q0 -46 -36 -78t-94 -32q-61 0 -99 27q-18 12 -31 28z" />
    <glyph glyph-name="uni2158" unicode="&#x2158;" horiz-adv-x="780" 
d="M155 0l430 700h65l-430 -700h-65zM30 430v50l155 220h65v-220h40v-50h-40v-80h-55v80h-165zM85 480h110v155zM485 50l35 35q10 -10 25 -20q29 -20 70 -20q37 0 56 16.5t19 43.5q0 30 -18.5 47.5t-51.5 17.5q-27 0 -49 -10q-10 -4 -16 -10h-45l20 200h195v-50h-150
l-10 -95l17 7q22 8 43 8q53 0 86.5 -33t33.5 -82q0 -46 -36 -78t-94 -32q-61 0 -99 27q-18 12 -31 28z" />
    <glyph glyph-name="uni2159" unicode="&#x2159;" horiz-adv-x="665" 
d="M65 0l430 700h65l-430 -700h-65zM105 350v265h-65v40q38 0 60 22q11 11 15 23h45v-350h-55zM400 195l105 155h60l-75 -115h15q55 0 92.5 -35.5t37.5 -84.5t-37.5 -84.5t-92.5 -35.5t-92.5 35.5t-37.5 84.5q0 31 12 57q4 10 13 23zM430 116q0 -31 21 -51t54 -20t54 20
t21 50t-21 50t-54 20t-54 -19.5t-21 -49.5z" />
    <glyph glyph-name="uni215A" unicode="&#x215a;" horiz-adv-x="735" 
d="M135 0l430 700h65l-430 -700h-65zM30 400l35 35q10 -10 25 -20q29 -20 70 -20q37 0 56 16.5t19 43.5q0 30 -18.5 47.5t-51.5 17.5q-27 0 -49 -10q-11 -5 -16 -10h-45l20 200h195v-50h-150l-10 -95l17 7q22 8 43 8q53 0 86.5 -33t33.5 -82q0 -46 -36 -78t-94 -32
q-61 0 -99 27q-18 12 -31 28zM470 195l105 155h60l-75 -115h15q55 0 92.5 -35.5t37.5 -84.5t-37.5 -84.5t-92.5 -35.5t-92.5 35.5t-37.5 84.5q0 31 12 57q4 10 13 23zM500 116q0 -31 21 -51t54 -20t54 20t21 50t-21 50t-54 20t-54 -19.5t-21 -49.5z" />
    <glyph glyph-name="oneeighth" unicode="&#x215b;" horiz-adv-x="695" 
d="M65 0l430 700h65l-430 -700h-65zM105 350v265h-65v40q38 0 60 22q11 11 15 23h45v-350h-55zM405 100q0 41 32 67q13 11 33 18q-14 6 -25 17q-25 23 -25 58q0 39 31 67t79 28t79 -28t31 -67q0 -33 -25 -58q-11 -11 -25 -17q19 -8 32 -18q33 -27 33 -67q0 -43 -35 -74
t-90 -31t-90 31t-35 74zM475 260q0 -50 55 -50t55 50q0 19 -15 32t-40 13t-40 -13t-15 -32zM460 100q0 -24 18.5 -39.5t51.5 -15.5t51.5 15.5t18.5 39.5q0 25 -19 42.5t-51 17.5t-51 -17.5t-19 -42.5z" />
    <glyph glyph-name="threeeighths" unicode="&#x215c;" horiz-adv-x="755" 
d="M130 0l430 700h65l-430 -700h-65zM30 405l35 40q11 -14 25 -25q31 -25 70 -25q65 0 65 55q0 27 -18.5 43.5t-51.5 16.5h-40v50h40q26 0 40.5 13.5t14.5 36.5q0 20 -15.5 32.5t-44.5 12.5q-31 0 -55 -22q-14 -14 -19 -22l-36 37q12 16 28 28q37 29 82 29q52 0 83.5 -27.5
t31.5 -67.5t-20 -60q-9 -10 -20 -15q13 -4 27 -16q28 -24 28 -69q0 -46 -32 -75.5t-88 -29.5q-57 0 -99 30q-17 13 -31 30zM465 100q0 41 32 67q13 11 33 18q-14 6 -25 17q-25 23 -25 58q0 39 31 67t79 28t79 -28t31 -67q0 -33 -25 -58q-11 -11 -25 -17q19 -8 32 -18
q33 -27 33 -67q0 -43 -35 -74t-90 -31t-90 31t-35 74zM535 260q0 -50 55 -50t55 50q0 19 -15 32t-40 13t-40 -13t-15 -32zM520 100q0 -24 18.5 -39.5t51.5 -15.5t51.5 15.5t18.5 39.5q0 25 -19 42.5t-51 17.5t-51 -17.5t-19 -42.5z" />
    <glyph glyph-name="fiveeighths" unicode="&#x215d;" horiz-adv-x="760" 
d="M135 0l430 700h65l-430 -700h-65zM30 400l35 35q10 -10 25 -20q29 -20 70 -20q37 0 56 16.5t19 43.5q0 30 -18.5 47.5t-51.5 17.5q-27 0 -49 -10q-11 -5 -16 -10h-45l20 200h195v-50h-150l-10 -95l17 7q22 8 43 8q53 0 86.5 -33t33.5 -82q0 -46 -36 -78t-94 -32
q-61 0 -99 27q-18 12 -31 28zM470 100q0 41 32 67q14 11 33 18q-14 6 -25 17q-25 23 -25 58q0 39 31 67t79 28t79 -28t31 -67q0 -33 -25 -58q-11 -11 -25 -17q19 -8 32 -18q33 -27 33 -67q0 -43 -35 -74t-90 -31t-90 31t-35 74zM540 260q0 -50 55 -50t55 50q0 19 -15 32
t-40 13t-40 -13t-15 -32zM525 100q0 -24 18.5 -39.5t51.5 -15.5t51.5 15.5t18.5 39.5q0 25 -19 42.5t-51 17.5t-51 -17.5t-19 -42.5z" />
    <glyph glyph-name="seveneighths" unicode="&#x215e;" horiz-adv-x="700" 
d="M75 0l430 700h65l-430 -700h-65zM85 350l135 300h-180v50h235v-50l-135 -300h-55zM410 100q0 41 32 67q14 11 33 18q-14 6 -25 17q-25 23 -25 58q0 39 31 67t79 28t79 -28t31 -67q0 -33 -25 -58q-11 -11 -25 -17q19 -8 32 -18q33 -27 33 -67q0 -43 -35 -74t-90 -31
t-90 31t-35 74zM480 260q0 -50 55 -50t55 50q0 19 -15 32t-40 13t-40 -13t-15 -32zM465 100q0 -24 18.5 -39.5t51.5 -15.5t51.5 15.5t18.5 39.5q0 25 -19 42.5t-51 17.5t-51 -17.5t-19 -42.5z" />
    <glyph glyph-name="uni215F" unicode="&#x215f;" 
d="M65 0l430 700h65l-430 -700h-65zM105 350v265h-65v40q38 0 60 22q11 11 15 23h45v-350h-55z" />
    <glyph glyph-name="arrowleft" unicode="&#x2190;" horiz-adv-x="1000" 
d="M115 330l245 245l50 -50l-160 -160h635v-70h-635l160 -160l-50 -50z" />
    <glyph glyph-name="arrowup" unicode="&#x2191;" horiz-adv-x="1000" 
d="M465 -35v635l-160 -160l-50 50l245 245l245 -245l-50 -50l-160 160v-635h-70z" />
    <glyph glyph-name="arrowright" unicode="&#x2192;" horiz-adv-x="1000" 
d="M115 295v70h635l-160 160l50 50l245 -245l-245 -245l-50 50l160 160h-635z" />
    <glyph glyph-name="arrowdown" unicode="&#x2193;" horiz-adv-x="1000" 
d="M255 210l50 50l160 -160v635h70v-635l160 160l50 -50l-245 -245z" />
    <glyph glyph-name="arrowboth" unicode="&#x2194;" horiz-adv-x="1000" 
d="M115 330l245 245l50 -50l-160 -160h500l-160 160l50 50l245 -245l-245 -245l-50 50l160 160h-500l160 -160l-50 -50z" />
    <glyph glyph-name="arrowupdn" unicode="&#x2195;" horiz-adv-x="1000" 
d="M255 210l50 50l160 -160v500l-160 -160l-50 50l245 245l245 -245l-50 -50l-160 160v-500l160 160l50 -50l-245 -245z" />
    <glyph glyph-name="uni2196" unicode="&#x2196;" horiz-adv-x="1000" 
d="M215 270v345h345v-70h-225l450 -450l-50 -50l-450 450v-225h-70z" />
    <glyph glyph-name="uni2197" unicode="&#x2197;" horiz-adv-x="1000" 
d="M215 95l450 450h-225v70h345v-345h-70v225l-450 -450z" />
    <glyph glyph-name="uni2198" unicode="&#x2198;" horiz-adv-x="1000" 
d="M440 45v70h225l-450 450l50 50l450 -450v225h70v-345h-345z" />
    <glyph glyph-name="uni2199" unicode="&#x2199;" horiz-adv-x="1000" 
d="M215 45v345h70v-225l450 450l50 -50l-450 -450h225v-70h-345z" />
    <glyph glyph-name="partialdiff" unicode="&#x2202;" horiz-adv-x="595" 
d="M120 605v70q20 10 41 17q54 18 109 18q112 0 183.5 -95.5t71.5 -284.5q0 -173 -65.5 -256.5t-179.5 -83.5q-94 0 -157 64t-63 161q0 101 64 163t166 62q65 0 117 -28q23 -11 43 -27q-12 130 -63 195t-127 65q-49 0 -98 -20q-19 -8 -42 -20zM450 305q-23 27 -64.5 48.5
t-95.5 21.5q-69 0 -112 -43t-43 -117q0 -71 42.5 -115.5t107.5 -44.5q77 0 119 57.5t46 192.5z" />
    <glyph glyph-name="emptyset" unicode="&#x2205;" horiz-adv-x="890" 
d="M80 -5l98 108q-29 29 -49 65q-49 84 -49 182q0 150 106 255t259 105q83 0 159 -35q35 -18 58 -35l58 65h90l-98 -108q27 -29 49 -65q49 -88 49 -182q0 -150 -106 -255t-259 -105q-91 0 -159 35q-30 14 -58 35l-58 -65h-90zM225 155l390 433q-19 16 -44 26q-58 26 -126 26
q-124 0 -207 -83t-83 -207q0 -79 35 -143q14 -27 35 -52zM665 545l-390 -433q19 -16 44 -26q58 -26 126 -26q124 0 207 83t83 207q0 70 -35 142q-19 35 -35 53z" />
    <glyph glyph-name="uni2206" unicode="&#x2206;" horiz-adv-x="700" 
d="M60 0l260 700h60l260 -700h-580zM166 70h368l-184 495z" />
    <glyph glyph-name="product" unicode="&#x220f;" horiz-adv-x="780" 
d="M135 -110v810h510v-810h-75v740h-360v-740h-75z" />
    <glyph glyph-name="summation" unicode="&#x2211;" horiz-adv-x="580" 
d="M70 -110v60l240 365l-240 325v60h450v-70h-360l235 -315l-235 -355h360v-70h-450z" />
    <glyph glyph-name="minus" unicode="&#x2212;" horiz-adv-x="515" 
d="M45 260v65h425v-65h-425z" />
    <glyph glyph-name="radical" unicode="&#x221a;" horiz-adv-x="655" 
d="M240 -110l-107 270h-113v70h160l95 -240l285 820h75l-320 -920h-75z" />
    <glyph glyph-name="infinity" unicode="&#x221e;" horiz-adv-x="860" 
d="M430 285q-35 -40 -58 -61.5t-61 -40t-81 -18.5q-72 0 -116 45t-44 120t44 120t116 45q61 0 104 -29.5t96 -90.5q35 40 58 61.5t61 40t81 18.5q72 0 116 -45t44 -120t-44 -120t-116 -45q-61 0 -104 29.5t-96 90.5zM390 330q-46 54 -81 79.5t-79 25.5q-43 0 -69 -28.5
t-26 -76.5t26 -76.5t69 -28.5q44 0 80 26.5t80 78.5zM470 330q44 -52 80 -78.5t80 -26.5q43 0 69 28.5t26 76.5t-26 76.5t-69 28.5q-44 0 -79 -25.5t-81 -79.5z" />
    <glyph glyph-name="integral" unicode="&#x222b;" horiz-adv-x="375" 
d="M40 -110v60h30q85 0 85 90v620q0 72 39 111t111 39h30v-60h-30q-85 0 -85 -90v-620q0 -72 -39 -111t-111 -39h-30z" />
    <glyph glyph-name="approxequal" unicode="&#x2248;" horiz-adv-x="540" 
d="M85 324l-45 31q15 26 32 42q47 43 103 43q33 0 61 -10t43.5 -22.5t38.5 -22.5t47 -10q39 0 69 30q13 14 21 31l45 -31q-14 -26 -32 -43q-46 -42 -103 -42q-34 0 -61.5 10t-43 22.5t-38 22.5t-47.5 10q-38 0 -69 -31q-12 -14 -21 -30zM85 155l-45 31q15 26 32 42
q47 43 103 43q42 0 74 -16.5t59 -32.5t57 -16q39 0 69 30q13 14 21 31l45 -31q-14 -26 -32 -43q-46 -42 -103 -42q-42 0 -74 16.5t-58.5 32.5t-57.5 16q-38 0 -69 -31q-12 -13 -21 -30z" />
    <glyph glyph-name="notequal" unicode="&#x2260;" horiz-adv-x="495" 
d="M105 60l54 115h-114v65h144l52 110h-196v65h226l54 115h65l-54 -115h114v-65h-144l-52 -110h196v-65h-226l-54 -115h-65z" />
    <glyph glyph-name="lessequal" unicode="&#x2264;" horiz-adv-x="495" 
d="M45 330v40l405 190v-70l-310 -140l310 -140v-70zM45 15v65h405v-65h-405z" />
    <glyph glyph-name="greaterequal" unicode="&#x2265;" horiz-adv-x="495" 
d="M45 140v70l310 140l-310 140v70l405 -190v-40zM45 15v65h405v-65h-405z" />
    <glyph glyph-name="uni2318" unicode="&#x2318;" horiz-adv-x="810" 
d="M195 265h65v170h-65q-68 0 -106.5 38t-38.5 102q0 53 38 89t97 36q64 0 102 -38.5t38 -106.5v-60h160v60q0 68 38 106.5t102 38.5q59 0 97 -36t38 -89q0 -64 -38.5 -102t-106.5 -38h-65v-170h65q68 0 106.5 -38t38.5 -102q0 -53 -38 -89t-97 -36q-64 0 -102 38.5
t-38 106.5v60h-160v-60q0 -68 -38 -106.5t-102 -38.5q-59 0 -97 36t-38 89q0 64 38.5 102t106.5 38zM325 265h160v170h-160v-170zM550 495h65q38 0 59 20.5t21 54.5q0 30 -20 50t-50 20q-35 0 -55 -22t-20 -63v-60zM550 205v-60q0 -41 20 -63t55 -22q30 0 50 20t20 50
q0 34 -21 54.5t-59 20.5h-65zM195 495h65v60q0 41 -20 63t-55 22q-30 0 -50 -20t-20 -50q0 -34 21 -54.5t59 -20.5zM260 145v60h-65q-38 0 -59 -20.5t-21 -54.5q0 -30 20 -50t50 -20q35 0 55 22t20 63z" />
    <glyph glyph-name="uni2460" unicode="&#x2460;" horiz-adv-x="1000" 
d="M490 165v295q-9 -11 -23 -20q-31 -21 -80 -25v47q42 4 82 44q15 16 26 37h54v-378h-59zM500 -95q-92 0 -174.5 34.5t-142 94t-94 142t-34.5 174.5t34.5 174.5t94 142t142 94t174.5 34.5t174.5 -34.5t142 -94t94 -142t34.5 -174.5t-34.5 -174.5t-94 -142t-142 -94
t-174.5 -34.5zM500 -35q161 0 273 112t112 273t-112 273t-273 112t-273 -112t-112 -273t112 -273t273 -112z" />
    <glyph glyph-name="uni2461" unicode="&#x2461;" horiz-adv-x="1000" 
d="M442 223h184v-58h-256q0 43 20.5 78.5t49.5 58t58 42t49.5 42.5t20.5 49q0 24 -17 39t-46 15q-36 0 -67 -25q-10 -9 -19 -25l-49 23q9 24 27 42q41 43 108 43q56 0 91 -31.5t35 -80.5q0 -39 -26 -71t-58 -50t-64 -42.5t-41 -48.5zM500 -95q-92 0 -174.5 34.5t-142 94
t-94 142t-34.5 174.5t34.5 174.5t94 142t142 94t174.5 34.5t174.5 -34.5t142 -94t94 -142t34.5 -174.5t-34.5 -174.5t-94 -142t-142 -94t-174.5 -34.5zM500 -35q161 0 273 112t112 273t-112 273t-273 112t-273 -112t-112 -273t112 -273t273 -112z" />
    </font>
</defs>
</svg>
